<svg width="400" height="281" viewBox="0 0 400 281" fill="none" xmlns="http://www.w3.org/2000/svg">
<g filter="url(#filter0_g_15_158)">
<path d="M83.4595 23.9326C86.0171 23.4145 88.0851 23.6154 90.548 23.3176C102.7 21.848 114.998 23.6543 126.666 27.0181C136.402 29.8249 145.063 34.9503 154.098 39.3725C157.157 40.8705 160.073 43.575 162.982 45.3516C165.199 46.8139 170.321 47.8702 172.052 49.6991C175.403 53.2411 171.891 57.5975 177.594 59.4211C178.522 60.9098 176.745 60.8633 177.935 62.0513C177.879 63.7096 178.891 62.5442 178.005 63.4502C178.201 64.105 178.614 64.3742 179.129 64.8489C179.71 65.0232 180.396 64.3234 181.184 64.089C180.579 63.0859 179.52 62.1497 179.382 61.0038C179.886 60.3783 180.219 61.036 180.829 60.4574C180.956 60.3367 180.808 59.9994 181.289 59.5498C182.704 59.8856 184.044 63.0543 185.404 63.6753C185.444 63.6579 185.473 63.6422 185.493 63.628C185.461 63.594 185.428 63.564 185.395 63.5383C184.923 63.5022 185.71 63.4767 185.493 63.628C186.265 64.4459 186.583 67.5786 187.804 67.8928C188.542 67.166 188.506 65.9035 188.608 64.8463C189.72 65.6698 190.149 65.6537 191.452 66.0018C192.113 67.0251 190.506 69.0187 190.718 70.1727C191.146 72.4757 188.374 73.1182 187.633 75.567C187.89 77.383 191.144 78.9684 192.557 80.1785C195.716 82.8842 193.446 82.4999 193.868 86.1637C194.488 86.8945 195.206 87.4453 195.04 88.4246L194.368 88.8547C193.352 90.8054 197.01 90.8042 197.033 92.8032C197.034 92.9235 197.393 94.3506 197.441 94.5727C198.09 95.0338 198.579 95.3431 199.126 95.9309L199.02 96.3617C198.794 96.494 198.078 96.8719 198.034 97.077C197.793 98.2034 198.566 100.597 198.68 101.601C198.874 103.295 199.953 103.438 200.232 104.637L199.956 104.825C198.998 104.892 197.607 104.519 196.625 104.305C199.385 107.755 198.397 107.316 200.826 111.569C197.907 114.18 200.573 116.987 198.055 119.648C198.044 121.207 198.244 122.978 198.381 124.547C197.434 124.315 197.827 123.967 196.876 123.75C197.837 127.49 197.032 126.368 196.314 129.172C195.525 132.26 195.589 134.636 193.942 137.591C193.899 137.666 193.476 142.441 193.303 143.259C193.276 143.294 193.254 143.323 193.237 143.347C193.214 143.434 193.137 143.488 193.237 143.347C193.267 143.238 193.214 143.076 192.626 143.183C191.65 144.111 192.489 146.468 192.061 147.572C189.496 154.226 191.113 161.114 189.712 168.043C189.38 169.675 188.874 171.818 188.337 173.409C186.441 179.017 188.038 184.948 187.646 190.816C187.317 195.997 185.09 201.269 183.714 206.275C180.963 215.983 176.292 223.253 170.345 231.107C165.638 237.321 161.182 242.874 155.709 248.446L147.462 256.87C146.755 257.578 145.419 258.83 144.163 260.138C142.448 261.924 141.376 262.78 139.6 264.337C137.824 265.894 133.033 267.4 128.345 269.047C122.402 271.136 118.7 270.332 112.378 270.779C105.392 271.273 93.3296 268.472 88.9 266.363C82.6723 263.398 73.9931 256.602 62.366 243.767C53.0642 233.499 48.8314 227.486 47.8778 225.763L40.6003 212.281L39.6219 210.506L35.4268 196.381C34.5298 196.609 32.4055 196.793 31.0835 195.711C29.7616 194.629 26.928 189.55 25.6764 187.146L17.3223 163.751C15.9371 159.153 13.8043 154.023 13.219 149.269C12.7329 145.32 12.9891 140.964 12.409 136.91C11.9712 133.849 13.1946 132.977 12.3242 129.51C9.39067 127.473 11.4261 125.282 10.5267 123.781C9.97804 123.718 9.76681 124 9.20079 124.354C9.79062 122.075 10.2344 119.96 10.6964 117.658C10.8095 116.757 11.8451 114.419 11.7976 113.619C11.5991 110.264 11.9757 107.781 12.8239 104.653C13.0403 103.855 11.6698 100.222 11.8074 98.9633C12.0809 96.4607 13.1251 95.3931 12.0239 93.0887C14.1417 88.3781 13.7267 86.0721 14.7671 81.8227C16.5272 77.8701 18.6511 71.1993 21.1995 67.7331C27.2986 59.4375 34.7696 49.5102 43.4124 43.7598C46.1141 41.9625 49.9805 40.0749 52.7485 38.5841C56.9165 36.3395 60.3279 35.1338 64.0423 31.9202C70.2778 27.3055 76.0046 25.7873 83.4595 23.9326Z" fill="#E35619"/>
</g>
<g filter="url(#filter1_g_15_158)">
<path d="M133.779 75.3241C132.84 74.8136 131.937 74.1606 130.911 74.1549C130.61 74.7498 130.479 75.2966 129.829 75.4763C128.209 75.9241 126.015 73.5995 124.306 73.6246C122.291 74.7638 121.978 74.9281 119.693 75.0718C116.595 79.034 115.414 76.3701 114.244 77.4988C111.408 80.2342 104.6 87.8383 102.117 90.7932C94.1212 100.31 86.7775 111.077 74.786 115.652C71.4137 116.916 69.2609 117.868 65.4645 118.191C64.1915 118.3 59.1125 118.465 58.3005 117.834C58.1656 117.703 57.9176 117.383 58.005 117.153C58.0925 116.924 58.6698 116.903 58.9475 116.921L63.2397 116.956C70.8995 117.269 80.7029 111.762 86.3596 106.742C91.7198 101.985 95.815 96.5817 100.033 90.8571C102.118 88.0264 103.531 86.8437 105.384 83.5133C104.398 84.4559 103.21 86.1062 102.098 86.149L102.086 86.1385C101.73 85.8077 101.647 85.7299 101.349 85.343C100.687 85.4366 94.715 91.5685 93.5412 92.546C91.1311 94.553 89.5446 96.7739 86.5575 98.4357L86.6722 98.2224C88.0447 95.7051 96.1846 88.8408 95.9845 87.7265C94.8163 88.1594 92.6089 90.4059 91.6709 91.362C88.9962 94.0883 86.2329 96.7228 83.5401 99.4332C82.1052 100.877 80.8619 102.607 79.2929 103.909C71.5336 109.063 61.5544 110.571 52.4309 109.27C49.7392 108.886 47.5952 108.324 44.9066 108.402C44.4962 110.159 45.1774 112.277 44.9576 112.905C43.5246 116.998 41.95 121.035 40.5348 125.148C39.6234 127.797 38.1617 130.32 37.8614 133.213C37.5463 136.385 38.2969 139.186 38.048 142.497C39.7144 144.894 39.0829 147.208 39.3552 150.01C39.7447 154.017 40.6465 157.957 39.7775 161.977C39.4361 163.557 39.0821 166.881 37.0582 166.891C34.9778 165.606 33.642 156.622 31.3155 154.451C30.8403 154.008 29.7965 150.429 29.1304 149.97C28.3665 150.618 28.3089 152.692 27.713 153.246C26.7714 151.949 27.6189 147.822 26.604 146.883C25.5736 147.469 25.844 148.868 25.0902 149.354C23.9873 148.452 24.5329 145.732 23.8495 144.722C23.1723 144.438 23.2995 144.358 22.7649 144.527C21.02 146.939 20.0507 149.82 20.486 152.815C20.6889 154.212 21.6748 156.813 21.5985 157.922L21.3139 158.066C19.8327 157.145 18.3 153.684 17.9202 151.965C17.0195 147.886 18.0354 146.794 15.8916 143.044C15.3108 146.806 15.0854 149.789 16.0531 153.595C16.9992 157.317 19.8274 160.781 21.3112 164.23C22.6355 167.524 22.9809 171.06 24.3736 174.344C25.6751 177.413 27.8148 180.377 29.0436 183.432C30.2536 186.442 28.4017 187.979 32.4101 189.441C33.2049 189.349 33.8507 189.291 34.6224 189.046C35.8389 188.66 37.4721 186.995 38.6093 187.37C39.5876 188.835 40.5401 195.009 41.2501 197.072C47.8433 216.238 58.2152 233.452 73.2016 247.244C74.3571 248.308 75.8309 250.14 76.9134 251.376C78.7296 253.389 85.44 256.851 87.2897 258.523L96.1163 262.183L104.779 264.204C110.86 265.888 115.136 265.436 121.226 264.794L121.695 264.744C123.288 264.575 124.857 264.079 126.44 263.864C130.103 263.369 134.636 261.545 137.819 259.679C142.145 257.142 143.9 253.811 146.99 250.185C149.736 246.963 152.627 243.865 155.247 240.535C160.812 233.457 175.677 212.402 177.729 204.234C179.028 199.059 179.638 193.316 179.775 187.978C179.834 185.652 179.513 183.082 179.843 180.795C179.953 180.043 180.258 179.504 180.666 178.876C180.25 177.13 179.832 175.452 179.097 173.799C178.126 171.621 176.49 169.787 175.541 167.616C176.906 168.392 178.373 169.539 179.573 170.12L179.72 169.959C178.99 167.328 178.647 166.904 178.389 164.182C177.744 163.451 176.589 162.281 176.265 161.426L176.312 160.943C177.485 160.254 179.422 162.713 180.827 163.018L180.989 162.825C180.627 160.373 178.449 159.129 176.94 157.496C176.348 156.856 177.764 156.462 176.454 155.658C171.695 152.737 168.2 150.725 162.88 149.226C160.465 150.158 157.921 151.668 155.621 152.627C152.588 153.892 140.149 155.655 138.085 152.687C138.199 152.137 138.058 152.35 138.529 152.034C139.189 151.956 142.468 152.068 142.979 152.253C145.144 153.039 161.119 152.048 156.586 147.426C154.891 145.698 147.868 150.32 146.347 147.053C145.615 146.656 143.328 146.732 142.646 147.095L142.568 147.438C142.952 147.962 143.297 148.21 143.239 148.72C142.681 149.032 142.636 149.033 142.019 149.053L141.961 149.055C141.729 148.942 141.427 148.794 141.054 148.612C139.075 148.573 136.619 149.446 134.78 150.024C133.368 150.468 132.514 151.138 131.425 151.88C132.229 149.271 133.434 147.78 134.946 145.516C133.345 146.407 130.324 148.669 129.338 150.168C129.755 152.966 129.891 154.319 129.874 157.206C128.269 155.034 126.335 152.412 126.817 149.602C127.292 146.84 129.585 142.939 131.502 140.928C130.234 139.552 130.074 139.148 128.356 138.605C128.662 137.891 128.978 137.096 129.334 136.412C130.482 136.441 131.883 136.58 132.914 136.12C133.527 135.405 133.46 135.419 132.884 134.568C133.013 133.981 137.108 129.291 137.736 128.713C140.651 128.018 143.711 127.537 145.854 125.356C149.292 126.024 150.732 125.511 154.078 125.45C154.934 125.434 156.805 126.592 158.02 126.11L157.985 125.508C158.225 125.244 163.463 123.892 164.212 123.779C166.358 123.452 169.514 125.706 171.449 125.34C172.189 124.026 169.792 121.605 170.466 119.557C171.254 119.11 172.371 119.948 173.148 120.363C173.05 119.557 172.797 118.324 173.092 117.646C173.54 117.232 173.915 117.278 174.551 117.22C175.307 115.27 175.202 113.074 176.198 110.67C174.495 108.686 174.534 104.105 173.925 101.578C173.644 100.419 172.459 99.4458 172.142 98.1539C172.388 97.5864 173.013 96.8386 172.813 96.4406C171.787 94.406 171.093 93.0876 169.905 91.1394C169.912 91.153 170.206 90.0331 170.179 89.997C169.807 89.4747 166.476 88.3426 166.198 88.1097C165.855 87.8216 164.659 86.1795 164.007 85.8617C160.844 84.3213 155.33 80.9475 152.396 79.7509C148.119 78.0079 147.054 76.5652 143.363 74.9264C140.71 75.5906 140.977 74.7922 138.786 73.765C136.43 73.9815 135.956 74.2216 133.89 75.2683L133.779 75.3241Z" fill="#F8F8F7"/>
</g>
<g filter="url(#filter2_g_15_158)">
<path d="M152.464 187.051C153.862 187.068 160.304 193.405 161.666 194.798C162.553 195.706 163.978 198.493 165.003 199.642C165.608 200.321 167.444 202.646 167.518 203.539C166.677 203.981 166.166 202.688 164.929 202.99C162.804 203.48 161.481 205.757 159.242 206.029C158.058 206.155 156.159 205.571 155.159 206.404C152.335 208.759 150.23 212.391 148.046 215.323C146.684 217.16 145.176 218.884 143.537 220.479C133.074 230.569 112.388 229.563 100.046 223.106C97.4451 221.745 92.1142 216.729 90.0129 214.549C87.2119 211.498 83.3691 206.683 78.8597 206.444C78.0141 206.4 75.824 206.569 75.7163 205.303C76.2647 204.953 82.406 205.031 83.7002 204.906C93.0688 204 102.281 203.299 111.703 203.234C113.72 203.219 121.503 204.492 122.445 204.34C123.318 203.533 125.436 203.531 126.696 203.272C135.368 201.485 143.858 202.364 152.592 202.761C155.151 202.876 161.509 204.173 163 201.79C162.885 199.782 158.193 197.399 156.882 195.38L156.96 195.11C157.538 195.152 157.871 195.227 158.409 195.051C158.278 193.429 152.808 188.951 152.464 187.051Z" fill="#E35619"/>
</g>
<g filter="url(#filter3_g_15_158)">
<path d="M91.04 207.104C92.6903 207.878 93.7746 209.095 95.0276 210.382C95.0143 209.34 94.9456 208.2 94.9047 207.151C96.5288 208.494 98.0212 210.144 99.5785 211.618L99.428 207.691C101.976 208.674 102.972 209.069 104.977 210.881C105.58 209.471 106.509 207.166 108.208 206.997C110.263 207.463 110.474 210.162 112.085 210.303C112.613 209.938 113.719 207.723 114.1 207.043C116.1 207.42 117.486 207.687 119.333 208.532C119.691 209.187 120.071 210.009 120.407 210.691C121.106 210.01 122.115 208.716 122.768 207.928C124.326 207.675 125.931 207.583 127.507 207.462C128.252 208.699 128.824 209.936 129.447 211.232C129.999 210.304 131.315 208.619 132.294 208.174C134.152 207.325 134.828 209.69 135.311 210.87L135.531 211.077C136.637 210.8 138.823 207.961 139.773 206.921C139.483 210.339 139.442 212.005 138.02 215.176C137.266 215.59 134.634 217.042 133.947 217.08C132.818 217.142 131.364 216.655 129.829 216.835C127.59 217.099 125.506 217.773 123.268 217.901C122.241 217.897 121.689 217.083 120.608 217.404C117.352 218.371 115.33 218.236 112.153 217.333C111.59 217.173 108.752 217.977 107.685 217.703C106.053 217.284 105.856 216.667 104.944 215.408C101.501 216.844 101.635 216.751 99.5402 213.751L97.7353 215.187C97.4707 214.897 97.1442 214.528 96.8667 214.259C93.7909 211.28 91.39 212.119 91.04 207.104Z" fill="#F8F8F7"/>
</g>
<g filter="url(#filter4_g_15_158)">
<path d="M122.913 221.022C123.765 221.055 130.531 222.139 131.55 222.331C130.775 222.71 129.748 223.081 128.911 223.403C127.222 224.086 124.542 224.739 122.73 225.179C122.631 223.795 122.795 222.413 122.913 221.022Z" fill="#F8F8F7"/>
</g>
<g filter="url(#filter5_g_15_158)">
<path d="M108.31 219.45C111.841 221.02 112.267 222.506 114.135 225.916L112.461 225.081C110.181 223.894 108.005 222.742 105.648 221.706L108.31 219.45Z" fill="#F8F8F7"/>
</g>
<g filter="url(#filter6_g_15_158)">
<path d="M116.349 220.091C117.955 220.309 119.548 223.161 119.496 224.726C118.277 224.527 116.643 221.274 116.349 220.091Z" fill="#F8F8F7"/>
</g>
<g filter="url(#filter7_g_15_158)">
<path d="M142.12 209.055L142.317 209.239C142.554 209.951 142.565 210.716 142.25 211.405C141.84 209.871 141.023 210.612 142.12 209.055Z" fill="#F8F8F7"/>
</g>
<g filter="url(#filter8_g_15_158)">
<path d="M65.605 126.878L65.9344 126.919L66.1107 127.15C65.87 127.933 65.0538 128.924 64.5421 129.622C65.3144 129.165 65.6486 128.79 66.5189 128.717L66.5669 129.034C66.1942 129.501 65.9426 129.731 65.5064 130.145C67.0007 129.523 67.619 129.224 69.029 128.411C71.5165 129.118 71.9123 127.826 74.309 128.376C75.9392 128.75 78.1209 128.081 79.9558 127.917C86.4265 127.41 94.5038 126.873 100.171 130.656C102.844 132.44 103.046 134.023 101.172 136.527C99.4267 135.071 98.3514 134.144 96.2355 133.202L96.3723 135.745C93.7605 134.631 89.9482 133.474 87.1187 133.436C85.9008 133.427 82.0845 132.74 81.4481 133.05C81.6974 133.581 82.8943 134.047 83.5017 134.349C81.98 133.895 77.2491 132.115 76.1609 133.138L76.2987 133.856C75.0021 133.953 73.8129 133.911 72.4628 134.048C69.0303 134.399 67.0128 135.636 63.974 136.886L63.9089 137.114L64.6219 137.743C63.7208 138.333 61.844 137.237 60.6396 138.762C60.7873 139.211 62.3294 140.337 62.8104 140.735C61.3662 140.638 56.3748 139.464 54.9667 138.995C54.5256 138.318 55.2575 138.798 55.1002 137.834C54.4234 137.348 53.4656 137.407 52.5814 137.349C53.5429 136.458 55.0413 135.621 55.8641 134.757C56.7506 133.826 57.2685 132.317 58.4876 131.525C59.5693 130.821 61.4925 130.701 62.3845 129.934C63.6865 128.814 64.1162 127.944 65.605 126.878Z" fill="#E35619"/>
</g>
<g filter="url(#filter9_g_15_158)">
<path d="M81.3752 141.136C86.4095 140.349 94.4184 139.848 98.9588 142.352C99.6751 142.747 100.405 143.204 101.102 143.613C105.654 146.285 106.559 146.893 105.77 152.064C103.796 147.512 102.369 146.862 97.9561 144.541C98.8165 145.575 100.222 146.781 101.211 147.877C102.69 149.514 103.462 150.784 104.653 152.639C103.625 152.062 101.8 150.654 100.743 149.897C99.3579 149.894 98.9825 150.016 97.6974 149.407C95.905 148.9 96.4109 150.167 94.0371 149.835C92.0363 149.555 89.6304 149.299 87.6348 149.037C85.8917 148.73 85.9978 148.658 84.4554 147.696C83.935 147.372 83.8539 147.316 83.4164 147.451L83.3492 148.047L83.0895 148.238C81.2445 148.124 78.623 146.964 76.9307 147.198C72.6725 147.787 68.964 150.043 64.582 150.496C60.2722 150.941 56.6202 149.169 52.3295 149.185C51.9693 149.188 51.8036 148.956 51.63 148.694L51.8753 148.209C53.8262 147.08 59.2556 149.049 61.7332 149.098C63.7057 149.136 68.0618 148.98 69.2096 146.834C69.2784 146.705 69.0029 145.941 69.4428 145.594C73.0992 142.706 76.8678 141.74 81.3752 141.136Z" fill="#E35619"/>
</g>
<g filter="url(#filter10_g_15_158)">
<path d="M91.9026 143.632C92.9964 143.976 94.3957 144.68 94.7044 145.845C94.3468 146.369 94.0523 146.306 93.3165 146.525L93.1985 146.631C92.5834 146.775 91.4822 146.491 90.8076 146.368C91.1393 145.328 91.3341 144.568 91.9026 143.632Z" fill="#F8F8F7"/>
</g>
<g filter="url(#filter11_g_15_158)">
<path d="M82.3582 142.594C83.8512 142.615 84.1984 143.015 84.6679 144.366C83.9854 144.596 83.5266 144.632 82.8795 144.375C82.3335 143.613 82.4864 143.63 82.3582 142.594Z" fill="#F8F8F7"/>
</g>
<g filter="url(#filter12_g_15_158)">
<path d="M139.108 175.442C140.889 175.509 144.637 178.843 146.914 180.058C147.202 180.556 147.159 180.296 147.041 180.865C146.619 181.092 147.621 181.734 147.206 181.969C146.69 183.08 147.27 184.089 147.092 185.259C146.97 186.059 146.66 187.134 146.443 187.931L146.936 188.754L146.796 189.064C144.18 191.15 140.993 191.978 137.903 193.045C136.539 193.515 133.447 194.994 132.103 195.215C130.481 195.484 128.21 195.303 126.287 195.621C124.275 195.952 121.506 196.63 119.518 196.378C115.494 195.868 112.978 193.098 109.292 192.213C108.872 192.113 106.56 192.548 105.389 192.429C101.165 191.999 97.5754 190.06 94.8798 186.805C94.273 185.645 94.338 184.43 94.3605 183.153C95.2699 181.868 95.75 181.233 96.8482 180.054C96.8 181.22 96.2927 183.63 96.065 184.941C100.077 192.285 104.585 189.452 110.946 190.673C113.396 191.143 115.323 194.186 119.333 194.175C125.248 194.161 125.942 193.054 130.135 189.217C130.596 189.782 130.667 189.893 131.242 190.319C137.167 191.745 145.084 186.819 143.463 180.235C142.954 178.165 139.901 177.017 139.108 175.442Z" fill="#E35619"/>
</g>
<g filter="url(#filter13_g_15_158)">
<path d="M86.8757 185.078C87.5663 185.02 87.2822 184.924 87.7855 185.259C87.9847 186.073 87.6692 187.47 87.5226 188.355C79.9153 191.951 77.0232 197.167 72.7146 204.126C71.7666 205.656 70.9843 207.907 70.1959 209.6L69.7136 209.71L69.3952 209.501C67.8071 204.436 73.949 196.995 77.1082 193.384C79.5055 190.644 83.897 187.465 86.8757 185.078Z" fill="#E35619"/>
</g>
<g filter="url(#filter14_g_15_158)">
<path d="M73.38 150.596C75.4213 150.07 80.8952 153.648 83.6807 153.716C89.2222 153.852 94.0347 152.244 99.6183 151.629C100.911 152.18 102.742 152.577 102.915 154.036C100.861 155.161 101.037 153.898 99.5914 154.074C94.5332 154.691 88.7421 155.149 83.7889 156.156C81.2805 154.669 76.2927 152.673 73.6113 151.079C73.5343 150.918 73.4572 150.757 73.38 150.596Z" fill="#E35619"/>
</g>
<g filter="url(#filter15_g_15_158)">
<path d="M27.6781 160.816C29.0316 161.314 29.8215 165.127 30.7652 166.836C31.4844 167.235 32.3946 167.642 32.658 168.409C32.4489 169.035 32.6327 168.778 32.03 169.164C29.9845 169.817 29.5898 169.604 27.9633 168.345C27.0823 165.569 26.8938 163.601 27.6781 160.816Z" fill="#E35619"/>
</g>
<g filter="url(#filter16_g_15_158)">
<path d="M132.931 153.935C134.032 154.171 143.857 158.545 144.365 159.339C141.665 159.348 132.941 156.975 132.931 153.935Z" fill="#E35619"/>
</g>
<g filter="url(#filter17_g_15_158)">
<path d="M82.5579 102.764L82.9028 102.794C82.6543 103.361 82.2912 103.623 81.8363 104.048L81.4668 104.073C81.512 103.538 82.0554 103.232 82.5579 102.764Z" fill="#F8F8F7"/>
</g>
<g filter="url(#filter18_g_15_158)">
<path d="M150.741 132.657C151.606 132.423 152.176 132.569 153.048 132.654C154.335 132.78 158.588 131.349 159.311 132.509L158.937 133.213C160.259 133.477 162.056 132.633 163.496 133.357C163.008 133.75 162.938 133.794 162.577 134.292L162.721 134.59C163.264 134.875 166.275 135.422 167.361 135.749C166.496 136.296 165.399 136.898 164.781 137.682C164.828 138.4 165.346 137.659 165.995 138.566L165.863 139.361C166.398 139.812 167.485 139.894 168.236 140.027C168.845 140.589 169.527 141.168 170.16 141.703L170.093 142.484C171.394 144.165 174.277 140.832 175.271 142.352L174.909 143.154C175.197 143.56 176.769 144.4 177.3 144.709C176.679 146.413 177.347 145.948 177.563 147.803C177.047 148.995 175.32 149.165 174.161 149.214C170.532 149.368 167.082 149.17 163.711 147.71C168.287 147.56 168.428 148.074 172.637 146.221C173.219 145.896 173.506 145.638 173.672 145.053L173.415 144.806C171.996 144.424 170.491 145.537 169.061 146.045C165.17 147.427 164.079 145.475 161.319 143.338C160.299 142.55 157.912 141.311 156.723 140.712C153.159 138.92 144.496 138.691 140.935 140.255C139.195 141.02 137.85 142.477 135.278 143.433L134.894 143.047L134.754 143.439C134.848 142.984 136.271 141.704 136.702 141.268L135.038 140.295C139.254 135.581 144.741 133.7 150.741 132.657Z" fill="#F8F8F7"/>
</g>
<g filter="url(#filter19_g_15_158)">
<path d="M116.879 44.1704C118.934 44.3805 124.471 49.0957 126.747 50.3611C128.255 51.1996 130.133 52.1886 131.671 53.0127L131.651 53.2015C129.234 54.0659 125.44 49.2353 123.808 50.0563C124.065 50.8344 129.62 53.798 130.919 54.5925C132.288 55.4052 134.537 57.1976 135.849 58.2216L135.796 58.4054C132.338 57.0328 128.38 54.3018 125.209 52.3455C121.848 50.2722 119.127 47.3909 115.941 45.009C117.341 45.7127 118.319 46.2665 119.857 46.6461C118.894 45.7891 117.881 44.9832 116.879 44.1704Z" fill="#F8F8F7"/>
</g>
<g filter="url(#filter20_g_15_158)">
<path d="M103.433 46.3754C105.724 46.3356 106.314 46.3234 108.58 46.8539C109.652 47.1048 112.994 48.3604 113.523 48.3495L113.717 48.0489L114.047 47.4235C115.576 48.0878 119.21 50.2849 119.991 51.5763C119.22 52.1834 114.684 50.2689 113.536 49.9135C110.117 48.8548 106.747 47.7376 103.433 46.3754Z" fill="#F8F8F7"/>
</g>
<g filter="url(#filter21_g_15_158)">
<path d="M80.2714 74.1594L80.5391 74.0485L80.7629 74.4954C80.7251 75.6171 78.4783 76.8016 77.611 78.1629C77.9078 78.5761 78.2255 78.5664 78.7945 78.7553C77.3706 79.256 76.6249 79.5591 75.1213 79.7709C75.5797 79.1709 75.8257 78.9512 76.3707 78.4448L76.367 78.1239C75.9778 77.9296 75.9118 77.9154 75.5719 77.6252C75.9459 77.0241 76.7276 76.8683 77.5156 76.4019L77.505 76.1463C76.7977 76.0623 76.3087 76.0684 75.6963 75.7129L75.727 75.4343C76.902 74.441 78.7095 74.3896 80.2714 74.1594Z" fill="#F8F8F7"/>
</g>
<g filter="url(#filter22_g_15_158)">
<path d="M50.9054 82.1369C51.2808 82.3255 51.2515 82.3214 51.4948 82.6696C51.0955 85.0301 43.8516 87.0032 41.6227 87.7046C41.2874 87.6634 41.3111 87.6521 41.054 87.4254C41.3263 85.676 47.0977 84.5766 48.6106 84.0166C49.3209 83.7539 50.3528 82.6895 50.9054 82.1369Z" fill="#F8F8F7"/>
</g>
<g filter="url(#filter23_g_15_158)">
<path d="M88.3867 58.947C89.3093 58.8103 95.7243 58.6266 96.2567 59.0311L96.2031 59.1123C94.2798 59.7155 93.2691 59.7606 91.2971 60.0453C90.0766 60.2183 84.3043 61.5169 83.637 60.9747C84.1632 60.5195 87.4756 59.1206 88.3867 58.947Z" fill="#F8F8F7"/>
</g>
<g filter="url(#filter24_g_15_158)">
<path d="M46.9799 75.5741C47.3435 75.8005 47.1858 75.6622 47.4006 76.0475C45.7557 79.127 42.2457 79.1159 39.1187 79.7873C38.7813 79.4722 38.8524 79.6556 38.8341 79.2493C40.3568 77.9979 43.2202 77.613 45.0495 76.8977C45.5256 76.7115 46.5429 75.911 46.9799 75.5741Z" fill="#F8F8F7"/>
</g>
<g filter="url(#filter25_g_15_158)">
<path d="M171.977 151.211C175.266 150.773 177.885 151.011 179.085 154.439C177.453 154.188 173.466 152.103 171.977 151.211Z" fill="#F8F8F7"/>
</g>
<g filter="url(#filter26_g_15_158)">
<path d="M49.0936 99.9185C50.6491 99.7244 55.9452 99.5209 56.9857 100.644L56.8901 101.054C56.7788 101.084 56.6675 101.113 56.5561 101.143L56.3783 101.182C54.9143 101.511 50.1215 101.255 49.0408 100.322L49.0936 99.9185Z" fill="#F8F8F7"/>
</g>
<g filter="url(#filter27_g_15_158)">
<path d="M48.9437 68.8421C49.4251 68.948 49.7382 68.9591 50.0862 69.3011C49.3551 71.2218 45.5045 71.3219 43.9385 72.9042C43.7876 73.0714 43.5414 73.2232 43.3501 73.3587L43.2707 73.2475C44.3229 70.7692 46.5224 70.1478 48.9437 68.8421Z" fill="#F8F8F7"/>
</g>
<g filter="url(#filter28_g_15_158)">
<path d="M36.6437 76.3751L37.207 76.4522L37.339 76.7627C36.7895 78.7866 34.5185 80.0536 32.8236 81.1219L32.3206 81.0852L32.1555 80.8737C32.3128 79.7987 35.2996 78.0061 36.6437 76.3751Z" fill="#F8F8F7"/>
</g>
<g filter="url(#filter29_g_15_158)">
<path d="M59.0598 55.8879L59.3743 55.9413C59.5453 56.1595 59.6253 56.3407 59.7148 56.6024C60.3097 56.7141 60.4479 56.6916 60.9938 56.4314L60.6517 56.7994L60.7158 56.7312C59.6228 57.9117 59.9585 58.4103 59.376 59.9536L58.5082 60.0673C57.885 59.5453 58.6665 59.8172 58.3898 58.6755L57.274 58.5861L57.1176 58.312C57.4745 57.5166 58.443 56.5629 59.0598 55.8879Z" fill="#F8F8F7"/>
</g>
<g filter="url(#filter30_g_15_158)">
<path d="M102.875 28.9891C103.778 28.828 104.955 28.5924 105.662 29.2354L105.496 29.627C105.085 29.9243 103.148 30.3779 102.677 30.3351C101.775 30.4024 100.183 30.9404 99.4855 30.2533C100.195 29.506 101.873 29.2187 102.875 28.9891Z" fill="#F8F8F7"/>
</g>
<g filter="url(#filter31_g_15_158)">
<path d="M112.746 66.3698C112.544 66.4699 112.329 66.6976 112.151 66.8592C110.616 67.0084 107.856 67.9186 106.576 67.1618L106.592 66.875C107.737 66.001 111.512 65.7777 112.965 65.8889L112.746 66.3698Z" fill="#F8F8F7"/>
</g>
<g filter="url(#filter32_g_15_158)">
<path d="M90.2183 42.4854C90.7952 42.353 91.4852 42.3376 92.0559 42.5063L92.1589 42.7977C91.1171 43.6254 88.5878 43.636 87.0133 44.0661L86.779 44.1312C86.2898 44.3893 86.1241 44.4747 85.6023 44.6476L85.4716 44.4502C86.4484 43.116 88.7199 42.7283 90.2183 42.4854Z" fill="#F8F8F7"/>
</g>
<g filter="url(#filter33_g_15_158)">
<path d="M47.2887 50.1175L47.5716 50.1554L47.6545 50.3817C45.2649 52.4916 43.5542 52.6418 41.0709 55.3155C40.701 55.3351 40.8386 55.3538 40.4946 55.2038C40.8402 53.5334 44.3978 51.8057 45.8255 51.2321C45.9999 51.1621 47.0695 50.2951 47.2887 50.1175Z" fill="#F8F8F7"/>
</g>
<g filter="url(#filter34_g_15_158)">
<path d="M79.0599 47.5283C79.5215 47.6137 79.841 47.7706 80.1405 48.1265L80.0438 48.522C79.3051 49.1705 78.5789 49.3138 77.6378 49.6025L77.3295 49.785L77.1102 49.6445C77.3224 48.7366 78.3308 48.0292 79.0599 47.5283Z" fill="#F8F8F7"/>
</g>
<g filter="url(#filter35_g_15_158)">
<path d="M144.04 142.829C144.782 142.837 145.118 142.943 145.667 143.404C146.006 144.197 145.963 143.843 145.756 144.765C144.988 144.81 144.553 144.84 143.996 144.277C143.776 143.603 143.832 143.544 144.04 142.829Z" fill="#F8F8F7"/>
</g>
<g filter="url(#filter36_g_15_158)">
<path d="M42.6398 105.686C43.6721 105.916 46.3816 107.13 46.8418 108.104C46.2033 108.03 45.171 107.595 44.6029 107.278C43.5382 106.682 43.0189 106.756 42.6398 105.686Z" fill="#F8F8F7"/>
</g>
<g filter="url(#filter37_g_15_158)">
<path d="M114.66 67.0588L114.499 67.3661C113.529 67.8799 111.174 68.4139 110.065 68.565C110.013 68.3229 110.033 68.4361 110.177 68.1303C111.733 67.3234 112.944 67.2495 114.66 67.0588Z" fill="#F8F8F7"/>
</g>
<g filter="url(#filter38_g_15_158)">
<path d="M35.1965 65.8778L35.4311 66.0045L35.4859 66.3442C35.0177 67.2774 34.0621 68.3016 33.3655 69.1184L33.0797 69.0319L33.0247 68.6405C33.49 67.5201 34.2738 66.6444 35.1965 65.8778Z" fill="#F8F8F7"/>
</g>
<g filter="url(#filter39_g_15_158)">
<path d="M67.7706 62.8369L68.4324 63.0865L68.5918 63.4784C68.3362 64.1813 67.7172 64.5876 67.1263 65.0959L66.9085 65.3061L66.6333 65.2545L66.5578 64.7896C66.8575 63.8491 67.1402 63.5928 67.7706 62.8369Z" fill="#F8F8F7"/>
</g>
<g filter="url(#filter40_g_15_158)">
<path d="M75.4431 84.1212C76.2303 83.9768 78.2504 83.5832 78.9132 83.7965L78.6066 84.0541C77.7413 84.8499 76.5812 85.1781 75.5074 84.5978L75.4431 84.1212Z" fill="#F8F8F7"/>
</g>
<g filter="url(#filter41_g_15_158)">
<path d="M139.859 144.52C140.41 144.852 140.555 144.881 140.848 145.421C140.652 146.084 140.623 145.927 139.933 146.45C139.347 146.244 139.121 146.23 138.754 145.768C138.938 145.151 139.3 145.009 139.859 144.52Z" fill="#F8F8F7"/>
</g>
<g filter="url(#filter42_g_15_158)">
<path d="M112.965 65.889C113.785 65.0739 116.487 64.9871 117.608 65.0131C116.612 65.3589 113.596 66.5616 112.746 66.3698L112.965 65.889Z" fill="#F8F8F7"/>
</g>
<g filter="url(#filter43_g_15_158)">
<path d="M77.8159 86.1632C78.332 86.2277 78.6838 86.2175 79.1104 86.5093C78.6992 86.9958 78.4645 86.9645 77.809 87.2058C77.2622 87.3241 76.7041 87.4952 76.2531 87.1829C76.6314 86.6425 77.2001 86.4612 77.8159 86.1632Z" fill="#F8F8F7"/>
</g>
<g filter="url(#filter44_g_15_158)">
<path d="M79.3631 96.7702L79.8412 96.847C79.6688 97.6619 78.2847 98.5678 77.5882 99.1056L77.2166 99.0904L77.1373 98.8465C77.6177 98.1159 78.6588 97.3478 79.3631 96.7702Z" fill="#F8F8F7"/>
</g>
<g filter="url(#filter45_g_15_158)">
<path d="M121.816 58.6011C122.983 58.5545 125.196 59.9074 126.226 60.5191L125.689 60.6421C124.301 59.9822 122.819 59.6828 121.816 58.6011Z" fill="#F8F8F7"/>
</g>
<g filter="url(#filter46_g_15_158)">
<path d="M124.407 53.4768C125.417 53.4466 127.725 55.0771 128.291 55.8845C126.939 55.6372 125.392 54.3647 124.407 53.4768Z" fill="#F8F8F7"/>
</g>
<g filter="url(#filter47_g_15_158)">
<path d="M103.558 52.5244C104.318 52.298 106.41 52.3167 107.067 52.8108C105.404 53.5464 105.069 53.3693 103.558 52.5244Z" fill="#F8F8F7"/>
</g>
<g filter="url(#filter48_g_15_158)">
<path d="M134.527 58.7773C135.598 59.0055 137.803 59.7607 138.132 60.8823C137.172 60.4384 134.952 59.5891 134.527 58.7773Z" fill="#F8F8F7"/>
</g>
<g filter="url(#filter49_g_15_158)">
<path d="M98.297 75.6822L98.6412 75.8213L98.6509 76.1554C98.1422 76.8892 97.5069 77.2998 96.7953 77.8376C96.4861 77.6933 96.5996 77.764 96.3717 77.4802C96.7236 76.8063 97.6569 76.1844 98.297 75.6822Z" fill="#F8F8F7"/>
</g>
<g filter="url(#filter50_g_15_158)">
<path d="M80.6213 77.509C81.2029 77.3769 81.2913 77.3273 81.8658 77.4137L81.995 77.6221C81.6242 78.136 81.2405 78.1787 80.6242 78.3791C80.2383 78.4625 79.8209 78.4923 79.4262 78.5333L79.3965 78.3995L80.6213 77.509Z" fill="#F8F8F7"/>
</g>
<g filter="url(#filter51_g_15_158)">
<path d="M97.1409 33.4627C97.9263 33.2984 99.1058 33.0526 99.8553 33.2597L99.9325 33.588C99.1061 33.8602 98.1612 34.0854 97.3102 33.8548L97.1409 33.4627Z" fill="#F8F8F7"/>
</g>
<g filter="url(#filter52_g_15_158)">
<path d="M56.2689 73.8817L56.6709 73.9736L56.7843 74.2362C56.4605 74.7045 55.6352 75.097 55.1079 75.4009C54.9241 75.315 54.9724 75.3056 54.8219 75.0992C55.1194 74.5233 55.7005 74.2486 56.2689 73.8817Z" fill="#F8F8F7"/>
</g>
<g filter="url(#filter53_g_15_158)">
<path d="M110.848 46.1833C112.185 46.6029 112.807 46.8027 114.047 47.4235L113.717 48.0489C112.939 47.4757 111.69 46.7262 110.848 46.1833Z" fill="#F8F8F7"/>
</g>
<g filter="url(#filter54_g_15_158)">
<path d="M77.6964 72.4808C77.9563 72.6526 77.8623 72.5878 78.0259 72.9013C77.8268 73.5285 77.3996 73.7421 76.8564 74.1552L76.5915 73.775C76.7766 73.1032 77.0903 73.0164 77.6964 72.4808Z" fill="#F8F8F7"/>
</g>
<g filter="url(#filter55_g_15_158)">
<path d="M111.896 33.2393C113.014 33.1992 113.778 33.2892 114.741 33.9157C113.495 34.119 112.95 33.8066 111.896 33.2393Z" fill="#F8F8F7"/>
</g>
<g filter="url(#filter56_g_15_158)">
<path d="M69.4859 44.8321L69.6703 45.0591C69.3688 45.7051 68.8668 46.013 68.2999 46.4694L68.0952 46.2572C68.3201 45.6489 68.9503 45.2619 69.4859 44.8321Z" fill="#F8F8F7"/>
</g>
<g filter="url(#filter57_g_15_158)">
<path d="M133.331 53.7859C134.162 53.7968 135.182 54.1825 135.941 54.499C134.812 54.7116 134.357 54.3283 133.331 53.7859Z" fill="#F8F8F7"/>
</g>
<path d="M263.506 216.166C250.777 211.722 238.046 196.725 233.271 189.782L219.897 155.888L219.118 120.344L231.063 89.0533L270.39 29.153L305.948 10.2502L337.563 11.8912L364.234 63.6169L370.669 131.713L352.854 183.316L321.006 214.906C307.143 217.178 276.235 220.61 263.506 216.166Z" fill="#F8F8F7"/>
<g filter="url(#filter58_g_15_158)">
<path d="M283.97 6.81955C287.644 4.6386 299.128 0.186482 303.331 0.900225C307.488 1.74473 309.123 2.22194 312.74 4.51181C323.769 0.78502 332.177 0.345054 342.675 5.8759C352.265 10.9282 355.005 17.8803 363.135 25.0971C366.633 28.7978 370.1 33.2615 372.979 37.4499C377.453 46.6027 379.197 51.0212 381.288 58.4661C384.808 65.5722 384.898 74.2585 387.305 81.7232C389.452 88.383 390.901 93.4903 391.864 100.452C392.665 106.234 393.757 111.283 393.992 117.213L392.983 148.29C393.08 150.905 392.439 153.949 392.733 156.523C394.582 172.731 391.315 188.416 393.042 204.598C393.269 209.886 393.734 215.994 393.317 221.236C392.728 228.63 391.919 234.708 393.142 242.117C394.27 248.949 396.959 254.535 398.892 260.899C395.171 259.246 393.048 256.702 389.127 254.844C381.961 262.392 387.217 263.414 378.252 268.689C371.707 272.538 368.822 272.872 361.586 273.708L361.215 273.751C358.719 274.04 354.232 274.117 352.065 274.14C350.346 274.158 347.133 274.42 342.409 274.691C340.744 274.787 336.785 275.037 335.213 275.353C333.109 269.297 329.748 269.197 328.225 262.802C327.552 259.977 326.067 257.012 325.455 254.126C323.717 246.761 323.095 238.758 322.001 231.215L297.175 227.34L266.805 218.374C263.628 216.417 260.007 214.439 256.739 212.561C262.7 214.211 274.782 218.058 280.801 217.56C285.842 216.199 292.214 214.454 296.944 212.443C301.112 210.672 308.625 208.744 312.091 206.377C319.062 201.616 325.178 195.909 330.993 189.839C331.917 188.874 337.04 181.49 337.772 180.024L344.382 167.23C345.366 165.292 346.672 161.895 347.456 159.978C349.67 154.571 349.394 149.161 351.717 143.762C351.717 138.089 353.004 133.559 353.004 127.317C352.052 122.658 351.947 117.6 351.726 112.853C348.935 110.895 346.226 108.966 343.329 107.166C339.536 104.809 336.02 104.676 331.677 104.648C329.89 104.684 319.095 105.364 317.636 105.805C316.371 106.187 307.425 113.324 306.058 114.537C305.739 114.82 303.026 116.687 302.801 116.962C301.084 119.052 300.172 122.011 298.665 124.397C299.213 121.003 300.148 117.673 300.829 114.321C301.567 110.688 303.958 108.659 305.846 105.647C307.369 103.005 307.619 101.238 310.136 99.0784C313.998 98.5909 319.479 97.8573 323.388 97.8848C327.107 97.9108 335.671 98.4777 339.185 99.3267C343.04 100.258 348.904 105.479 351.421 108.562C349.937 96.8372 349.853 85.5908 344.921 74.4779C343.567 71.4245 341.561 68.3951 339.836 65.5538C337.636 61.9315 335.641 58.1469 332.17 55.5712C331.166 54.826 329.863 53.8339 328.741 53.3356C326.651 52.4087 324.348 51.5925 322.198 50.773C318.494 49.3518 314.804 47.8924 311.13 46.3953C309.271 45.6333 306.329 44.4784 304.813 43.2381C303.661 42.2963 301.342 38.9734 300.745 37.6116C301.018 32.5754 304.614 21.5804 306.27 16.5332C304.086 19.9255 302.562 22.7376 300.982 26.4437C300.061 28.6046 298.354 34.8854 297.251 36.4505L297.056 36.56C293.462 38.5578 288.625 39.5734 284.997 41.8111C281.261 44.1156 277.605 46.5577 273.9 48.9211L259.155 58.2939C256.067 60.2603 251.369 63.1239 248.618 65.5518C248.198 65.9221 245.95 69.9796 245.497 70.7824C242.209 76.4828 239.169 82.3232 236.385 88.287C233.815 93.6671 232.593 99.0799 230.234 104.532C227.823 116.962 226.394 121.891 226.447 130.728C226.432 136.296 226.498 141.865 226.649 147.43C226.736 150.957 227.212 157.669 227.823 160.845C228.599 164.886 230.822 171.297 232.247 175.405C233.025 177.646 236.738 185.252 236.689 187.032C239.598 191.966 243.363 197.615 246.782 202.23C248.536 204.602 250.353 208.273 252.338 210.395C248.291 207.616 243.046 202.08 239.273 198.842C236.426 202.27 233.373 205.508 230.459 208.874C229.067 210.48 227.626 212.772 225.971 214.082C224.233 215.457 202.016 221.827 197.843 222.997C199.943 218.059 200.816 214.184 202.084 208.977C203.529 203.04 205.49 197.163 206.566 191.12C206.996 188.75 207.247 185.948 207.524 183.529L208.806 172.366C210.905 153.134 212.452 134.042 215.686 114.934C216.952 107.459 217.279 99.9141 219.406 92.5529C221.149 86.1203 224.084 79.3305 226.833 73.2032L226.914 73.0219C230.439 65.1588 234.861 55.2958 239.778 48.1842C244.195 42.2518 249.5 36.901 254.579 31.5246C258.486 27.388 262.63 23.1827 266.843 19.3708C269.913 16.9382 273.261 14.504 276.506 12.3136C278.733 10.8107 281.847 8.08002 283.97 6.81955Z" fill="#007CEF"/>
</g>
<g filter="url(#filter59_g_15_158)">
<path d="M247.872 152.913C247.35 153.014 247.543 152.885 247.258 153.292C247.448 154.301 249.238 159.116 249.699 160.441C250.905 163.911 251.916 168.113 253.194 171.423C255.327 171.75 256.643 172.507 258.921 173.197C263.637 174.625 268.315 177.668 273.103 178.855C277.951 179.809 283.738 181.075 288.619 181.545C294.344 182.099 291.716 181.478 299.565 183.325C294.505 184.349 287.203 186.147 282.041 186.719C280.341 186.906 274.772 185.253 272.794 184.786C271.423 184.062 265.187 183.269 264.238 182.54C261.446 180.392 255.837 174.524 253.433 172.16C253.873 173.315 255.202 176.336 255.817 177.301C257.035 179.218 261.403 185.044 262.972 186.26C264.279 186.884 269.164 188.074 270.719 188.476C274.965 189.559 279.195 190.7 283.408 191.896C288.913 189.52 295.042 188.377 300.548 185.967C301.803 185.419 317.058 174.689 317.544 173.868C317.826 173.391 317.873 172.977 317.744 172.454C317.048 171.834 315.38 171.408 314.464 171.109C305.039 168.015 295.883 163.969 286.517 160.742C285.698 160.461 278.75 160.986 277.289 160.999C270.589 155.326 271.158 156.355 262.459 155.104C257.591 154.415 252.728 153.685 247.872 152.913Z" fill="#007CEF"/>
</g>
<g filter="url(#filter60_g_15_158)">
<path d="M255.907 157.61C253.327 157.696 253.333 162.105 253.089 163.94C253.856 164.708 254.799 165.349 255.693 165.997L256.078 168.148C257.047 168.256 258.178 168.312 259.164 168.382L260.008 170.722C261.452 171.11 263.041 171.284 264.536 171.409L265.1 172.895C266.76 173.663 270.047 174.889 271.884 175.014C272.157 175.033 273.323 174.789 273.657 174.716L274.547 176.016C276.622 176.62 279.364 177.298 281.527 177.583C281.881 177.653 282.685 177.117 282.994 177.201C286.142 178.067 288.047 179.613 291.26 177.626C292.677 178.42 293.596 178.771 295.172 179.204C295.699 179.002 296.415 178.656 296.947 178.421C300.074 178.731 303.084 177.977 306.187 177.306C306.495 175.695 307.205 174.117 307.296 172.499C307.324 171.998 306.961 171.683 306.597 171.32C305.275 171.827 304.183 172.334 302.914 172.925L302.975 170.475C301.556 170.962 299.921 171.652 298.508 172.213L297.855 169.949C297.051 169.633 296.116 169.324 295.292 169.03C294.195 169.793 293.107 170.659 292.05 171.473C291.64 170.557 291.173 169.627 290.733 168.718L288.156 167.984C287.137 168.66 285.857 169.691 284.864 170.442C284.321 169.313 283.93 168.48 283.238 167.408C281.677 167.01 280.085 166.726 278.476 166.558C277.333 167.012 276.484 167.487 275.423 168.062C274.37 165.367 273.041 164.935 270.438 163.336C268.549 163.882 268.02 164.147 266.355 165.163C265.111 162.018 265.089 159.776 261.064 162.826C260.378 160.104 260.527 158.197 257.007 159.593L255.907 157.61Z" fill="#F8F8F7"/>
</g>
<g filter="url(#filter61_g_15_158)">
<path d="M256.039 79.4999C255.424 79.4627 250.848 80.45 250.098 80.6866C246.565 81.8006 243.864 81.7296 241.86 85.0551C245.464 84.5918 251.123 83.3682 254.654 84.413C256.623 84.996 258.508 86.2358 260.349 87.1578C262.591 88.2818 265.879 89.3348 267.797 90.9465C269.544 92.4157 274.974 103.338 276.445 106.063C271.923 100.9 266.92 96.8034 259.981 95.3969C258.482 95.0932 256.638 95.2061 255.103 95.2405C254.101 94.6926 251.725 93.3146 250.739 92.6904C251.09 93.4581 252.561 94.7456 252.931 95.503L250.61 95.5605C249.751 95.073 247.771 93.7935 246.904 93.3206L249.277 96.4415L243.809 97.1389C244.646 97.6294 246.312 98.0936 247.159 98.5677C244.094 99.6353 242.69 99.046 239.499 98.3353C245.137 102.725 246.037 99.9808 250.399 101.569C252.086 102.288 253.762 103.028 255.429 103.789C254.542 102.472 253.249 101.333 252.064 100.282C254.317 99.3207 255.142 99.1836 257.509 98.8208C255.506 104.307 257.544 105.301 262.401 106.371C263.6 106.635 264.805 106.988 266.045 107.22C268.137 106.463 268.595 105.81 269.916 104.009C270.859 105.169 271.344 105.926 272.133 107.179L268.13 107.635C272.032 109.153 272.758 109.538 276.168 111.958C275.418 108.561 274.781 107.249 273.406 104.104C277.478 107.057 277.464 107.7 279.763 112.149C280.338 110.431 281.869 105.465 281.536 103.906C281.172 102.202 280.642 100.137 280.377 98.1865C280.755 97.4519 281.448 96.4199 281.906 95.6932C281.682 95.0735 281.302 94.2238 280.992 93.6491C280.139 92.056 278.995 90.6364 277.62 89.4638C275.544 87.7191 273.683 86.999 271.402 85.773C266.172 82.962 261.76 81.1759 256.039 79.4999Z" fill="#007CEF"/>
</g>
<g filter="url(#filter62_g_15_158)">
<path d="M323.457 112.333C318.235 111.796 313.717 112.541 309.849 116.208C308.889 117.119 307.032 118.216 305.87 119.185L305.875 119.426C306.889 119.888 309.29 118.947 311.032 119.055C313.225 119.192 314.364 119.345 316.518 119.772C315.172 118.933 314.173 118.328 312.984 117.265C315.008 116.052 316.977 115.614 319.229 115.036C318.733 120.202 319.451 121.283 324.697 121.826C326.241 121.986 328.282 122.354 329.839 122.579C331.786 122.884 334.549 122.913 336.324 123.59C338.472 124.409 339.975 126.164 342.496 126.363C343.743 126.461 345.522 126.875 346.86 126.83C346.556 126.373 342.243 125.003 341.412 123.733C340.98 123.073 340.573 122.395 340.154 121.625L344.086 120.971C342.928 120.676 340.185 120.411 339.176 120.005L339.074 119.722C339.501 119.089 341.346 118.598 342.065 118.169C340.809 118.196 338.131 118.438 337.133 117.772L337.103 117.512L340.021 116.6L339.958 116.405C338.472 115.943 335.227 115.475 333.974 114.815C330.82 113.153 326.996 112.548 323.457 112.333Z" fill="#007CEF"/>
</g>
<g filter="url(#filter63_g_15_158)">
<path d="M332.475 118.354C332.309 118.586 331.426 120.936 331.223 121.429C331.922 121.384 332.663 121.305 333.365 121.241C333.89 121.192 334.441 121.117 334.967 121.055L332.475 118.354Z" fill="#F8F8F7"/>
</g>
<g filter="url(#filter64_g_15_158)">
<path d="M300.692 142.74L300.6 142.828C300.424 143.679 302.249 146.275 302.275 147.379C302.308 148.786 302 149.936 301.726 151.312C300.453 152.535 298.443 154.086 296.998 155.115C294.607 154.334 290.902 152.197 288.645 151.828C287.382 151.621 281.834 153.424 280.353 153.837C279.343 153.566 275.455 152.634 274.784 152.08C272.637 150.308 271.218 147.352 268.453 146.145C266.833 145.439 265.209 145.043 263.488 144.649C265.286 147.589 274.468 155.499 277.802 157.208C282.941 156.997 288.249 157.072 293.315 156.795C296.638 156.774 300.272 155.344 303.552 154.359L304.609 151.917C305.034 152.045 304.904 152.194 305.042 152.341C306.944 154.384 316.687 167.958 317.107 169.999C317.654 172.659 316.972 175.579 316.905 178.276C318.213 175.837 318.874 173.201 319.582 170.547C318.402 168.099 315.745 164.395 314.266 161.89C312.815 159.351 311.14 156.808 309.764 154.26C307.377 149.844 304.138 146.372 300.692 142.74Z" fill="#007CEF"/>
</g>
<g filter="url(#filter65_g_15_158)">
<path d="M268.105 131.653C266.811 132.177 263.434 133.083 262.858 133.353C259.465 134.948 253.335 138.708 250.37 140.653C249.054 141.516 243.646 148.635 242.991 150.032C243.181 152.386 243.737 155.739 244.086 158.116C244.293 157.012 244.473 155.878 244.664 154.769C244.915 153.68 245.321 150.86 245.541 150.009C246.81 145.086 256.63 139.703 260.933 137.13C260.906 139.23 261.067 140.354 261.633 142.362C261.962 139.816 262.182 137.012 264.21 135.159C265.272 134.187 267.323 132.791 268.105 131.653Z" fill="#007CEF"/>
</g>
<g filter="url(#filter66_g_15_158)">
<path d="M308.127 120.751C307.709 120.715 307.897 120.676 307.537 120.84C308.037 121.435 314.478 124.315 315.658 125.082C320.951 128.524 329.345 127.48 335.473 127.492C335.786 127.538 335.782 127.514 336.09 127.42C334.641 126.445 325.117 126.08 322.599 125.381C317.033 123.834 313.932 121.745 308.127 120.751Z" fill="#007CEF"/>
</g>
<g filter="url(#filter67_g_15_158)">
<path d="M246.733 103.96C246.624 104.012 246.685 103.967 246.617 104.155C247.074 104.601 247.636 104.968 248.198 105.3C251.559 107.304 254.44 110.195 258.361 111.03C263.185 112.058 267.88 112.543 272.782 112.876L272.948 112.793C272.511 112.016 269.191 110.894 268.257 110.683C265.086 109.705 260.474 109.768 257.407 108.699C254.084 107.54 250.049 105.404 246.733 103.96Z" fill="#007CEF"/>
</g>
<defs>
<filter id="filter0_g_15_158" x="8.65173" y="22.2528" width="192.723" height="249.133" filterUnits="userSpaceOnUse" color-interpolation-filters="sRGB">
<feFlood flood-opacity="0" result="BackgroundImageFix"/>
<feBlend mode="normal" in="SourceGraphic" in2="BackgroundImageFix" result="shape"/>
<feTurbulence type="fractalNoise" baseFrequency="0.99900001287460327 0.99900001287460327" numOctaves="3" seed="3125" />
<feDisplacementMap in="shape" scale="1.0981189012527466" xChannelSelector="R" yChannelSelector="G" result="displacedImage" width="100%" height="100%" />
<feMerge result="effect1_texture_15_158">
<feMergeNode in="displacedImage"/>
</feMerge>
</filter>
<filter id="filter1_g_15_158" x="14.8424" y="73.0753" width="166.695" height="192.846" filterUnits="userSpaceOnUse" color-interpolation-filters="sRGB">
<feFlood flood-opacity="0" result="BackgroundImageFix"/>
<feBlend mode="normal" in="SourceGraphic" in2="BackgroundImageFix" result="shape"/>
<feTurbulence type="fractalNoise" baseFrequency="0.99900001287460327 0.99900001287460327" numOctaves="3" seed="3125" />
<feDisplacementMap in="shape" scale="1.0981189012527466" xChannelSelector="R" yChannelSelector="G" result="displacedImage" width="100%" height="100%" />
<feMerge result="effect1_texture_15_158">
<feMergeNode in="displacedImage"/>
</feMerge>
</filter>
<filter id="filter2_g_15_158" x="75.1673" y="186.502" width="92.8994" height="42.0595" filterUnits="userSpaceOnUse" color-interpolation-filters="sRGB">
<feFlood flood-opacity="0" result="BackgroundImageFix"/>
<feBlend mode="normal" in="SourceGraphic" in2="BackgroundImageFix" result="shape"/>
<feTurbulence type="fractalNoise" baseFrequency="0.99900001287460327 0.99900001287460327" numOctaves="3" seed="3125" />
<feDisplacementMap in="shape" scale="1.0981189012527466" xChannelSelector="R" yChannelSelector="G" result="displacedImage" width="100%" height="100%" />
<feMerge result="effect1_texture_15_158">
<feMergeNode in="displacedImage"/>
</feMerge>
</filter>
<filter id="filter3_g_15_158" x="90.491" y="206.372" width="49.8309" height="12.2491" filterUnits="userSpaceOnUse" color-interpolation-filters="sRGB">
<feFlood flood-opacity="0" result="BackgroundImageFix"/>
<feBlend mode="normal" in="SourceGraphic" in2="BackgroundImageFix" result="shape"/>
<feTurbulence type="fractalNoise" baseFrequency="0.99900001287460327 0.99900001287460327" numOctaves="3" seed="3125" />
<feDisplacementMap in="shape" scale="1.0981189012527466" xChannelSelector="R" yChannelSelector="G" result="displacedImage" width="100%" height="100%" />
<feMerge result="effect1_texture_15_158">
<feMergeNode in="displacedImage"/>
</feMerge>
</filter>
<filter id="filter4_g_15_158" x="122.151" y="220.473" width="9.94883" height="5.2548" filterUnits="userSpaceOnUse" color-interpolation-filters="sRGB">
<feFlood flood-opacity="0" result="BackgroundImageFix"/>
<feBlend mode="normal" in="SourceGraphic" in2="BackgroundImageFix" result="shape"/>
<feTurbulence type="fractalNoise" baseFrequency="0.99900001287460327 0.99900001287460327" numOctaves="3" seed="3125" />
<feDisplacementMap in="shape" scale="1.0981189012527466" xChannelSelector="R" yChannelSelector="G" result="displacedImage" width="100%" height="100%" />
<feMerge result="effect1_texture_15_158">
<feMergeNode in="displacedImage"/>
</feMerge>
</filter>
<filter id="filter5_g_15_158" x="105.099" y="218.901" width="9.58591" height="7.56431" filterUnits="userSpaceOnUse" color-interpolation-filters="sRGB">
<feFlood flood-opacity="0" result="BackgroundImageFix"/>
<feBlend mode="normal" in="SourceGraphic" in2="BackgroundImageFix" result="shape"/>
<feTurbulence type="fractalNoise" baseFrequency="0.99900001287460327 0.99900001287460327" numOctaves="3" seed="3125" />
<feDisplacementMap in="shape" scale="1.0981189012527466" xChannelSelector="R" yChannelSelector="G" result="displacedImage" width="100%" height="100%" />
<feMerge result="effect1_texture_15_158">
<feMergeNode in="displacedImage"/>
</feMerge>
</filter>
<filter id="filter6_g_15_158" x="115.8" y="219.542" width="4.24598" height="5.73264" filterUnits="userSpaceOnUse" color-interpolation-filters="sRGB">
<feFlood flood-opacity="0" result="BackgroundImageFix"/>
<feBlend mode="normal" in="SourceGraphic" in2="BackgroundImageFix" result="shape"/>
<feTurbulence type="fractalNoise" baseFrequency="0.99900001287460327 0.99900001287460327" numOctaves="3" seed="3125" />
<feDisplacementMap in="shape" scale="1.0981189012527466" xChannelSelector="R" yChannelSelector="G" result="displacedImage" width="100%" height="100%" />
<feMerge result="effect1_texture_15_158">
<feMergeNode in="displacedImage"/>
</feMerge>
</filter>
<filter id="filter7_g_15_158" x="141.021" y="208.506" width="2.01883" height="3.44785" filterUnits="userSpaceOnUse" color-interpolation-filters="sRGB">
<feFlood flood-opacity="0" result="BackgroundImageFix"/>
<feBlend mode="normal" in="SourceGraphic" in2="BackgroundImageFix" result="shape"/>
<feTurbulence type="fractalNoise" baseFrequency="0.99900001287460327 0.99900001287460327" numOctaves="3" seed="3125" />
<feDisplacementMap in="shape" scale="1.0981189012527466" xChannelSelector="R" yChannelSelector="G" result="displacedImage" width="100%" height="100%" />
<feMerge result="effect1_texture_15_158">
<feMergeNode in="displacedImage"/>
</feMerge>
</filter>
<filter id="filter8_g_15_158" x="52.0324" y="126.329" width="50.9234" height="14.9548" filterUnits="userSpaceOnUse" color-interpolation-filters="sRGB">
<feFlood flood-opacity="0" result="BackgroundImageFix"/>
<feBlend mode="normal" in="SourceGraphic" in2="BackgroundImageFix" result="shape"/>
<feTurbulence type="fractalNoise" baseFrequency="0.99900001287460327 0.99900001287460327" numOctaves="3" seed="3125" />
<feDisplacementMap in="shape" scale="1.0981189012527466" xChannelSelector="R" yChannelSelector="G" result="displacedImage" width="100%" height="100%" />
<feMerge result="effect1_texture_15_158">
<feMergeNode in="displacedImage"/>
</feMerge>
</filter>
<filter id="filter9_g_15_158" x="51.081" y="139.946" width="55.4928" height="13.2427" filterUnits="userSpaceOnUse" color-interpolation-filters="sRGB">
<feFlood flood-opacity="0" result="BackgroundImageFix"/>
<feBlend mode="normal" in="SourceGraphic" in2="BackgroundImageFix" result="shape"/>
<feTurbulence type="fractalNoise" baseFrequency="0.99900001287460327 0.99900001287460327" numOctaves="3" seed="3125" />
<feDisplacementMap in="shape" scale="1.0981189012527466" xChannelSelector="R" yChannelSelector="G" result="displacedImage" width="100%" height="100%" />
<feMerge result="effect1_texture_15_158">
<feMergeNode in="displacedImage"/>
</feMerge>
</filter>
<filter id="filter10_g_15_158" x="90.2585" y="143.083" width="4.99488" height="4.13718" filterUnits="userSpaceOnUse" color-interpolation-filters="sRGB">
<feFlood flood-opacity="0" result="BackgroundImageFix"/>
<feBlend mode="normal" in="SourceGraphic" in2="BackgroundImageFix" result="shape"/>
<feTurbulence type="fractalNoise" baseFrequency="0.99900001287460327 0.99900001287460327" numOctaves="3" seed="3125" />
<feDisplacementMap in="shape" scale="1.0981189012527466" xChannelSelector="R" yChannelSelector="G" result="displacedImage" width="100%" height="100%" />
<feMerge result="effect1_texture_15_158">
<feMergeNode in="displacedImage"/>
</feMerge>
</filter>
<filter id="filter11_g_15_158" x="81.8091" y="142.045" width="3.40783" height="3.05729" filterUnits="userSpaceOnUse" color-interpolation-filters="sRGB">
<feFlood flood-opacity="0" result="BackgroundImageFix"/>
<feBlend mode="normal" in="SourceGraphic" in2="BackgroundImageFix" result="shape"/>
<feTurbulence type="fractalNoise" baseFrequency="0.99900001287460327 0.99900001287460327" numOctaves="3" seed="3125" />
<feDisplacementMap in="shape" scale="1.0981189012527466" xChannelSelector="R" yChannelSelector="G" result="displacedImage" width="100%" height="100%" />
<feMerge result="effect1_texture_15_158">
<feMergeNode in="displacedImage"/>
</feMerge>
</filter>
<filter id="filter12_g_15_158" x="93.7977" y="174.893" width="54.0599" height="22.089" filterUnits="userSpaceOnUse" color-interpolation-filters="sRGB">
<feFlood flood-opacity="0" result="BackgroundImageFix"/>
<feBlend mode="normal" in="SourceGraphic" in2="BackgroundImageFix" result="shape"/>
<feTurbulence type="fractalNoise" baseFrequency="0.99900001287460327 0.99900001287460327" numOctaves="3" seed="3125" />
<feDisplacementMap in="shape" scale="1.0981189012527466" xChannelSelector="R" yChannelSelector="G" result="displacedImage" width="100%" height="100%" />
<feMerge result="effect1_texture_15_158">
<feMergeNode in="displacedImage"/>
</feMerge>
</filter>
<filter id="filter13_g_15_158" x="68.5883" y="184.47" width="19.8103" height="25.7891" filterUnits="userSpaceOnUse" color-interpolation-filters="sRGB">
<feFlood flood-opacity="0" result="BackgroundImageFix"/>
<feBlend mode="normal" in="SourceGraphic" in2="BackgroundImageFix" result="shape"/>
<feTurbulence type="fractalNoise" baseFrequency="0.99900001287460327 0.99900001287460327" numOctaves="3" seed="3125" />
<feDisplacementMap in="shape" scale="1.0981189012527466" xChannelSelector="R" yChannelSelector="G" result="displacedImage" width="100%" height="100%" />
<feMerge result="effect1_texture_15_158">
<feMergeNode in="displacedImage"/>
</feMerge>
</filter>
<filter id="filter14_g_15_158" x="72.8309" y="149.994" width="30.6332" height="6.71036" filterUnits="userSpaceOnUse" color-interpolation-filters="sRGB">
<feFlood flood-opacity="0" result="BackgroundImageFix"/>
<feBlend mode="normal" in="SourceGraphic" in2="BackgroundImageFix" result="shape"/>
<feTurbulence type="fractalNoise" baseFrequency="0.99900001287460327 0.99900001287460327" numOctaves="3" seed="3125" />
<feDisplacementMap in="shape" scale="1.0981189012527466" xChannelSelector="R" yChannelSelector="G" result="displacedImage" width="100%" height="100%" />
<feMerge result="effect1_texture_15_158">
<feMergeNode in="displacedImage"/>
</feMerge>
</filter>
<filter id="filter15_g_15_158" x="26.6346" y="160.267" width="6.57241" height="9.80661" filterUnits="userSpaceOnUse" color-interpolation-filters="sRGB">
<feFlood flood-opacity="0" result="BackgroundImageFix"/>
<feBlend mode="normal" in="SourceGraphic" in2="BackgroundImageFix" result="shape"/>
<feTurbulence type="fractalNoise" baseFrequency="0.99900001287460327 0.99900001287460327" numOctaves="3" seed="3125" />
<feDisplacementMap in="shape" scale="1.0981189012527466" xChannelSelector="R" yChannelSelector="G" result="displacedImage" width="100%" height="100%" />
<feMerge result="effect1_texture_15_158">
<feMergeNode in="displacedImage"/>
</feMerge>
</filter>
<filter id="filter16_g_15_158" x="132.382" y="153.386" width="12.5323" height="6.50199" filterUnits="userSpaceOnUse" color-interpolation-filters="sRGB">
<feFlood flood-opacity="0" result="BackgroundImageFix"/>
<feBlend mode="normal" in="SourceGraphic" in2="BackgroundImageFix" result="shape"/>
<feTurbulence type="fractalNoise" baseFrequency="0.99900001287460327 0.99900001287460327" numOctaves="3" seed="3125" />
<feDisplacementMap in="shape" scale="1.0981189012527466" xChannelSelector="R" yChannelSelector="G" result="displacedImage" width="100%" height="100%" />
<feMerge result="effect1_texture_15_158">
<feMergeNode in="displacedImage"/>
</feMerge>
</filter>
<filter id="filter17_g_15_158" x="80.9178" y="102.215" width="2.53403" height="2.4072" filterUnits="userSpaceOnUse" color-interpolation-filters="sRGB">
<feFlood flood-opacity="0" result="BackgroundImageFix"/>
<feBlend mode="normal" in="SourceGraphic" in2="BackgroundImageFix" result="shape"/>
<feTurbulence type="fractalNoise" baseFrequency="0.99900001287460327 0.99900001287460327" numOctaves="3" seed="3125" />
<feDisplacementMap in="shape" scale="1.0981189012527466" xChannelSelector="R" yChannelSelector="G" result="displacedImage" width="100%" height="100%" />
<feMerge result="effect1_texture_15_158">
<feMergeNode in="displacedImage"/>
</feMerge>
</filter>
<filter id="filter18_g_15_158" x="134.205" y="131.503" width="43.9074" height="18.3035" filterUnits="userSpaceOnUse" color-interpolation-filters="sRGB">
<feFlood flood-opacity="0" result="BackgroundImageFix"/>
<feBlend mode="normal" in="SourceGraphic" in2="BackgroundImageFix" result="shape"/>
<feTurbulence type="fractalNoise" baseFrequency="0.99900001287460327 0.99900001287460327" numOctaves="3" seed="3125" />
<feDisplacementMap in="shape" scale="1.0981189012527466" xChannelSelector="R" yChannelSelector="G" result="displacedImage" width="100%" height="100%" />
<feMerge result="effect1_texture_15_158">
<feMergeNode in="displacedImage"/>
</feMerge>
</filter>
<filter id="filter19_g_15_158" x="115.392" y="43.6214" width="21.0062" height="15.3331" filterUnits="userSpaceOnUse" color-interpolation-filters="sRGB">
<feFlood flood-opacity="0" result="BackgroundImageFix"/>
<feBlend mode="normal" in="SourceGraphic" in2="BackgroundImageFix" result="shape"/>
<feTurbulence type="fractalNoise" baseFrequency="0.99900001287460327 0.99900001287460327" numOctaves="3" seed="3125" />
<feDisplacementMap in="shape" scale="1.0981189012527466" xChannelSelector="R" yChannelSelector="G" result="displacedImage" width="100%" height="100%" />
<feMerge result="effect1_texture_15_158">
<feMergeNode in="displacedImage"/>
</feMerge>
</filter>
<filter id="filter20_g_15_158" x="102.884" y="45.8095" width="17.656" height="6.43387" filterUnits="userSpaceOnUse" color-interpolation-filters="sRGB">
<feFlood flood-opacity="0" result="BackgroundImageFix"/>
<feBlend mode="normal" in="SourceGraphic" in2="BackgroundImageFix" result="shape"/>
<feTurbulence type="fractalNoise" baseFrequency="0.99900001287460327 0.99900001287460327" numOctaves="3" seed="3125" />
<feDisplacementMap in="shape" scale="1.0981189012527466" xChannelSelector="R" yChannelSelector="G" result="displacedImage" width="100%" height="100%" />
<feMerge result="effect1_texture_15_158">
<feMergeNode in="displacedImage"/>
</feMerge>
</filter>
<filter id="filter21_g_15_158" x="74.5722" y="73.4994" width="6.7398" height="6.82053" filterUnits="userSpaceOnUse" color-interpolation-filters="sRGB">
<feFlood flood-opacity="0" result="BackgroundImageFix"/>
<feBlend mode="normal" in="SourceGraphic" in2="BackgroundImageFix" result="shape"/>
<feTurbulence type="fractalNoise" baseFrequency="0.99900001287460327 0.99900001287460327" numOctaves="3" seed="3125" />
<feDisplacementMap in="shape" scale="1.0981189012527466" xChannelSelector="R" yChannelSelector="G" result="displacedImage" width="100%" height="100%" />
<feMerge result="effect1_texture_15_158">
<feMergeNode in="displacedImage"/>
</feMerge>
</filter>
<filter id="filter22_g_15_158" x="40.5049" y="81.5879" width="11.5389" height="6.66581" filterUnits="userSpaceOnUse" color-interpolation-filters="sRGB">
<feFlood flood-opacity="0" result="BackgroundImageFix"/>
<feBlend mode="normal" in="SourceGraphic" in2="BackgroundImageFix" result="shape"/>
<feTurbulence type="fractalNoise" baseFrequency="0.99900001287460327 0.99900001287460327" numOctaves="3" seed="3125" />
<feDisplacementMap in="shape" scale="1.0981189012527466" xChannelSelector="R" yChannelSelector="G" result="displacedImage" width="100%" height="100%" />
<feMerge result="effect1_texture_15_158">
<feMergeNode in="displacedImage"/>
</feMerge>
</filter>
<filter id="filter23_g_15_158" x="83.0879" y="58.2354" width="13.7178" height="3.4199" filterUnits="userSpaceOnUse" color-interpolation-filters="sRGB">
<feFlood flood-opacity="0" result="BackgroundImageFix"/>
<feBlend mode="normal" in="SourceGraphic" in2="BackgroundImageFix" result="shape"/>
<feTurbulence type="fractalNoise" baseFrequency="0.99900001287460327 0.99900001287460327" numOctaves="3" seed="3125" />
<feDisplacementMap in="shape" scale="1.0981189012527466" xChannelSelector="R" yChannelSelector="G" result="displacedImage" width="100%" height="100%" />
<feMerge result="effect1_texture_15_158">
<feMergeNode in="displacedImage"/>
</feMerge>
</filter>
<filter id="filter24_g_15_158" x="38.2851" y="75.025" width="9.66456" height="5.31131" filterUnits="userSpaceOnUse" color-interpolation-filters="sRGB">
<feFlood flood-opacity="0" result="BackgroundImageFix"/>
<feBlend mode="normal" in="SourceGraphic" in2="BackgroundImageFix" result="shape"/>
<feTurbulence type="fractalNoise" baseFrequency="0.99900001287460327 0.99900001287460327" numOctaves="3" seed="3125" />
<feDisplacementMap in="shape" scale="1.0981189012527466" xChannelSelector="R" yChannelSelector="G" result="displacedImage" width="100%" height="100%" />
<feMerge result="effect1_texture_15_158">
<feMergeNode in="displacedImage"/>
</feMerge>
</filter>
<filter id="filter25_g_15_158" x="171.428" y="150.498" width="8.20603" height="4.491" filterUnits="userSpaceOnUse" color-interpolation-filters="sRGB">
<feFlood flood-opacity="0" result="BackgroundImageFix"/>
<feBlend mode="normal" in="SourceGraphic" in2="BackgroundImageFix" result="shape"/>
<feTurbulence type="fractalNoise" baseFrequency="0.99900001287460327 0.99900001287460327" numOctaves="3" seed="3125" />
<feDisplacementMap in="shape" scale="1.0981189012527466" xChannelSelector="R" yChannelSelector="G" result="displacedImage" width="100%" height="100%" />
<feMerge result="effect1_texture_15_158">
<feMergeNode in="displacedImage"/>
</feMerge>
</filter>
<filter id="filter26_g_15_158" x="48.4918" y="99.2173" width="9.04303" height="2.65049" filterUnits="userSpaceOnUse" color-interpolation-filters="sRGB">
<feFlood flood-opacity="0" result="BackgroundImageFix"/>
<feBlend mode="normal" in="SourceGraphic" in2="BackgroundImageFix" result="shape"/>
<feTurbulence type="fractalNoise" baseFrequency="0.99900001287460327 0.99900001287460327" numOctaves="3" seed="3125" />
<feDisplacementMap in="shape" scale="1.0981189012527466" xChannelSelector="R" yChannelSelector="G" result="displacedImage" width="100%" height="100%" />
<feMerge result="effect1_texture_15_158">
<feMergeNode in="displacedImage"/>
</feMerge>
</filter>
<filter id="filter27_g_15_158" x="42.7216" y="68.293" width="7.91358" height="5.61478" filterUnits="userSpaceOnUse" color-interpolation-filters="sRGB">
<feFlood flood-opacity="0" result="BackgroundImageFix"/>
<feBlend mode="normal" in="SourceGraphic" in2="BackgroundImageFix" result="shape"/>
<feTurbulence type="fractalNoise" baseFrequency="0.99900001287460327 0.99900001287460327" numOctaves="3" seed="3125" />
<feDisplacementMap in="shape" scale="1.0981189012527466" xChannelSelector="R" yChannelSelector="G" result="displacedImage" width="100%" height="100%" />
<feMerge result="effect1_texture_15_158">
<feMergeNode in="displacedImage"/>
</feMerge>
</filter>
<filter id="filter28_g_15_158" x="31.6065" y="75.8261" width="6.28162" height="5.84495" filterUnits="userSpaceOnUse" color-interpolation-filters="sRGB">
<feFlood flood-opacity="0" result="BackgroundImageFix"/>
<feBlend mode="normal" in="SourceGraphic" in2="BackgroundImageFix" result="shape"/>
<feTurbulence type="fractalNoise" baseFrequency="0.99900001287460327 0.99900001287460327" numOctaves="3" seed="3125" />
<feDisplacementMap in="shape" scale="1.0981189012527466" xChannelSelector="R" yChannelSelector="G" result="displacedImage" width="100%" height="100%" />
<feMerge result="effect1_texture_15_158">
<feMergeNode in="displacedImage"/>
</feMerge>
</filter>
<filter id="filter29_g_15_158" x="56.5686" y="55.3389" width="4.97428" height="5.27756" filterUnits="userSpaceOnUse" color-interpolation-filters="sRGB">
<feFlood flood-opacity="0" result="BackgroundImageFix"/>
<feBlend mode="normal" in="SourceGraphic" in2="BackgroundImageFix" result="shape"/>
<feTurbulence type="fractalNoise" baseFrequency="0.99900001287460327 0.99900001287460327" numOctaves="3" seed="3125" />
<feDisplacementMap in="shape" scale="1.0981189012527466" xChannelSelector="R" yChannelSelector="G" result="displacedImage" width="100%" height="100%" />
<feMerge result="effect1_texture_15_158">
<feMergeNode in="displacedImage"/>
</feMerge>
</filter>
<filter id="filter30_g_15_158" x="98.9364" y="28.2616" width="7.27474" height="2.88639" filterUnits="userSpaceOnUse" color-interpolation-filters="sRGB">
<feFlood flood-opacity="0" result="BackgroundImageFix"/>
<feBlend mode="normal" in="SourceGraphic" in2="BackgroundImageFix" result="shape"/>
<feTurbulence type="fractalNoise" baseFrequency="0.99900001287460327 0.99900001287460327" numOctaves="3" seed="3125" />
<feDisplacementMap in="shape" scale="1.0981189012527466" xChannelSelector="R" yChannelSelector="G" result="displacedImage" width="100%" height="100%" />
<feMerge result="effect1_texture_15_158">
<feMergeNode in="displacedImage"/>
</feMerge>
</filter>
<filter id="filter31_g_15_158" x="106.027" y="65.3134" width="7.48694" height="2.69449" filterUnits="userSpaceOnUse" color-interpolation-filters="sRGB">
<feFlood flood-opacity="0" result="BackgroundImageFix"/>
<feBlend mode="normal" in="SourceGraphic" in2="BackgroundImageFix" result="shape"/>
<feTurbulence type="fractalNoise" baseFrequency="0.99900001287460327 0.99900001287460327" numOctaves="3" seed="3125" />
<feDisplacementMap in="shape" scale="1.0981189012527466" xChannelSelector="R" yChannelSelector="G" result="displacedImage" width="100%" height="100%" />
<feMerge result="effect1_texture_15_158">
<feMergeNode in="displacedImage"/>
</feMerge>
</filter>
<filter id="filter32_g_15_158" x="84.9225" y="41.8339" width="7.78542" height="3.36283" filterUnits="userSpaceOnUse" color-interpolation-filters="sRGB">
<feFlood flood-opacity="0" result="BackgroundImageFix"/>
<feBlend mode="normal" in="SourceGraphic" in2="BackgroundImageFix" result="shape"/>
<feTurbulence type="fractalNoise" baseFrequency="0.99900001287460327 0.99900001287460327" numOctaves="3" seed="3125" />
<feDisplacementMap in="shape" scale="1.0981189012527466" xChannelSelector="R" yChannelSelector="G" result="displacedImage" width="100%" height="100%" />
<feMerge result="effect1_texture_15_158">
<feMergeNode in="displacedImage"/>
</feMerge>
</filter>
<filter id="filter33_g_15_158" x="39.9456" y="49.5684" width="8.25799" height="6.30918" filterUnits="userSpaceOnUse" color-interpolation-filters="sRGB">
<feFlood flood-opacity="0" result="BackgroundImageFix"/>
<feBlend mode="normal" in="SourceGraphic" in2="BackgroundImageFix" result="shape"/>
<feTurbulence type="fractalNoise" baseFrequency="0.99900001287460327 0.99900001287460327" numOctaves="3" seed="3125" />
<feDisplacementMap in="shape" scale="1.0981189012527466" xChannelSelector="R" yChannelSelector="G" result="displacedImage" width="100%" height="100%" />
<feMerge result="effect1_texture_15_158">
<feMergeNode in="displacedImage"/>
</feMerge>
</filter>
<filter id="filter34_g_15_158" x="76.5612" y="46.9792" width="4.12841" height="3.35483" filterUnits="userSpaceOnUse" color-interpolation-filters="sRGB">
<feFlood flood-opacity="0" result="BackgroundImageFix"/>
<feBlend mode="normal" in="SourceGraphic" in2="BackgroundImageFix" result="shape"/>
<feTurbulence type="fractalNoise" baseFrequency="0.99900001287460327 0.99900001287460327" numOctaves="3" seed="3125" />
<feDisplacementMap in="shape" scale="1.0981189012527466" xChannelSelector="R" yChannelSelector="G" result="displacedImage" width="100%" height="100%" />
<feMerge result="effect1_texture_15_158">
<feMergeNode in="displacedImage"/>
</feMerge>
</filter>
<filter id="filter35_g_15_158" x="143.306" y="142.28" width="3.15922" height="3.05625" filterUnits="userSpaceOnUse" color-interpolation-filters="sRGB">
<feFlood flood-opacity="0" result="BackgroundImageFix"/>
<feBlend mode="normal" in="SourceGraphic" in2="BackgroundImageFix" result="shape"/>
<feTurbulence type="fractalNoise" baseFrequency="0.99900001287460327 0.99900001287460327" numOctaves="3" seed="3125" />
<feDisplacementMap in="shape" scale="1.0981189012527466" xChannelSelector="R" yChannelSelector="G" result="displacedImage" width="100%" height="100%" />
<feMerge result="effect1_texture_15_158">
<feMergeNode in="displacedImage"/>
</feMerge>
</filter>
<filter id="filter36_g_15_158" x="42.0907" y="105.137" width="5.30011" height="3.51621" filterUnits="userSpaceOnUse" color-interpolation-filters="sRGB">
<feFlood flood-opacity="0" result="BackgroundImageFix"/>
<feBlend mode="normal" in="SourceGraphic" in2="BackgroundImageFix" result="shape"/>
<feTurbulence type="fractalNoise" baseFrequency="0.99900001287460327 0.99900001287460327" numOctaves="3" seed="3125" />
<feDisplacementMap in="shape" scale="1.0981189012527466" xChannelSelector="R" yChannelSelector="G" result="displacedImage" width="100%" height="100%" />
<feMerge result="effect1_texture_15_158">
<feMergeNode in="displacedImage"/>
</feMerge>
</filter>
<filter id="filter37_g_15_158" x="109.49" y="66.5098" width="5.71949" height="2.60422" filterUnits="userSpaceOnUse" color-interpolation-filters="sRGB">
<feFlood flood-opacity="0" result="BackgroundImageFix"/>
<feBlend mode="normal" in="SourceGraphic" in2="BackgroundImageFix" result="shape"/>
<feTurbulence type="fractalNoise" baseFrequency="0.99900001287460327 0.99900001287460327" numOctaves="3" seed="3125" />
<feDisplacementMap in="shape" scale="1.0981189012527466" xChannelSelector="R" yChannelSelector="G" result="displacedImage" width="100%" height="100%" />
<feMerge result="effect1_texture_15_158">
<feMergeNode in="displacedImage"/>
</feMerge>
</filter>
<filter id="filter38_g_15_158" x="32.4757" y="65.3287" width="3.55933" height="4.33872" filterUnits="userSpaceOnUse" color-interpolation-filters="sRGB">
<feFlood flood-opacity="0" result="BackgroundImageFix"/>
<feBlend mode="normal" in="SourceGraphic" in2="BackgroundImageFix" result="shape"/>
<feTurbulence type="fractalNoise" baseFrequency="0.99900001287460327 0.99900001287460327" numOctaves="3" seed="3125" />
<feDisplacementMap in="shape" scale="1.0981189012527466" xChannelSelector="R" yChannelSelector="G" result="displacedImage" width="100%" height="100%" />
<feMerge result="effect1_texture_15_158">
<feMergeNode in="displacedImage"/>
</feMerge>
</filter>
<filter id="filter39_g_15_158" x="66.0087" y="62.2879" width="3.13215" height="3.56736" filterUnits="userSpaceOnUse" color-interpolation-filters="sRGB">
<feFlood flood-opacity="0" result="BackgroundImageFix"/>
<feBlend mode="normal" in="SourceGraphic" in2="BackgroundImageFix" result="shape"/>
<feTurbulence type="fractalNoise" baseFrequency="0.99900001287460327 0.99900001287460327" numOctaves="3" seed="3125" />
<feDisplacementMap in="shape" scale="1.0981189012527466" xChannelSelector="R" yChannelSelector="G" result="displacedImage" width="100%" height="100%" />
<feMerge result="effect1_texture_15_158">
<feMergeNode in="displacedImage"/>
</feMerge>
</filter>
<filter id="filter40_g_15_158" x="74.8941" y="83.1854" width="4.56817" height="2.25571" filterUnits="userSpaceOnUse" color-interpolation-filters="sRGB">
<feFlood flood-opacity="0" result="BackgroundImageFix"/>
<feBlend mode="normal" in="SourceGraphic" in2="BackgroundImageFix" result="shape"/>
<feTurbulence type="fractalNoise" baseFrequency="0.99900001287460327 0.99900001287460327" numOctaves="3" seed="3125" />
<feDisplacementMap in="shape" scale="1.0981189012527466" xChannelSelector="R" yChannelSelector="G" result="displacedImage" width="100%" height="100%" />
<feMerge result="effect1_texture_15_158">
<feMergeNode in="displacedImage"/>
</feMerge>
</filter>
<filter id="filter41_g_15_158" x="138.205" y="143.971" width="3.19138" height="3.02811" filterUnits="userSpaceOnUse" color-interpolation-filters="sRGB">
<feFlood flood-opacity="0" result="BackgroundImageFix"/>
<feBlend mode="normal" in="SourceGraphic" in2="BackgroundImageFix" result="shape"/>
<feTurbulence type="fractalNoise" baseFrequency="0.99900001287460327 0.99900001287460327" numOctaves="3" seed="3125" />
<feDisplacementMap in="shape" scale="1.0981189012527466" xChannelSelector="R" yChannelSelector="G" result="displacedImage" width="100%" height="100%" />
<feMerge result="effect1_texture_15_158">
<feMergeNode in="displacedImage"/>
</feMerge>
</filter>
<filter id="filter42_g_15_158" x="112.197" y="64.4602" width="5.95983" height="2.47922" filterUnits="userSpaceOnUse" color-interpolation-filters="sRGB">
<feFlood flood-opacity="0" result="BackgroundImageFix"/>
<feBlend mode="normal" in="SourceGraphic" in2="BackgroundImageFix" result="shape"/>
<feTurbulence type="fractalNoise" baseFrequency="0.99900001287460327 0.99900001287460327" numOctaves="3" seed="3125" />
<feDisplacementMap in="shape" scale="1.0981189012527466" xChannelSelector="R" yChannelSelector="G" result="displacedImage" width="100%" height="100%" />
<feMerge result="effect1_texture_15_158">
<feMergeNode in="displacedImage"/>
</feMerge>
</filter>
<filter id="filter43_g_15_158" x="75.7041" y="85.6141" width="3.95545" height="2.2952" filterUnits="userSpaceOnUse" color-interpolation-filters="sRGB">
<feFlood flood-opacity="0" result="BackgroundImageFix"/>
<feBlend mode="normal" in="SourceGraphic" in2="BackgroundImageFix" result="shape"/>
<feTurbulence type="fractalNoise" baseFrequency="0.99900001287460327 0.99900001287460327" numOctaves="3" seed="3125" />
<feDisplacementMap in="shape" scale="1.0981189012527466" xChannelSelector="R" yChannelSelector="G" result="displacedImage" width="100%" height="100%" />
<feMerge result="effect1_texture_15_158">
<feMergeNode in="displacedImage"/>
</feMerge>
</filter>
<filter id="filter44_g_15_158" x="76.5883" y="96.2211" width="3.80196" height="3.43357" filterUnits="userSpaceOnUse" color-interpolation-filters="sRGB">
<feFlood flood-opacity="0" result="BackgroundImageFix"/>
<feBlend mode="normal" in="SourceGraphic" in2="BackgroundImageFix" result="shape"/>
<feTurbulence type="fractalNoise" baseFrequency="0.99900001287460327 0.99900001287460327" numOctaves="3" seed="3125" />
<feDisplacementMap in="shape" scale="1.0981189012527466" xChannelSelector="R" yChannelSelector="G" result="displacedImage" width="100%" height="100%" />
<feMerge result="effect1_texture_15_158">
<feMergeNode in="displacedImage"/>
</feMerge>
</filter>
<filter id="filter45_g_15_158" x="121.267" y="58.0509" width="5.5076" height="3.14029" filterUnits="userSpaceOnUse" color-interpolation-filters="sRGB">
<feFlood flood-opacity="0" result="BackgroundImageFix"/>
<feBlend mode="normal" in="SourceGraphic" in2="BackgroundImageFix" result="shape"/>
<feTurbulence type="fractalNoise" baseFrequency="0.99900001287460327 0.99900001287460327" numOctaves="3" seed="3125" />
<feDisplacementMap in="shape" scale="1.0981189012527466" xChannelSelector="R" yChannelSelector="G" result="displacedImage" width="100%" height="100%" />
<feMerge result="effect1_texture_15_158">
<feMergeNode in="displacedImage"/>
</feMerge>
</filter>
<filter id="filter46_g_15_158" x="123.858" y="52.9273" width="4.98249" height="3.5062" filterUnits="userSpaceOnUse" color-interpolation-filters="sRGB">
<feFlood flood-opacity="0" result="BackgroundImageFix"/>
<feBlend mode="normal" in="SourceGraphic" in2="BackgroundImageFix" result="shape"/>
<feTurbulence type="fractalNoise" baseFrequency="0.99900001287460327 0.99900001287460327" numOctaves="3" seed="3125" />
<feDisplacementMap in="shape" scale="1.0981189012527466" xChannelSelector="R" yChannelSelector="G" result="displacedImage" width="100%" height="100%" />
<feMerge result="effect1_texture_15_158">
<feMergeNode in="displacedImage"/>
</feMerge>
</filter>
<filter id="filter47_g_15_158" x="103.009" y="51.836" width="4.60666" height="1.98606" filterUnits="userSpaceOnUse" color-interpolation-filters="sRGB">
<feFlood flood-opacity="0" result="BackgroundImageFix"/>
<feBlend mode="normal" in="SourceGraphic" in2="BackgroundImageFix" result="shape"/>
<feTurbulence type="fractalNoise" baseFrequency="0.99900001287460327 0.99900001287460327" numOctaves="3" seed="3125" />
<feDisplacementMap in="shape" scale="1.0981189012527466" xChannelSelector="R" yChannelSelector="G" result="displacedImage" width="100%" height="100%" />
<feMerge result="effect1_texture_15_158">
<feMergeNode in="displacedImage"/>
</feMerge>
</filter>
<filter id="filter48_g_15_158" x="133.978" y="58.2282" width="4.70301" height="3.20316" filterUnits="userSpaceOnUse" color-interpolation-filters="sRGB">
<feFlood flood-opacity="0" result="BackgroundImageFix"/>
<feBlend mode="normal" in="SourceGraphic" in2="BackgroundImageFix" result="shape"/>
<feTurbulence type="fractalNoise" baseFrequency="0.99900001287460327 0.99900001287460327" numOctaves="3" seed="3125" />
<feDisplacementMap in="shape" scale="1.0981189012527466" xChannelSelector="R" yChannelSelector="G" result="displacedImage" width="100%" height="100%" />
<feMerge result="effect1_texture_15_158">
<feMergeNode in="displacedImage"/>
</feMerge>
</filter>
<filter id="filter49_g_15_158" x="95.8226" y="75.1332" width="3.37734" height="3.25339" filterUnits="userSpaceOnUse" color-interpolation-filters="sRGB">
<feFlood flood-opacity="0" result="BackgroundImageFix"/>
<feBlend mode="normal" in="SourceGraphic" in2="BackgroundImageFix" result="shape"/>
<feTurbulence type="fractalNoise" baseFrequency="0.99900001287460327 0.99900001287460327" numOctaves="3" seed="3125" />
<feDisplacementMap in="shape" scale="1.0981189012527466" xChannelSelector="R" yChannelSelector="G" result="displacedImage" width="100%" height="100%" />
<feMerge result="effect1_texture_15_158">
<feMergeNode in="displacedImage"/>
</feMerge>
</filter>
<filter id="filter50_g_15_158" x="78.8475" y="76.8215" width="3.69661" height="2.26078" filterUnits="userSpaceOnUse" color-interpolation-filters="sRGB">
<feFlood flood-opacity="0" result="BackgroundImageFix"/>
<feBlend mode="normal" in="SourceGraphic" in2="BackgroundImageFix" result="shape"/>
<feTurbulence type="fractalNoise" baseFrequency="0.99900001287460327 0.99900001287460327" numOctaves="3" seed="3125" />
<feDisplacementMap in="shape" scale="1.0981189012527466" xChannelSelector="R" yChannelSelector="G" result="displacedImage" width="100%" height="100%" />
<feMerge result="effect1_texture_15_158">
<feMergeNode in="displacedImage"/>
</feMerge>
</filter>
<filter id="filter51_g_15_158" x="96.5918" y="32.6314" width="3.8897" height="1.86802" filterUnits="userSpaceOnUse" color-interpolation-filters="sRGB">
<feFlood flood-opacity="0" result="BackgroundImageFix"/>
<feBlend mode="normal" in="SourceGraphic" in2="BackgroundImageFix" result="shape"/>
<feTurbulence type="fractalNoise" baseFrequency="0.99900001287460327 0.99900001287460327" numOctaves="3" seed="3125" />
<feDisplacementMap in="shape" scale="1.0981189012527466" xChannelSelector="R" yChannelSelector="G" result="displacedImage" width="100%" height="100%" />
<feMerge result="effect1_texture_15_158">
<feMergeNode in="displacedImage"/>
</feMerge>
</filter>
<filter id="filter52_g_15_158" x="54.2728" y="73.3326" width="3.06049" height="2.61734" filterUnits="userSpaceOnUse" color-interpolation-filters="sRGB">
<feFlood flood-opacity="0" result="BackgroundImageFix"/>
<feBlend mode="normal" in="SourceGraphic" in2="BackgroundImageFix" result="shape"/>
<feTurbulence type="fractalNoise" baseFrequency="0.99900001287460327 0.99900001287460327" numOctaves="3" seed="3125" />
<feDisplacementMap in="shape" scale="1.0981189012527466" xChannelSelector="R" yChannelSelector="G" result="displacedImage" width="100%" height="100%" />
<feMerge result="effect1_texture_15_158">
<feMergeNode in="displacedImage"/>
</feMerge>
</filter>
<filter id="filter53_g_15_158" x="110.299" y="45.6342" width="4.297" height="2.96372" filterUnits="userSpaceOnUse" color-interpolation-filters="sRGB">
<feFlood flood-opacity="0" result="BackgroundImageFix"/>
<feBlend mode="normal" in="SourceGraphic" in2="BackgroundImageFix" result="shape"/>
<feTurbulence type="fractalNoise" baseFrequency="0.99900001287460327 0.99900001287460327" numOctaves="3" seed="3125" />
<feDisplacementMap in="shape" scale="1.0981189012527466" xChannelSelector="R" yChannelSelector="G" result="displacedImage" width="100%" height="100%" />
<feMerge result="effect1_texture_15_158">
<feMergeNode in="displacedImage"/>
</feMerge>
</filter>
<filter id="filter54_g_15_158" x="76.0424" y="71.9318" width="2.53255" height="2.77244" filterUnits="userSpaceOnUse" color-interpolation-filters="sRGB">
<feFlood flood-opacity="0" result="BackgroundImageFix"/>
<feBlend mode="normal" in="SourceGraphic" in2="BackgroundImageFix" result="shape"/>
<feTurbulence type="fractalNoise" baseFrequency="0.99900001287460327 0.99900001287460327" numOctaves="3" seed="3125" />
<feDisplacementMap in="shape" scale="1.0981189012527466" xChannelSelector="R" yChannelSelector="G" result="displacedImage" width="100%" height="100%" />
<feMerge result="effect1_texture_15_158">
<feMergeNode in="displacedImage"/>
</feMerge>
</filter>
<filter id="filter55_g_15_158" x="111.347" y="32.6821" width="3.94355" height="1.84495" filterUnits="userSpaceOnUse" color-interpolation-filters="sRGB">
<feFlood flood-opacity="0" result="BackgroundImageFix"/>
<feBlend mode="normal" in="SourceGraphic" in2="BackgroundImageFix" result="shape"/>
<feTurbulence type="fractalNoise" baseFrequency="0.99900001287460327 0.99900001287460327" numOctaves="3" seed="3125" />
<feDisplacementMap in="shape" scale="1.0981189012527466" xChannelSelector="R" yChannelSelector="G" result="displacedImage" width="100%" height="100%" />
<feMerge result="effect1_texture_15_158">
<feMergeNode in="displacedImage"/>
</feMerge>
</filter>
<filter id="filter56_g_15_158" x="67.5462" y="44.283" width="2.67322" height="2.73539" filterUnits="userSpaceOnUse" color-interpolation-filters="sRGB">
<feFlood flood-opacity="0" result="BackgroundImageFix"/>
<feBlend mode="normal" in="SourceGraphic" in2="BackgroundImageFix" result="shape"/>
<feTurbulence type="fractalNoise" baseFrequency="0.99900001287460327 0.99900001287460327" numOctaves="3" seed="3125" />
<feDisplacementMap in="shape" scale="1.0981189012527466" xChannelSelector="R" yChannelSelector="G" result="displacedImage" width="100%" height="100%" />
<feMerge result="effect1_texture_15_158">
<feMergeNode in="displacedImage"/>
</feMerge>
</filter>
<filter id="filter57_g_15_158" x="132.782" y="53.2368" width="3.70859" height="1.87082" filterUnits="userSpaceOnUse" color-interpolation-filters="sRGB">
<feFlood flood-opacity="0" result="BackgroundImageFix"/>
<feBlend mode="normal" in="SourceGraphic" in2="BackgroundImageFix" result="shape"/>
<feTurbulence type="fractalNoise" baseFrequency="0.99900001287460327 0.99900001287460327" numOctaves="3" seed="3125" />
<feDisplacementMap in="shape" scale="1.0981189012527466" xChannelSelector="R" yChannelSelector="G" result="displacedImage" width="100%" height="100%" />
<feMerge result="effect1_texture_15_158">
<feMergeNode in="displacedImage"/>
</feMerge>
</filter>
<filter id="filter58_g_15_158" x="197.019" y="1.91927e-05" width="202.696" height="276.177" filterUnits="userSpaceOnUse" color-interpolation-filters="sRGB">
<feFlood flood-opacity="0" result="BackgroundImageFix"/>
<feBlend mode="normal" in="SourceGraphic" in2="BackgroundImageFix" result="shape"/>
<feTurbulence type="fractalNoise" baseFrequency="0.99900001287460327 0.99900001287460327" numOctaves="3" seed="9179" />
<feDisplacementMap in="shape" scale="1.6471784114837646" xChannelSelector="R" yChannelSelector="G" result="displacedImage" width="100%" height="100%" />
<feMerge result="effect1_texture_15_158">
<feMergeNode in="displacedImage"/>
</feMerge>
</filter>
<filter id="filter59_g_15_158" x="246.434" y="152.089" width="72.2013" height="40.6304" filterUnits="userSpaceOnUse" color-interpolation-filters="sRGB">
<feFlood flood-opacity="0" result="BackgroundImageFix"/>
<feBlend mode="normal" in="SourceGraphic" in2="BackgroundImageFix" result="shape"/>
<feTurbulence type="fractalNoise" baseFrequency="0.99900001287460327 0.99900001287460327" numOctaves="3" seed="9179" />
<feDisplacementMap in="shape" scale="1.6471784114837646" xChannelSelector="R" yChannelSelector="G" result="displacedImage" width="100%" height="100%" />
<feMerge result="effect1_texture_15_158">
<feMergeNode in="displacedImage"/>
</feMerge>
</filter>
<filter id="filter60_g_15_158" x="252.265" y="156.787" width="55.8558" height="23.2413" filterUnits="userSpaceOnUse" color-interpolation-filters="sRGB">
<feFlood flood-opacity="0" result="BackgroundImageFix"/>
<feBlend mode="normal" in="SourceGraphic" in2="BackgroundImageFix" result="shape"/>
<feTurbulence type="fractalNoise" baseFrequency="0.99900001287460327 0.99900001287460327" numOctaves="3" seed="9179" />
<feDisplacementMap in="shape" scale="1.6471784114837646" xChannelSelector="R" yChannelSelector="G" result="displacedImage" width="100%" height="100%" />
<feMerge result="effect1_texture_15_158">
<feMergeNode in="displacedImage"/>
</feMerge>
</filter>
<filter id="filter61_g_15_158" x="238.675" y="78.6753" width="44.054" height="34.2973" filterUnits="userSpaceOnUse" color-interpolation-filters="sRGB">
<feFlood flood-opacity="0" result="BackgroundImageFix"/>
<feBlend mode="normal" in="SourceGraphic" in2="BackgroundImageFix" result="shape"/>
<feTurbulence type="fractalNoise" baseFrequency="0.99900001287460327 0.99900001287460327" numOctaves="3" seed="9179" />
<feDisplacementMap in="shape" scale="1.6471784114837646" xChannelSelector="R" yChannelSelector="G" result="displacedImage" width="100%" height="100%" />
<feMerge result="effect1_texture_15_158">
<feMergeNode in="displacedImage"/>
</feMerge>
</filter>
<filter id="filter62_g_15_158" x="305.046" y="111.353" width="42.6374" height="16.3036" filterUnits="userSpaceOnUse" color-interpolation-filters="sRGB">
<feFlood flood-opacity="0" result="BackgroundImageFix"/>
<feBlend mode="normal" in="SourceGraphic" in2="BackgroundImageFix" result="shape"/>
<feTurbulence type="fractalNoise" baseFrequency="0.99900001287460327 0.99900001287460327" numOctaves="3" seed="9179" />
<feDisplacementMap in="shape" scale="1.6471784114837646" xChannelSelector="R" yChannelSelector="G" result="displacedImage" width="100%" height="100%" />
<feMerge result="effect1_texture_15_158">
<feMergeNode in="displacedImage"/>
</feMerge>
</filter>
<filter id="filter63_g_15_158" x="330.399" y="117.53" width="5.39138" height="4.72213" filterUnits="userSpaceOnUse" color-interpolation-filters="sRGB">
<feFlood flood-opacity="0" result="BackgroundImageFix"/>
<feBlend mode="normal" in="SourceGraphic" in2="BackgroundImageFix" result="shape"/>
<feTurbulence type="fractalNoise" baseFrequency="0.99900001287460327 0.99900001287460327" numOctaves="3" seed="9179" />
<feDisplacementMap in="shape" scale="1.6471784114837646" xChannelSelector="R" yChannelSelector="G" result="displacedImage" width="100%" height="100%" />
<feMerge result="effect1_texture_15_158">
<feMergeNode in="displacedImage"/>
</feMerge>
</filter>
<filter id="filter64_g_15_158" x="262.665" y="141.917" width="57.7405" height="37.1823" filterUnits="userSpaceOnUse" color-interpolation-filters="sRGB">
<feFlood flood-opacity="0" result="BackgroundImageFix"/>
<feBlend mode="normal" in="SourceGraphic" in2="BackgroundImageFix" result="shape"/>
<feTurbulence type="fractalNoise" baseFrequency="0.99900001287460327 0.99900001287460327" numOctaves="3" seed="9179" />
<feDisplacementMap in="shape" scale="1.6471784114837646" xChannelSelector="R" yChannelSelector="G" result="displacedImage" width="100%" height="100%" />
<feMerge result="effect1_texture_15_158">
<feMergeNode in="displacedImage"/>
</feMerge>
</filter>
<filter id="filter65_g_15_158" x="242.167" y="130.829" width="26.7619" height="28.1104" filterUnits="userSpaceOnUse" color-interpolation-filters="sRGB">
<feFlood flood-opacity="0" result="BackgroundImageFix"/>
<feBlend mode="normal" in="SourceGraphic" in2="BackgroundImageFix" result="shape"/>
<feTurbulence type="fractalNoise" baseFrequency="0.99900001287460327 0.99900001287460327" numOctaves="3" seed="9179" />
<feDisplacementMap in="shape" scale="1.6471784114837646" xChannelSelector="R" yChannelSelector="G" result="displacedImage" width="100%" height="100%" />
<feMerge result="effect1_texture_15_158">
<feMergeNode in="displacedImage"/>
</feMerge>
</filter>
<filter id="filter66_g_15_158" x="306.713" y="119.896" width="30.2008" height="8.55947" filterUnits="userSpaceOnUse" color-interpolation-filters="sRGB">
<feFlood flood-opacity="0" result="BackgroundImageFix"/>
<feBlend mode="normal" in="SourceGraphic" in2="BackgroundImageFix" result="shape"/>
<feTurbulence type="fractalNoise" baseFrequency="0.99900001287460327 0.99900001287460327" numOctaves="3" seed="9179" />
<feDisplacementMap in="shape" scale="1.6471784114837646" xChannelSelector="R" yChannelSelector="G" result="displacedImage" width="100%" height="100%" />
<feMerge result="effect1_texture_15_158">
<feMergeNode in="displacedImage"/>
</feMerge>
</filter>
<filter id="filter67_g_15_158" x="245.794" y="103.136" width="27.9777" height="10.5635" filterUnits="userSpaceOnUse" color-interpolation-filters="sRGB">
<feFlood flood-opacity="0" result="BackgroundImageFix"/>
<feBlend mode="normal" in="SourceGraphic" in2="BackgroundImageFix" result="shape"/>
<feTurbulence type="fractalNoise" baseFrequency="0.99900001287460327 0.99900001287460327" numOctaves="3" seed="9179" />
<feDisplacementMap in="shape" scale="1.6471784114837646" xChannelSelector="R" yChannelSelector="G" result="displacedImage" width="100%" height="100%" />
<feMerge result="effect1_texture_15_158">
<feMergeNode in="displacedImage"/>
</feMerge>
</filter>
</defs>
</svg>
