<svg width="267" height="200" viewBox="0 0 267 200" fill="none" xmlns="http://www.w3.org/2000/svg">
<path d="M57.9959 53.2591C60.4948 53.0602 62.4809 54.3166 65.0171 54.5863C67.7096 54.8435 71.3266 54.8699 73.9942 54.8147C75.4123 54.859 76.6493 54.6033 77.8988 54.5039C80.8663 54.2677 83.5214 54.0563 86.6132 55.3819C88.2372 56.0385 89.7174 56.8637 91.0539 57.8575C92.8714 58.9703 96.6058 62.4451 95.8304 64.5501C95.1738 66.1741 92.3003 65.617 90.0764 65.3225C89.4268 65.0599 88.7897 64.9534 88.3211 64.9907C87.3716 64.9091 86.3848 64.359 85.4228 64.1212C81.5501 62.8578 77.8335 61.5819 73.8419 60.7994C66.0149 59.222 58.1878 57.6447 50.116 58.9159C43.1375 60.1001 41.6129 60.693 39.8048 67.5954C38.5786 71.9366 37.8335 76.3968 37.0883 80.857C36.4993 85.3047 33.4059 87.9085 30.4688 90.4999C29.0064 91.8737 25.9146 90.5481 25.7529 88.5177L25.5913 86.4874C25.2859 84.6256 24.9806 82.7638 25.481 81.1522C26.92 75.5366 28.5277 70.0648 30.1354 64.5929L32.3499 56.8723C32.9692 54.7798 33.9257 52.9747 34.3764 50.7384C34.6142 49.7765 34.371 48.6956 34.2839 47.6023C34.0656 46.8338 33.991 45.8967 34.0726 44.9472C34.5427 40.9804 36.2871 37.2266 36.2763 33.141C36.2529 28.8991 35.5691 20.3091 34.9157 14.0741L34.4805 8.60772C34.3189 6.57734 34.6258 4.50966 36.0633 2.82349C36.6383 2.14904 37.3322 0.993583 38.1131 0.93142C40.7683 0.720066 45.9013 5.96969 45.0194 8.71184C43.8748 12.1036 44.6154 19.4318 45.2315 25.1981C45.4305 27.6971 45.7731 30.0274 45.7413 31.6017C45.8532 33.0073 47.3583 34.1449 48.5207 32.9521C49.9831 31.5783 51.2644 29.9046 52.5582 28.3871C55.2894 25.1834 58.2018 22.2796 61.6448 20.1194C64.3318 18.3338 67.5495 17.2918 70.8666 17.4993C72.2847 17.5436 73.8963 18.044 74.6205 19.2437C75.176 20.2997 74.9756 21.7302 74.4379 22.8732C73.8753 23.7039 72.3065 25.7148 71.2132 25.8019C65.7468 26.237 62.8274 31.0274 58.6159 33.4059C55.1605 35.4099 52.7167 38.2764 50.7912 41.7303C49.8223 43.3791 49.0095 45.0156 48.2091 46.8082C47.6714 47.9512 47.1586 49.4066 47.5704 50.6312C48.3568 52.6118 49.9435 52.7999 51.6988 53.1317C53.7665 53.4386 55.9655 53.4207 57.9959 53.2591Z" fill="#111917"/>
<path d="M103.736 59.6772C103.581 55.7601 105.744 51.3443 105.746 47.4148C105.849 40.8054 107.699 36.4144 108.789 30.3551C109.653 25.4139 118.293 25.3548 117.847 29.634C117.033 35.1998 115.126 40.8528 114.631 44.5071C113.935 49.592 112.122 54.4516 112.376 59.6181C112.5 61.1799 112.324 62.9228 112.149 64.6657C111.785 67.9953 111.578 71.3124 112.895 74.0367C113.294 75.1051 114.412 75.3305 115.143 74.6436C120.956 68.6798 126.468 62.8972 130.463 55.8207C136.826 44.9407 139.838 43.2864 145.865 32.1189C148.878 26.5351 150.985 23.3812 151.572 22.8629C152.603 21.9949 154.765 21.5085 156.208 21.8652C158.444 22.3158 159.387 24.2841 158.768 26.3766C157.735 31.174 155.884 35.565 154.527 40.2311L150.46 56.2722C150.472 56.4284 150.341 56.7531 150.353 56.9093C149.865 58.6771 149.271 61.082 151.626 61.0517C153.032 60.9398 154.938 59.2163 155.8 58.2046C161.307 50.3791 166.239 43.2281 170.253 34.4212C173.98 25.9516 177.103 25.7029 179.914 25.4791L180.071 25.4667C182.894 25.3991 186.623 26.8312 186.691 29.6549C186.94 32.7786 186.888 36.0833 186.787 38.7633C186.021 48.8833 187.188 53.6629 190.264 62.6912C191.125 65.609 193.897 68.8461 194.359 70.6954C194.771 71.92 194.126 73.7002 193.12 74.8805C192.126 76.217 188.216 74.485 187.011 73.1664C182.902 68.9354 182.247 66.63 178.505 51.2106L178.455 50.5858C178.187 49.1926 177.882 47.3308 175.527 47.3611C174.589 47.4357 173.452 48.9408 172.877 49.6153C170.564 52.157 168.939 55.4298 166.795 58.1153C162.495 63.3299 158.507 68.5197 154.039 73.5907C152.026 75.9513 149.446 77.0997 146.166 77.3608C143.342 77.4284 140.719 76.0655 140.351 73.4228C140.301 72.7981 140.083 72.0296 140.033 71.4049C139.703 69.2307 139.36 66.9004 139.343 64.7014L139.28 63.9205C139.325 62.5024 139.307 60.3034 137.47 60.9212C135.502 61.8637 133.901 65.4489 132.62 67.1227C129.819 71.4321 126.682 75.454 122.894 79.2133C121.588 80.5746 120.294 82.0922 118.663 83.3222C114.839 86.613 108.417 84.9237 105.714 80.5809C102.986 75.9257 102.551 70.4593 102.622 65.4241C102.497 63.8623 103.86 61.239 103.736 59.6772ZM122.443 4.4348C122.691 7.55847 122.747 10.226 118.567 11.0303C115.456 11.4351 109.691 8.12183 110.791 6.14817C111.529 3.57464 114.048 1.64526 116.616 0.340626C118.872 -0.939152 122.531 1.59863 122.443 4.4348Z" fill="#111917"/>
<path d="M221.47 107.045C220.916 102.059 224.011 95.5259 228.224 89.218C230.2 86.3888 231.513 83.1408 233.838 80.7553C238.212 76.4778 241.226 70.894 242.471 64.8223C242.847 61.6489 242.923 58.6565 242.987 55.508C242.95 55.0394 243.056 54.4023 243.163 53.7651C243.207 52.347 243.395 50.7603 242.815 49.392C242.291 46.7617 239.874 46.0111 238.667 48.6219C234.197 57.6223 226.173 63.4477 219.33 70.2794C218.18 71.6283 216.499 72.2336 214.974 72.8265C212.381 73.8188 206.729 71.9112 206.762 66.4074C206.859 57.7552 210.171 55.9198 211.761 48.249C212.437 44.8945 215.493 41.8221 216.605 40.0047C217.681 37.7186 218.3 35.6261 219.4 33.6524C220.55 32.3035 221.257 31.3042 221.913 29.6802C222.02 29.0431 222.089 27.9373 221.727 27.3375C221.003 26.1377 220.546 26.3312 219.778 26.5496L219.466 26.5744C216.848 27.2543 214.374 27.7656 212.031 27.9521C208.595 28.2256 205.109 27.8744 201.492 27.848C199.281 27.7097 195.846 24.0538 196.022 22.3109C196.197 20.568 200.634 17.0713 202.595 18.0154C207.336 20.31 211.479 19.0372 215.765 17.5958C217.758 16.9656 219.907 16.323 221.937 16.1614C228.447 15.0145 235.557 13.5055 242.186 11.8776C243.735 11.5971 245.635 11.7603 247.234 12.1045C248.989 12.4363 250.125 14.8606 249.83 17.0845C249.273 19.958 245.962 21.7933 243.463 21.9922C237.503 22.1523 234.64 25.6808 231.19 29.7276L230.04 31.0765C226.184 35.9415 222.721 39.8321 220.67 45.6537C219.776 48.2396 218.445 49.2886 217.912 52.4745C217.925 52.6307 217.937 52.7868 217.806 53.1116C217.593 54.386 217.286 56.4537 218.885 56.7979C220.316 56.9983 222.284 56.0558 223.459 55.0192C225.234 53.6206 226.696 52.2468 227.784 50.1169C233.072 41.523 234.815 41.6986 241.909 34.0611C244.496 31.026 245.266 26.8782 247.192 23.4243C248.304 21.6068 250.179 21.4576 251.815 22.2704C253.439 22.927 253.626 25.2698 252.944 26.5814C249.118 33.8016 249.583 41.6232 250.18 49.12C250.235 51.7875 250.434 54.2865 250.477 56.7979C250.445 58.3721 251.42 58.7661 252.763 57.8733C253.207 57.5236 253.65 57.1739 254.25 56.8118C256.387 56.013 257.594 53.4022 259.5 51.6788C261.094 49.9802 265.704 48.6701 266.541 51.2755C267.426 54.5056 264.502 57.2532 262.008 59.4949C261.133 60.3504 260.402 61.0373 259.827 61.7118C257.971 64.06 255.765 65.9645 253.559 67.869C250.765 70.2918 250.233 73.4776 249.569 76.9883C248.423 84.3095 246.459 91.2243 245.794 98.6644C245.04 108.941 236.354 114.347 229.367 121.347C229.224 121.516 228.911 121.541 228.43 121.422L227.649 121.484C225.8 121.946 222.359 120.177 222.222 118.458C222.147 117.521 222.06 116.428 222.129 115.322C221.968 113.292 221.925 110.781 221.47 107.045ZM230.671 110.084C233.664 110.161 238.347 99.8859 238.703 98.4429C239.167 96.3628 239.424 93.6704 238.05 92.208C237.869 91.9081 237.7 91.7643 237.232 91.8016C237.076 91.814 236.632 92.1637 236.513 92.6447C234.206 97.2292 232.08 102.114 229.617 106.711C229.354 107.36 228.96 108.335 229.491 109.078C229.865 109.834 230.203 110.122 230.671 110.084Z" fill="#111917"/>
<path d="M113.922 108.996L113.93 109.309C114.335 112.904 114.727 116.028 113.397 119.197C110.877 124.903 111.505 131.156 110.25 137.3C109.977 138.874 110.474 139.959 112.382 141.008C119.384 145.219 119.103 146.48 111.378 150.907C108.751 152.384 106.923 154.467 107.167 157.909C107.756 162.596 106.931 167.162 106.106 171.728C105.7 174.246 105.297 176.921 105.048 179.435C104.927 180.848 104.966 182.415 105.002 183.824C105.097 187.583 105.196 191.499 103.882 195.294C102.857 198.141 101.499 200.213 98.2014 199.983C94.2817 199.925 92.997 198.704 92.5807 194.639C92.1882 191.515 92.7314 188.21 93.2787 185.061C93.4234 184.587 93.4075 183.961 93.5523 183.487C95.073 175.455 95.646 167.134 97.1628 158.946C97.4364 157.372 97.2362 155.653 94.7262 155.56C91.7463 155.479 89.2601 156.325 86.7739 157.172C84.6009 158.01 82.424 158.692 79.9219 158.912C78.8295 159.097 77.9294 160.687 77.3306 161.799C72.5207 169.914 68.6664 178.631 65.6071 187.799C65.169 189.064 64.5087 193.939 63.4401 195.063C63.2914 195.381 62.6688 195.553 62.1989 195.565C61.4118 195.428 61.5407 194.328 61.5209 193.545L61.509 193.075C62.4508 186.939 65.5299 178.554 67.4194 172.707C68.2918 170.021 69.3287 167.644 70.5183 165.106C71.4065 163.046 69.3347 161.688 67.9012 160.784L67.7446 160.788C66.4757 160.193 65.2148 159.911 64.0986 159.156C62.8218 158.248 61.0751 157.352 61.0315 155.629C61.1287 153.276 62.8159 151.822 64.6637 150.522C65.4389 150.189 66.3787 150.165 67.3184 150.141L67.9449 150.125C73.7283 149.509 76.7895 146.61 79.1607 141.221C83.1479 131.56 87.7694 122.196 94.4509 113.721C95.9696 111.801 96.2195 109.287 97.421 107.219C98.6066 104.525 100.258 101.662 103.206 100.491C105.845 99.4834 108.99 99.874 111.692 101.373C113.595 102.265 113.639 103.988 113.682 105.711L113.718 107.12C113.738 107.904 113.914 108.683 113.922 108.996ZM100.337 117.176C100.036 117.654 99.574 117.979 99.2687 118.3C98.5093 119.26 98.0632 120.212 97.6132 121.007C94.3458 128.142 88.8499 133.923 86.5341 141.505C86.2367 142.139 85.6261 142.782 85.172 143.42C84.0994 144.388 83.1834 145.351 84.147 146.267C85.1145 147.34 86.3477 146.525 87.5809 145.71C88.3521 145.22 89.28 144.727 90.0592 144.55C90.8384 144.374 91.4609 144.201 92.0755 143.716C92.9994 143.065 94.1038 143.351 95.2041 143.48C96.7823 143.91 98.1998 144.188 99.4093 142.433C100.466 140.839 100.266 139.12 100.226 137.554C100.042 136.461 99.8614 135.525 100.147 134.421C101.582 129.213 102.857 123.852 102.092 118.386C102.076 117.759 102.064 117.289 102.522 116.808C102.828 116.486 102.816 116.016 102.804 115.547C102.623 114.611 102.447 113.832 101.836 114.474C101.378 114.956 101.394 115.582 100.94 116.221C100.795 116.694 100.643 116.855 100.337 117.176Z" fill="#111917"/>
<path d="M200.247 181.1C206.199 180.95 204.031 188.214 201.682 188.273C199.019 188.341 193.837 194.114 189.941 194.996C184.029 196.713 169.599 196.295 169.445 190.186C169.361 186.897 167.297 185.852 165.896 186.201C164.494 186.55 162.494 188.011 161.116 189.3C155.326 195.872 147.429 199.677 140.193 198.606C129.643 196.679 129.552 193.077 129.35 185.089L129.314 183.679C129.291 182.739 132.276 176.865 132.209 174.202C132.078 169.033 132.108 164.017 134.471 158.315C136.983 152.296 136.073 147.304 137.007 140.854C137.43 138.963 137.86 137.385 138.137 135.967C139.143 132.337 140.003 129.181 139.418 124.65C138.99 120.116 139.494 115.245 140.009 110.843C140.4 107.699 140.794 104.711 140.727 102.049C140.652 99.0726 143.578 90.8487 146.494 88.424C147.872 87.1353 153.19 86.6873 154.502 89.005C155.494 91.0173 153.705 94.6673 152.516 97.2051C152.371 97.6789 152.07 98.1568 151.921 98.474C150.888 101.008 151.104 103.353 151.324 105.855C151.552 108.671 151.78 111.486 150.446 114.498C149.107 117.353 149.316 119.385 149.371 121.577C149.583 123.766 149.799 126.112 147.991 128.979C147.091 130.569 147.166 133.545 147.234 136.207C147.281 138.087 147.329 139.966 146.887 141.075C145.259 144.877 145.237 150.207 144.674 152.728C141.036 163.791 141.428 166.916 141.716 172.081C141.884 172.547 141.896 173.017 141.912 173.643C142.12 175.675 141.85 177.406 141.581 179.137C141.178 181.812 140.925 184.169 142.695 186.005C144.309 187.845 146.521 188.572 148.851 187.73C152.57 186.068 154.486 187.43 157.065 184.074C160.858 179.119 163.372 179.369 163.249 174.514L163.082 167.935C162.968 163.393 162.853 158.851 164.645 155.358C167.032 150.595 167.716 146.66 171.071 142.97C174.574 138.963 181.779 138.781 183.666 139.047C189.807 140.145 196.468 143.268 196.627 149.533L196.75 154.388C196.849 158.304 190.839 162.374 188.874 165.245C185.078 170.043 176.84 172.759 176.998 179.024C177.066 181.687 181.719 185.958 184.39 186.203C189.735 186.852 192.041 185.069 194.35 183.444C195.889 182.308 197.584 181.168 200.247 181.1ZM178.819 164.246C181.128 162.62 181.206 159.484 183.648 156.914C184.866 155.473 186.103 154.814 186.055 152.935C186.028 151.839 184.582 150.465 183.458 149.396C182.655 148.633 181.88 148.966 181.101 149.142C180.635 149.311 180.169 149.479 179.699 149.491C174.53 149.622 172.536 157.509 171.558 162.235C171.417 162.866 173.444 168.613 178.819 164.246Z" fill="#111917"/>
<path d="M225.351 198.645C224.258 198.83 221.286 199.062 218.263 197.257C213.015 194.256 209.563 187.917 210.67 182.09C211.647 177.364 212.95 173.099 214.718 168.666C218.251 159.643 222.74 151.223 228.494 143.241C230.917 139.888 234.15 137.612 237.059 134.874C240.425 131.655 245.148 132.475 249.095 133.629C251.782 134.502 254.026 136.482 256.258 137.993C258.491 139.504 258.546 141.697 258.293 144.054C258.187 146.094 256.629 146.447 254.906 146.491C253.183 146.534 252.357 144.831 250.927 144.084C247.113 141.986 244.771 142.359 241.714 145.414C236.515 150.561 232.429 156.306 230.102 163.418C228.795 167.526 226.541 171.345 224.921 175.46C224.78 176.091 224.479 176.569 224.181 177.203C223.59 178.629 222.843 180.058 223.043 181.777C223.527 188.504 228.359 187.442 233.194 186.535C233.973 186.359 234.909 186.179 235.688 186.002C242.556 184.888 243.726 181.567 249.462 179.071C253.181 177.41 253.13 175.373 255.893 173.109C258.661 171.002 261.441 169.364 262.741 171.212C263.881 172.907 262.716 176.385 258.132 181.046C255.994 183.294 251.07 186.867 248.92 188.645C247.08 190.259 244.779 192.198 241.208 193.542C234.532 196.062 231.604 198.017 225.351 198.645Z" fill="#111917"/>
<path d="M39.4363 176.443C39.9175 176.731 40.11 177.116 40.3987 177.501C40.7837 177.79 41.0725 178.175 41.1687 178.464C41.4574 179.234 41.1687 179.715 40.7837 180.292C39.0513 182.313 36.549 182.698 34.5278 180.966C32.5067 179.137 30.4855 177.213 28.6569 175.191C27.2132 173.555 26.1545 173.94 24.7108 174.999C23.1709 176.154 21.3423 177.212 19.7061 178.367C17.7812 179.811 15.6638 180.581 13.354 181.159C6.52058 183.083 2.28581 182.025 0.264673 175.384C-0.120306 174.325 -0.0240613 170.283 0.168428 169.994C0.745897 168.358 1.70834 167.684 2.18957 166.818C2.76704 165.952 3.05577 164.989 3.44075 164.123C4.30695 162.198 5.36565 160.37 7.1943 159.311C9.40793 158.445 13.0652 153.729 14.5089 151.9C15.5676 150.649 16.53 149.205 14.6051 144.778C12.3915 140.158 14.0277 135.442 15.7601 130.823C16.1451 129.668 16.53 128.609 16.8188 127.55C17.4925 125.529 18.5512 124.182 20.3798 123.315C21.3423 122.738 22.5935 122.449 23.5559 121.583C24.1334 121.006 24.6146 120.332 25.2883 119.754C25.962 118.792 27.2132 118.407 28.3681 118.407C29.6193 118.311 31.063 118.888 32.0255 119.754C32.4104 120.139 32.8917 120.139 33.3729 120.043C33.7579 120.043 34.1428 119.947 34.6241 120.236C36.9339 121.294 35.8752 123.412 33.7579 123.508C32.9879 123.508 32.2179 122.257 31.6405 122.257C31.063 122.257 30.4855 122.545 29.8118 122.93C29.2344 123.412 28.4644 123.797 27.5019 123.989C27.3095 123.989 27.0207 124.085 26.732 124.085C25.8658 124.085 24.9996 124.182 24.5184 125.144C24.4221 125.433 22.3047 126.01 21.5348 127.646C20.1873 130.726 20.0911 131.785 19.2249 135.057C18.3587 138.426 18.9362 140.928 19.5136 143.431C19.9949 144.874 20.5723 145.933 21.4385 146.029C22.5935 146.029 24.3259 145.355 24.8071 145.067C25.6733 144.297 25.8658 142.372 26.732 141.506C29.0419 139.388 30.5818 136.79 32.3142 134.769C33.1804 133.71 33.1804 132.844 33.2766 131.785C33.2766 131.207 33.2766 130.534 33.4691 129.764V129.186C33.4691 127.935 33.4691 126.395 35.9715 125.722C37.8001 125.24 38.1851 127.261 38.1851 128.416C38.2814 130.823 37.9926 132.459 37.2227 134.576C36.4527 136.116 35.2015 137.463 34.5278 138.907C33.1804 142.276 30.0043 145.355 27.5019 147.954C25.1921 150.553 24.5184 152.285 25.1921 154.306C25.4808 155.172 26.4433 157.29 26.732 158.252C27.0207 159.118 27.9832 160.37 28.6569 160.37C29.8118 160.466 30.9668 159.215 31.833 158.252C32.3142 157.771 32.6992 157.386 32.9879 157.194C34.2391 155.942 35.779 154.98 37.3189 154.21C37.5114 154.114 37.8001 153.921 37.9926 153.921C38.6663 154.018 38.9551 154.306 39.2438 154.787C39.3401 155.076 39.5325 155.269 39.6288 155.557C40.0138 156.231 40.3987 157.001 40.11 157.771C40.0138 158.156 39.8213 158.637 39.4363 159.022C37.3189 161.621 34.7203 164.412 34.2391 167.684C34.0466 169.705 34.7203 171.63 35.8752 173.074C36.8377 174.518 38.1851 175.48 39.4363 176.443ZM21.9197 167.877C23.8446 164.508 22.9784 162.487 19.3211 159.792C17.9737 158.83 15.4713 159.407 14.0277 160.658C12.3915 162.102 10.5629 163.642 9.11919 165.471C7.09805 167.973 6.42434 171.053 7.29054 174.229C8.0605 176.635 11.3328 175.865 13.4502 174.903C16.7225 173.266 18.8399 172.208 20.9573 169.32C21.3423 168.839 21.7273 168.358 21.9197 167.877Z" fill="#111917"/>
</svg>
