<svg width="399" height="280" viewBox="0 0 399 280" fill="none" xmlns="http://www.w3.org/2000/svg">
<path d="M83.4595 23.109C86.0171 22.5908 88.0851 22.7918 90.548 22.494C102.7 21.0244 114.998 22.8307 126.666 26.1945C136.402 29.0013 145.063 34.1267 154.098 38.5489C157.157 40.0469 160.073 42.7514 162.982 44.528C165.199 45.9903 170.321 47.0466 172.052 48.8755C175.403 52.4175 171.891 56.7739 177.594 58.5975C178.522 60.0862 176.745 60.0397 177.935 61.2277C177.879 62.886 178.891 61.7206 178.005 62.6266C178.201 63.2814 178.614 63.5506 179.129 64.0253C179.71 64.1996 180.396 63.4998 181.184 63.2654C180.579 62.2623 179.52 61.3261 179.382 60.1802C179.886 59.5547 180.219 60.2124 180.829 59.6338C180.956 59.513 180.808 59.1757 181.289 58.7262C182.704 59.062 184.044 62.2307 185.404 62.8517C185.444 62.8343 185.473 62.8186 185.493 62.8044C185.461 62.7704 185.428 62.7403 185.395 62.7147C184.923 62.6786 185.71 62.6531 185.493 62.8044C186.265 63.6223 186.583 66.7549 187.804 67.0692C188.542 66.3423 188.506 65.0799 188.608 64.0227C189.72 64.8462 190.149 64.8301 191.452 65.1782C192.113 66.2015 190.506 68.195 190.718 69.349C191.146 71.6521 188.374 72.2946 187.633 74.7434C187.89 76.5594 191.144 78.1448 192.557 79.3549C195.716 82.0606 193.446 81.6763 193.868 85.3401C194.488 86.0709 195.206 86.6217 195.04 87.601L194.368 88.0311C193.352 89.9818 197.01 89.9805 197.033 91.9796C197.034 92.0999 197.393 93.527 197.441 93.7491C198.09 94.2101 198.579 94.5195 199.126 95.1073L199.02 95.5381C198.794 95.6704 198.078 96.0483 198.034 96.2534C197.793 97.3798 198.566 99.7732 198.68 100.777C198.874 102.472 199.953 102.614 200.232 103.814L199.956 104.001C198.998 104.068 197.607 103.695 196.625 103.481C199.385 106.932 198.397 106.493 200.826 110.745C197.907 113.357 200.573 116.163 198.055 118.825C198.044 120.383 198.244 122.154 198.381 123.723C197.434 123.491 197.827 123.144 196.876 122.926C197.837 126.667 197.032 125.545 196.314 128.348C195.525 131.437 195.589 133.812 193.942 136.768C193.899 136.843 193.476 141.617 193.303 142.436C193.276 142.471 193.254 142.5 193.237 142.523C193.214 142.611 193.137 142.665 193.237 142.523C193.267 142.414 193.214 142.253 192.626 142.359C191.65 143.287 192.489 145.644 192.061 146.748C189.496 153.402 191.113 160.29 189.712 167.22C189.38 168.852 188.874 170.994 188.337 172.586C186.441 178.194 188.038 184.124 187.646 189.992C187.317 195.173 185.09 200.445 183.714 205.451C180.963 215.16 176.292 222.429 170.345 230.284C165.638 236.497 161.182 242.05 155.709 247.622L147.462 256.046C146.755 256.755 145.419 258.006 144.163 259.314C142.448 261.1 141.376 261.957 139.6 263.514C137.824 265.07 133.033 266.576 128.345 268.224C122.402 270.312 118.7 269.508 112.378 269.955C105.392 270.449 93.3296 267.648 88.9 265.539C82.6723 262.574 73.9931 255.779 62.366 242.943C53.0642 232.675 48.8314 226.662 47.8778 224.939L40.6003 211.457L39.6219 209.682L35.4268 195.558C34.5298 195.785 32.4055 195.97 31.0835 194.888C29.7616 193.806 26.928 188.727 25.6764 186.323L17.3223 162.927C15.9371 158.329 13.8043 153.2 13.219 148.446C12.7329 144.496 12.9891 140.141 12.409 136.086C11.9712 133.025 13.1946 132.153 12.3242 128.686C9.39067 126.649 11.4261 124.458 10.5267 122.957C9.97804 122.894 9.76681 123.176 9.20079 123.53C9.79062 121.252 10.2344 119.136 10.6964 116.834C10.8095 115.933 11.8451 113.595 11.7976 112.795C11.5991 109.44 11.9757 106.957 12.8239 103.829C13.0403 103.031 11.6698 99.3986 11.8074 98.1397C12.0809 95.6371 13.1251 94.5695 12.0239 92.2651C14.1417 87.5545 13.7267 85.2485 14.7671 80.9991C16.5272 77.0465 18.6511 70.3757 21.1995 66.9095C27.2986 58.6139 34.7696 48.6866 43.4124 42.9362C46.1141 41.1389 49.9805 39.2513 52.7485 37.7605C56.9165 35.5159 60.3279 34.3102 64.0423 31.0966C70.2778 26.4819 76.0046 24.9637 83.4595 23.109Z" fill="#E35619"/>
<path d="M133.779 74.5005C132.84 73.9899 131.937 73.337 130.911 73.3312C130.61 73.9262 130.479 74.473 129.829 74.6527C128.209 75.1005 126.015 72.7758 124.306 72.801C122.291 73.9402 121.978 74.1045 119.693 74.2482C116.595 78.2104 115.414 75.5465 114.244 76.6751C111.408 79.4106 104.6 87.0147 102.117 89.9696C94.1212 99.4869 86.7775 110.253 74.786 114.828C71.4137 116.093 69.2609 117.044 65.4645 117.368C64.1915 117.476 59.1125 117.641 58.3005 117.011C58.1656 116.879 57.9176 116.559 58.005 116.33C58.0925 116.1 58.6698 116.079 58.9475 116.098L63.2397 116.132C70.8995 116.446 80.7029 110.938 86.3596 105.918C91.7198 101.161 95.815 95.7581 100.033 90.0335C102.118 87.2028 103.531 86.0201 105.384 82.6896C104.398 83.6323 103.21 85.2826 102.098 85.3253L102.086 85.3148C101.73 84.9841 101.647 84.9063 101.349 84.5194C100.687 84.613 94.715 90.7449 93.5412 91.7224C91.1311 93.7294 89.5446 95.9503 86.5575 97.6121L86.6722 97.3987C88.0447 94.8815 96.1846 88.0172 95.9845 86.9029C94.8163 87.3357 92.6089 89.5823 91.6709 90.5384C88.9962 93.2647 86.2329 95.8992 83.5401 98.6095C82.1052 100.054 80.8619 101.783 79.2929 103.085C71.5336 108.239 61.5544 109.747 52.4309 108.446C49.7392 108.063 47.5952 107.5 44.9066 107.579C44.4962 109.336 45.1774 111.454 44.9576 112.081C43.5246 116.174 41.95 120.211 40.5348 124.325C39.6234 126.973 38.1617 129.496 37.8614 132.39C37.5463 135.561 38.2969 138.362 38.048 141.673C39.7144 144.071 39.0829 146.384 39.3552 149.186C39.7447 153.194 40.6465 157.133 39.7775 161.153C39.4361 162.733 39.0821 166.057 37.0582 166.068C34.9778 164.783 33.642 155.798 31.3155 153.627C30.8403 153.184 29.7965 149.605 29.1304 149.147C28.3665 149.794 28.3089 151.869 27.713 152.423C26.7714 151.126 27.6189 146.998 26.604 146.059C25.5736 146.645 25.844 148.045 25.0902 148.53C23.9873 147.628 24.5329 144.908 23.8495 143.898C23.1723 143.614 23.2995 143.534 22.7649 143.704C21.02 146.116 20.0507 148.997 20.486 151.991C20.6889 153.388 21.6748 155.989 21.5985 157.099L21.3139 157.242C19.8327 156.321 18.3 152.861 17.9202 151.141C17.0195 147.063 18.0354 145.97 15.8916 142.221C15.3108 145.982 15.0854 148.965 16.0531 152.772C16.9992 156.493 19.8274 159.958 21.3112 163.407C22.6355 166.701 22.9809 170.236 24.3736 173.52C25.6751 176.589 27.8148 179.553 29.0436 182.609C30.2536 185.618 28.4017 187.155 32.4101 188.617C33.2049 188.526 33.8507 188.468 34.6224 188.223C35.8389 187.837 37.4721 186.171 38.6093 186.547C39.5876 188.012 40.5401 194.185 41.2501 196.248C47.8433 215.415 58.2152 232.628 73.2016 246.42C74.3571 247.484 75.8309 249.316 76.9134 250.552C78.7296 252.565 85.44 256.027 87.2897 257.699L96.1163 261.359L104.779 263.38C110.86 265.064 115.136 264.613 121.226 263.97L121.695 263.92C123.288 263.752 124.857 263.255 126.44 263.041C130.103 262.545 134.636 260.721 137.819 258.855C142.145 256.319 143.9 252.987 146.99 249.362C149.736 246.139 152.627 243.042 155.247 239.711C160.812 232.634 175.677 211.579 177.729 203.411C179.028 198.235 179.638 192.493 179.775 187.154C179.834 184.829 179.513 182.259 179.843 179.971C179.953 179.219 180.258 178.68 180.666 178.052C180.25 176.306 179.832 174.629 179.097 172.976C178.126 170.797 176.49 168.963 175.541 166.793C176.906 167.569 178.373 168.715 179.573 169.297L179.72 169.136C178.99 166.505 178.647 166.081 178.389 163.359C177.744 162.627 176.589 161.457 176.265 160.602L176.312 160.119C177.485 159.431 179.422 161.889 180.827 162.195L180.989 162.001C180.627 159.549 178.449 158.305 176.94 156.672C176.348 156.032 177.764 155.639 176.454 154.835C171.695 151.913 168.2 149.901 162.88 148.403C160.465 149.335 157.921 150.844 155.621 151.803C152.588 153.069 140.149 154.832 138.085 151.863C138.199 151.314 138.058 151.526 138.529 151.21C139.189 151.133 142.468 151.245 142.979 151.43C145.144 152.215 161.119 151.224 156.586 146.603C154.891 144.875 147.868 149.497 146.347 146.23C145.615 145.832 143.328 145.908 142.646 146.271L142.568 146.615C142.952 147.138 143.297 147.386 143.239 147.897C142.681 148.208 142.636 148.21 142.019 148.229L141.961 148.231C141.729 148.118 141.427 147.97 141.054 147.788C139.075 147.749 136.619 148.622 134.78 149.201C133.368 149.645 132.514 150.314 131.425 151.057C132.229 148.448 133.434 146.957 134.946 144.693C133.345 145.583 130.324 147.846 129.338 149.344C129.755 152.143 129.891 153.496 129.874 156.383C128.269 154.21 126.335 151.588 126.817 148.779C127.292 146.016 129.585 142.115 131.502 140.105C130.234 138.728 130.074 138.325 128.356 137.782C128.662 137.067 128.978 136.273 129.334 135.589C130.482 135.618 131.883 135.757 132.914 135.297C133.527 134.582 133.46 134.595 132.884 133.744C133.013 133.157 137.108 128.467 137.736 127.89C140.651 127.194 143.711 126.713 145.854 124.532C149.292 125.201 150.732 124.688 154.078 124.626C154.934 124.61 156.805 125.768 158.02 125.286L157.985 124.685C158.225 124.421 163.463 123.069 164.212 122.955C166.358 122.628 169.514 124.882 171.449 124.517C172.189 123.203 169.792 120.781 170.466 118.734C171.254 118.286 172.371 119.125 173.148 119.539C173.05 118.733 172.797 117.501 173.092 116.822C173.54 116.409 173.915 116.454 174.551 116.396C175.307 114.446 175.202 112.25 176.198 109.846C174.495 107.862 174.534 103.282 173.925 100.754C173.644 99.5959 172.459 98.6222 172.142 97.3303C172.388 96.7628 173.013 96.015 172.813 95.617C171.787 93.5824 171.093 92.264 169.905 90.3158C169.912 90.3294 170.206 89.2095 170.179 89.1734C169.807 88.6511 166.476 87.519 166.198 87.2861C165.855 86.998 164.659 85.3559 164.007 85.0381C160.844 83.4977 155.33 80.1239 152.396 78.9273C148.119 77.1843 147.054 75.7416 143.363 74.1028C140.71 74.767 140.977 73.9686 138.786 72.9414C136.43 73.1579 135.956 73.398 133.89 74.4447L133.779 74.5005Z" fill="#F8F8F7"/>
<path d="M152.464 186.228C153.862 186.244 160.304 192.581 161.666 193.974C162.553 194.883 163.978 197.67 165.003 198.819C165.608 199.497 167.444 201.822 167.518 202.715C166.677 203.158 166.166 201.865 164.929 202.166C162.804 202.656 161.481 204.934 159.242 205.205C158.058 205.331 156.159 204.747 155.159 205.58C152.335 207.936 150.23 211.568 148.046 214.5C146.684 216.337 145.176 218.061 143.537 219.656C133.074 229.746 112.388 228.74 100.046 222.282C97.4451 220.922 92.1142 215.906 90.0129 213.726C87.2119 210.674 83.3691 205.859 78.8597 205.621C78.0141 205.577 75.824 205.745 75.7163 204.479C76.2647 204.13 82.406 204.207 83.7002 204.082C93.0688 203.176 102.281 202.476 111.703 202.41C113.72 202.395 121.503 203.669 122.445 203.517C123.318 202.71 125.436 202.708 126.696 202.448C135.368 200.661 143.858 201.54 152.592 201.937C155.151 202.052 161.509 203.35 163 200.966C162.885 198.958 158.193 196.575 156.882 194.556L156.96 194.287C157.538 194.328 157.871 194.403 158.409 194.227C158.278 192.605 152.808 188.128 152.464 186.228Z" fill="#E35619"/>
<path d="M91.04 206.281C92.6903 207.055 93.7746 208.272 95.0276 209.559C95.0143 208.516 94.9456 207.377 94.9047 206.327C96.5288 207.671 98.0212 209.32 99.5785 210.794L99.428 206.867C101.976 207.851 102.972 208.246 104.977 210.057C105.58 208.647 106.509 206.343 108.208 206.173C110.263 206.639 110.474 209.338 112.085 209.48C112.613 209.115 113.719 206.9 114.1 206.22C116.1 206.596 117.486 206.863 119.333 207.709C119.691 208.364 120.071 209.185 120.407 209.867C121.106 209.187 122.115 207.893 122.768 207.104C124.326 206.852 125.931 206.759 127.507 206.639C128.252 207.876 128.824 209.113 129.447 210.408C129.999 209.48 131.315 207.795 132.294 207.35C134.152 206.501 134.828 208.866 135.311 210.046L135.531 210.253C136.637 209.976 138.823 207.137 139.773 206.097C139.483 209.515 139.442 211.182 138.02 214.352C137.266 214.767 134.634 216.219 133.947 216.256C132.818 216.318 131.364 215.831 129.829 216.011C127.59 216.276 125.506 216.949 123.268 217.078C122.241 217.073 121.689 216.259 120.608 216.581C117.352 217.548 115.33 217.412 112.153 216.509C111.59 216.35 108.752 217.153 107.685 216.879C106.053 216.46 105.856 215.844 104.944 214.584C101.501 216.02 101.635 215.927 99.5402 212.928L97.7353 214.363C97.4707 214.073 97.1442 213.704 96.8667 213.435C93.7909 210.456 91.39 211.295 91.04 206.281Z" fill="#F8F8F7"/>
<path d="M122.913 220.199C123.765 220.232 130.531 221.315 131.55 221.508C130.775 221.886 129.748 222.257 128.911 222.58C127.222 223.263 124.542 223.916 122.73 224.355C122.631 222.972 122.795 221.59 122.913 220.199Z" fill="#F8F8F7"/>
<path d="M108.31 218.627C111.841 220.197 112.267 221.683 114.135 225.093L112.461 224.257C110.181 223.07 108.005 221.918 105.648 220.883L108.31 218.627Z" fill="#F8F8F7"/>
<path d="M116.349 219.268C117.955 219.486 119.548 222.337 119.496 223.902C118.277 223.704 116.643 220.451 116.349 219.268Z" fill="#F8F8F7"/>
<path d="M142.12 208.232L142.317 208.416C142.554 209.127 142.565 209.892 142.25 210.581C141.84 209.047 141.023 209.788 142.12 208.232Z" fill="#F8F8F7"/>
<path d="M65.605 126.054L65.9344 126.095L66.1107 126.326C65.87 127.11 65.0538 128.1 64.5421 128.799C65.3144 128.341 65.6486 127.966 66.5189 127.893L66.5669 128.21C66.1942 128.677 65.9426 128.908 65.5064 129.321C67.0007 128.699 67.619 128.4 69.029 127.587C71.5165 128.294 71.9123 127.002 74.309 127.552C75.9392 127.927 78.1209 127.258 79.9558 127.093C86.4265 126.586 94.5038 126.049 100.171 129.832C102.844 131.617 103.046 133.199 101.172 135.703C99.4267 134.247 98.3514 133.32 96.2355 132.378L96.3723 134.921C93.7605 133.808 89.9482 132.651 87.1187 132.612C85.9008 132.604 82.0845 131.916 81.4481 132.226C81.6974 132.757 82.8943 133.223 83.5017 133.525C81.98 133.071 77.2491 131.292 76.1609 132.315L76.2987 133.033C75.0021 133.13 73.8129 133.087 72.4628 133.225C69.0303 133.576 67.0128 134.812 63.974 136.062L63.9089 136.29L64.6219 136.919C63.7208 137.509 61.844 136.413 60.6396 137.938C60.7873 138.387 62.3294 139.514 62.8104 139.911C61.3662 139.814 56.3748 138.64 54.9667 138.172C54.5256 137.494 55.2575 137.974 55.1002 137.01C54.4234 136.524 53.4656 136.584 52.5814 136.526C53.5429 135.635 55.0413 134.797 55.8641 133.933C56.7506 133.002 57.2685 131.494 58.4876 130.701C59.5693 129.998 61.4925 129.877 62.3845 129.11C63.6865 127.99 64.1162 127.12 65.605 126.054Z" fill="#E35619"/>
<path d="M81.3752 140.313C86.4095 139.525 94.4184 139.024 98.9588 141.529C99.6751 141.924 100.405 142.381 101.102 142.79C105.654 145.461 106.559 146.069 105.77 151.24C103.796 146.688 102.369 146.038 97.9561 143.717C98.8165 144.752 100.222 145.957 101.211 147.053C102.69 148.69 103.462 149.96 104.653 151.816C103.625 151.239 101.8 149.831 100.743 149.074C99.3579 149.071 98.9825 149.192 97.6974 148.583C95.905 148.076 96.4109 149.343 94.0371 149.011C92.0363 148.731 89.6304 148.475 87.6348 148.213C85.8917 147.907 85.9978 147.834 84.4554 146.873C83.935 146.548 83.8539 146.492 83.4164 146.627L83.3492 147.224L83.0895 147.414C81.2445 147.3 78.623 146.14 76.9307 146.374C72.6725 146.963 68.964 149.219 64.582 149.672C60.2722 150.117 56.6202 148.345 52.3295 148.362C51.9693 148.364 51.8036 148.133 51.63 147.87L51.8753 147.385C53.8262 146.256 59.2556 148.226 61.7332 148.274C63.7057 148.312 68.0618 148.156 69.2096 146.01C69.2784 145.882 69.0029 145.118 69.4428 144.77C73.0992 141.882 76.8678 140.916 81.3752 140.313Z" fill="#E35619"/>
<path d="M91.9026 142.808C92.9964 143.153 94.3957 143.857 94.7044 145.021C94.3468 145.545 94.0523 145.483 93.3165 145.701L93.1985 145.807C92.5834 145.951 91.4822 145.668 90.8076 145.544C91.1393 144.505 91.3341 143.745 91.9026 142.808Z" fill="#F8F8F7"/>
<path d="M82.3582 141.771C83.8512 141.791 84.1984 142.191 84.6679 143.542C83.9854 143.773 83.5266 143.808 82.8795 143.552C82.3335 142.789 82.4864 142.807 82.3582 141.771Z" fill="#F8F8F7"/>
<path d="M139.108 174.618C140.889 174.685 144.637 178.019 146.914 179.235C147.202 179.732 147.159 179.473 147.041 180.042C146.619 180.269 147.621 180.91 147.206 181.145C146.69 182.256 147.27 183.266 147.092 184.435C146.97 185.235 146.66 186.311 146.443 187.107L146.936 187.93L146.796 188.241C144.18 190.327 140.993 191.155 137.903 192.222C136.539 192.692 133.447 194.17 132.103 194.391C130.481 194.66 128.21 194.479 126.287 194.797C124.275 195.128 121.506 195.806 119.518 195.554C115.494 195.044 112.978 192.274 109.292 191.39C108.872 191.289 106.56 191.725 105.389 191.606C101.165 191.176 97.5754 189.236 94.8798 185.981C94.273 184.821 94.338 183.607 94.3605 182.33C95.2699 181.044 95.75 180.409 96.8482 179.23C96.8 180.397 96.2927 182.806 96.065 184.117C100.077 191.461 104.585 188.628 110.946 189.85C113.396 190.32 115.323 193.362 119.333 193.352C125.248 193.338 125.942 192.23 130.135 188.394C130.596 188.958 130.667 189.069 131.242 189.496C137.167 190.922 145.084 185.995 143.463 179.411C142.954 177.341 139.901 176.193 139.108 174.618Z" fill="#E35619"/>
<path d="M86.8757 184.254C87.5663 184.196 87.2822 184.101 87.7855 184.435C87.9847 185.249 87.6692 186.646 87.5226 187.531C79.9153 191.128 77.0232 196.343 72.7146 203.303C71.7666 204.833 70.9843 207.084 70.1959 208.776L69.7136 208.886L69.3952 208.678C67.8071 203.612 73.949 196.171 77.1082 192.561C79.5055 189.821 83.897 186.641 86.8757 184.254Z" fill="#E35619"/>
<path d="M73.38 149.772C75.4213 149.247 80.8952 152.825 83.6807 152.893C89.2222 153.028 94.0347 151.421 99.6183 150.805C100.911 151.357 102.742 151.753 102.915 153.213C100.861 154.337 101.037 153.074 99.5914 153.25C94.5332 153.867 88.7421 154.326 83.7889 155.332C81.2805 153.845 76.2927 151.85 73.6113 150.255C73.5343 150.094 73.4572 149.933 73.38 149.772Z" fill="#E35619"/>
<path d="M27.6781 159.992C29.0316 160.49 29.8215 164.303 30.7652 166.013C31.4844 166.412 32.3946 166.819 32.658 167.586C32.4489 168.212 32.6327 167.954 32.03 168.341C29.9845 168.994 29.5898 168.78 27.9633 167.522C27.0823 164.746 26.8938 162.777 27.6781 159.992Z" fill="#E35619"/>
<path d="M132.931 153.111C134.032 153.347 143.857 157.722 144.365 158.515C141.665 158.524 132.941 156.152 132.931 153.111Z" fill="#E35619"/>
<path d="M82.5579 101.94L82.9028 101.971C82.6543 102.537 82.2912 102.799 81.8363 103.225L81.4668 103.249C81.512 102.714 82.0554 102.408 82.5579 101.94Z" fill="#F8F8F7"/>
<path d="M150.741 131.833C151.606 131.599 152.176 131.745 153.048 131.83C154.335 131.956 158.588 130.525 159.311 131.685L158.937 132.389C160.259 132.654 162.056 131.81 163.496 132.534C163.008 132.926 162.938 132.97 162.577 133.469L162.721 133.766C163.264 134.052 166.275 134.599 167.361 134.926C166.496 135.473 165.399 136.074 164.781 136.858C164.828 137.576 165.346 136.836 165.995 137.742L165.863 138.537C166.398 138.989 167.485 139.071 168.236 139.203C168.845 139.765 169.527 140.344 170.16 140.88L170.093 141.66C171.394 143.342 174.277 140.009 175.271 141.528L174.909 142.33C175.197 142.736 176.769 143.576 177.3 143.885C176.679 145.59 177.347 145.125 177.563 146.98C177.047 148.171 175.32 148.341 174.161 148.39C170.532 148.544 167.082 148.347 163.711 146.887C168.287 146.737 168.428 147.25 172.637 145.398C173.219 145.072 173.506 144.814 173.672 144.229L173.415 143.983C171.996 143.601 170.491 144.713 169.061 145.221C165.17 146.604 164.079 144.651 161.319 142.514C160.299 141.726 157.912 140.487 156.723 139.889C153.159 138.096 144.496 137.868 140.935 139.431C139.195 140.196 137.85 141.654 135.278 142.61L134.894 142.223L134.754 142.615C134.848 142.16 136.271 140.881 136.702 140.444L135.038 139.471C139.254 134.757 144.741 132.876 150.741 131.833Z" fill="#F8F8F7"/>
<path d="M116.879 43.3468C118.934 43.5569 124.471 48.2721 126.747 49.5375C128.255 50.376 130.133 51.365 131.671 52.1891L131.651 52.3779C129.234 53.2423 125.44 48.4117 123.808 49.2326C124.065 50.0108 129.62 52.9744 130.919 53.7689C132.288 54.5816 134.537 56.374 135.849 57.398L135.796 57.5818C132.338 56.2092 128.38 53.4782 125.209 51.5219C121.848 49.4486 119.127 46.5673 115.941 44.1854C117.341 44.8891 118.319 45.4429 119.857 45.8225C118.894 44.9655 117.881 44.1596 116.879 43.3468Z" fill="#F8F8F7"/>
<path d="M103.433 45.5518C105.724 45.5119 106.314 45.4998 108.58 46.0303C109.652 46.2812 112.994 47.5368 113.523 47.5259L113.717 47.2253L114.047 46.5999C115.576 47.2642 119.21 49.4613 119.991 50.7527C119.22 51.3598 114.684 49.4453 113.536 49.0899C110.117 48.0312 106.747 46.9139 103.433 45.5518Z" fill="#F8F8F7"/>
<path d="M80.2714 73.3358L80.5391 73.2249L80.7629 73.6718C80.7251 74.7935 78.4783 75.978 77.611 77.3393C77.9078 77.7525 78.2255 77.7428 78.7945 77.9317C77.3706 78.4324 76.6249 78.7355 75.1213 78.9473C75.5797 78.3473 75.8257 78.1276 76.3707 77.6212L76.367 77.3003C75.9778 77.106 75.9118 77.0918 75.5719 76.8016C75.9459 76.2005 76.7276 76.0447 77.5156 75.5783L77.505 75.3227C76.7977 75.2387 76.3087 75.2448 75.6963 74.8893L75.727 74.6107C76.902 73.6174 78.7095 73.566 80.2714 73.3358Z" fill="#F8F8F7"/>
<path d="M50.9054 81.3133C51.2808 81.5019 51.2515 81.4978 51.4948 81.846C51.0955 84.2065 43.8516 86.1796 41.6227 86.881C41.2874 86.8398 41.3111 86.8285 41.054 86.6018C41.3263 84.8524 47.0977 83.753 48.6106 83.193C49.3209 82.9303 50.3528 81.8659 50.9054 81.3133Z" fill="#F8F8F7"/>
<path d="M88.3867 58.1234C89.3093 57.9867 95.7243 57.803 96.2567 58.2075L96.2031 58.2887C94.2798 58.8919 93.2691 58.9369 91.2971 59.2217C90.0766 59.3947 84.3043 60.6932 83.637 60.1511C84.1632 59.6959 87.4756 58.297 88.3867 58.1234Z" fill="#F8F8F7"/>
<path d="M46.9799 74.7505C47.3435 74.9769 47.1858 74.8386 47.4006 75.2239C45.7557 78.3034 42.2457 78.2923 39.1187 78.9637C38.7813 78.6486 38.8524 78.832 38.8341 78.4256C40.3568 77.1743 43.2202 76.7894 45.0495 76.0741C45.5256 75.8879 46.5429 75.0874 46.9799 74.7505Z" fill="#F8F8F7"/>
<path d="M171.977 150.387C175.266 149.949 177.885 150.187 179.085 153.616C177.453 153.364 173.466 151.279 171.977 150.387Z" fill="#F8F8F7"/>
<path d="M49.0936 99.0949C50.6491 98.9008 55.9452 98.6973 56.9857 99.8208L56.8901 100.231C56.7788 100.26 56.6675 100.29 56.5561 100.319L56.3783 100.358C54.9143 100.687 50.1215 100.432 49.0408 99.4988L49.0936 99.0949Z" fill="#F8F8F7"/>
<path d="M48.9437 68.0184C49.4251 68.1244 49.7382 68.1355 50.0862 68.4775C49.3551 70.3982 45.5045 70.4983 43.9385 72.0806C43.7876 72.2478 43.5414 72.3996 43.3501 72.5351L43.2707 72.4239C44.3229 69.9456 46.5224 69.3242 48.9437 68.0184Z" fill="#F8F8F7"/>
<path d="M36.6437 75.5515L37.207 75.6285L37.339 75.9391C36.7895 77.9629 34.5185 79.23 32.8236 80.2983L32.3206 80.2616L32.1555 80.0501C32.3128 78.9751 35.2996 77.1825 36.6437 75.5515Z" fill="#F8F8F7"/>
<path d="M59.0598 55.0643L59.3743 55.1177C59.5453 55.3359 59.6253 55.5171 59.7148 55.7787C60.3097 55.8905 60.4479 55.8679 60.9938 55.6078L60.6517 55.9758L60.7158 55.9075C59.6228 57.088 59.9585 57.5866 59.376 59.13L58.5082 59.2437C57.885 58.7216 58.6665 58.9936 58.3898 57.8518L57.274 57.7624L57.1176 57.4884C57.4745 56.693 58.443 55.7393 59.0598 55.0643Z" fill="#F8F8F7"/>
<path d="M102.875 28.1655C103.778 28.0044 104.955 27.7688 105.662 28.4118L105.496 28.8034C105.085 29.1007 103.148 29.5543 102.677 29.5115C101.775 29.5788 100.183 30.1168 99.4855 29.4297C100.195 28.6824 101.873 28.3951 102.875 28.1655Z" fill="#F8F8F7"/>
<path d="M112.746 65.5461C112.544 65.6463 112.329 65.874 112.151 66.0356C110.616 66.1848 107.856 67.095 106.576 66.3381L106.592 66.0514C107.737 65.1774 111.512 64.9541 112.965 65.0653L112.746 65.5461Z" fill="#F8F8F7"/>
<path d="M90.2183 41.6618C90.7952 41.5294 91.4852 41.514 92.0559 41.6827L92.1589 41.9741C91.1171 42.8018 88.5878 42.8124 87.0133 43.2425L86.779 43.3075C86.2898 43.5657 86.1241 43.6511 85.6023 43.824L85.4716 43.6266C86.4484 42.2924 88.7199 41.9047 90.2183 41.6618Z" fill="#F8F8F7"/>
<path d="M47.2887 49.2939L47.5716 49.3318L47.6545 49.5581C45.2649 51.668 43.5542 51.8182 41.0709 54.4918C40.701 54.5115 40.8386 54.5302 40.4946 54.3802C40.8402 52.7098 44.3978 50.9821 45.8255 50.4085C45.9999 50.3385 47.0695 49.4715 47.2887 49.2939Z" fill="#F8F8F7"/>
<path d="M79.0599 46.7047C79.5215 46.7901 79.841 46.947 80.1405 47.3029L80.0438 47.6984C79.3051 48.3469 78.5789 48.4902 77.6378 48.7789L77.3295 48.9614L77.1102 48.8209C77.3224 47.913 78.3308 47.2056 79.0599 46.7047Z" fill="#F8F8F7"/>
<path d="M144.04 142.005C144.782 142.014 145.118 142.119 145.667 142.581C146.006 143.373 145.963 143.02 145.756 143.941C144.988 143.986 144.553 144.016 143.996 143.454C143.776 142.779 143.832 142.72 144.04 142.005Z" fill="#F8F8F7"/>
<path d="M42.6398 104.863C43.6721 105.093 46.3816 106.307 46.8418 107.281C46.2033 107.206 45.171 106.772 44.6029 106.454C43.5382 105.858 43.0189 105.932 42.6398 104.863Z" fill="#F8F8F7"/>
<path d="M114.66 66.2352L114.499 66.5424C113.529 67.0563 111.174 67.5903 110.065 67.7414C110.013 67.4993 110.033 67.6125 110.177 67.3067C111.733 66.4998 112.944 66.4259 114.66 66.2352Z" fill="#F8F8F7"/>
<path d="M35.1965 65.0542L35.4311 65.1809L35.4859 65.5206C35.0177 66.4538 34.0621 67.478 33.3655 68.2948L33.0797 68.2083L33.0247 67.8169C33.49 66.6965 34.2738 65.8208 35.1965 65.0542Z" fill="#F8F8F7"/>
<path d="M67.7706 62.0133L68.4324 62.2629L68.5918 62.6548C68.3362 63.3577 67.7172 63.764 67.1263 64.2722L66.9085 64.4825L66.6333 64.4309L66.5578 63.966C66.8575 63.0255 67.1402 62.7692 67.7706 62.0133Z" fill="#F8F8F7"/>
<path d="M75.4431 83.2975C76.2303 83.1532 78.2504 82.7595 78.9132 82.9729L78.6066 83.2305C77.7413 84.0263 76.5812 84.3545 75.5074 83.7742L75.4431 83.2975Z" fill="#F8F8F7"/>
<path d="M139.859 143.696C140.41 144.028 140.555 144.057 140.848 144.598C140.652 145.261 140.623 145.103 139.933 145.626C139.347 145.42 139.121 145.407 138.754 144.944C138.938 144.328 139.3 144.186 139.859 143.696Z" fill="#F8F8F7"/>
<path d="M112.965 65.0654C113.785 64.2502 116.487 64.1635 117.608 64.1895C116.612 64.5352 113.596 65.738 112.746 65.5462L112.965 65.0654Z" fill="#F8F8F7"/>
<path d="M77.8159 85.3396C78.332 85.4041 78.6838 85.3939 79.1104 85.6857C78.6992 86.1721 78.4645 86.1409 77.809 86.3822C77.2622 86.5005 76.7041 86.6716 76.2531 86.3593C76.6314 85.8189 77.2001 85.6376 77.8159 85.3396Z" fill="#F8F8F7"/>
<path d="M79.3631 95.9466L79.8412 96.0234C79.6688 96.8383 78.2847 97.7442 77.5882 98.282L77.2166 98.2667L77.1373 98.0229C77.6177 97.2923 78.6588 96.5241 79.3631 95.9466Z" fill="#F8F8F7"/>
<path d="M121.816 57.7775C122.983 57.7309 125.196 59.0838 126.226 59.6955L125.689 59.8185C124.301 59.1586 122.819 58.8592 121.816 57.7775Z" fill="#F8F8F7"/>
<path d="M124.407 52.6532C125.417 52.623 127.725 54.2535 128.291 55.0609C126.939 54.8136 125.392 53.5411 124.407 52.6532Z" fill="#F8F8F7"/>
<path d="M103.558 51.7008C104.318 51.4744 106.41 51.4931 107.067 51.9872C105.404 52.7228 105.069 52.5457 103.558 51.7008Z" fill="#F8F8F7"/>
<path d="M134.527 57.9537C135.598 58.1819 137.803 58.9371 138.132 60.0587C137.172 59.6148 134.952 58.7654 134.527 57.9537Z" fill="#F8F8F7"/>
<path d="M98.297 74.8586L98.6412 74.9977L98.6509 75.3318C98.1422 76.0656 97.5069 76.4762 96.7953 77.014C96.4861 76.8697 96.5996 76.9404 96.3717 76.6566C96.7236 75.9827 97.6569 75.3607 98.297 74.8586Z" fill="#F8F8F7"/>
<path d="M80.6213 76.6854C81.2029 76.5532 81.2913 76.5037 81.8658 76.5901L81.995 76.7985C81.6242 77.3124 81.2405 77.3551 80.6242 77.5555C80.2383 77.6389 79.8209 77.6687 79.4262 77.7096L79.3965 77.5758L80.6213 76.6854Z" fill="#F8F8F7"/>
<path d="M97.1409 32.6391C97.9263 32.4748 99.1058 32.229 99.8553 32.4361L99.9325 32.7644C99.1061 33.0366 98.1612 33.2618 97.3102 33.0311L97.1409 32.6391Z" fill="#F8F8F7"/>
<path d="M56.2689 73.0581L56.6709 73.15L56.7843 73.4126C56.4605 73.8808 55.6352 74.2734 55.1079 74.5773C54.9241 74.4914 54.9724 74.4819 54.8219 74.2756C55.1194 73.6997 55.7005 73.425 56.2689 73.0581Z" fill="#F8F8F7"/>
<path d="M110.848 45.3597C112.185 45.7793 112.807 45.9791 114.047 46.5999L113.717 47.2253C112.939 46.6521 111.69 45.9026 110.848 45.3597Z" fill="#F8F8F7"/>
<path d="M77.6964 71.6572C77.9563 71.8289 77.8623 71.7642 78.0259 72.0777C77.8268 72.7049 77.3996 72.9185 76.8564 73.3316L76.5915 72.9514C76.7766 72.2796 77.0903 72.1928 77.6964 71.6572Z" fill="#F8F8F7"/>
<path d="M111.896 32.4156C113.014 32.3756 113.778 32.4656 114.741 33.0921C113.495 33.2954 112.95 32.983 111.896 32.4156Z" fill="#F8F8F7"/>
<path d="M69.4859 44.0085L69.6703 44.2355C69.3688 44.8815 68.8668 45.1894 68.2999 45.6458L68.0952 45.4336C68.3201 44.8253 68.9503 44.4383 69.4859 44.0085Z" fill="#F8F8F7"/>
<path d="M133.331 52.9623C134.162 52.9732 135.182 53.3589 135.941 53.6753C134.812 53.8879 134.357 53.5047 133.331 52.9623Z" fill="#F8F8F7"/>
<path d="M263.506 215.343C250.777 210.899 238.046 195.901 233.271 188.958L219.897 155.064L219.118 119.521L231.063 88.2297L270.39 28.3294L305.948 9.42658L337.563 11.0676L364.234 62.7933L370.669 130.889L352.854 182.492L321.006 214.082C307.143 216.354 276.235 219.787 263.506 215.343Z" fill="#F8F8F7"/>
<path d="M283.97 5.99594C287.644 3.81499 299.128 -0.637126 303.331 0.0766162C307.488 0.921123 309.123 1.39833 312.74 3.6882C323.769 -0.0385887 332.177 -0.478554 342.675 5.05229C352.265 10.1046 355.005 17.0566 363.135 24.2735C366.633 27.9742 370.1 32.4379 372.979 36.6263C377.453 45.7791 379.197 50.1976 381.288 57.6425C384.808 64.7486 384.898 73.4349 387.305 80.8995C389.452 87.5594 390.901 92.6667 391.864 99.6283C392.665 105.411 393.757 110.459 393.992 116.39L392.983 147.466C393.08 150.081 392.439 153.125 392.733 155.699C394.582 171.907 391.315 187.593 393.042 203.774C393.269 209.063 393.734 215.171 393.317 220.413C392.728 227.807 391.919 233.885 393.142 241.294C394.27 248.125 396.959 253.711 398.892 260.076C395.171 258.422 393.048 255.878 389.127 254.021C381.961 261.569 387.217 262.59 378.252 267.865C371.707 271.715 368.822 272.048 361.586 272.885L361.215 272.927C358.719 273.216 354.232 273.293 352.065 273.316C350.346 273.335 347.133 273.596 342.409 273.868C340.744 273.964 336.785 274.214 335.213 274.53C333.109 268.473 329.748 268.373 328.225 261.979C327.552 259.153 326.067 256.189 325.455 253.302C323.717 245.938 323.095 237.935 322.001 230.392L297.175 226.516L266.805 217.55C263.628 215.594 260.007 213.616 256.739 211.737C262.7 213.387 274.782 217.234 280.801 216.736C285.842 215.375 292.214 213.631 296.944 211.619C301.112 209.848 308.625 207.92 312.091 205.553C319.062 200.793 325.178 195.085 330.993 189.015C331.917 188.05 337.04 180.667 337.772 179.2L344.382 166.406C345.366 164.468 346.672 161.072 347.456 159.155C349.67 153.747 349.394 148.338 351.717 142.938C351.717 137.265 353.004 132.735 353.004 126.493C352.052 121.834 351.947 116.776 351.726 112.029C348.935 110.071 346.226 108.143 343.329 106.342C339.536 103.985 336.02 103.852 331.677 103.824C329.89 103.86 319.095 104.541 317.636 104.982C316.371 105.364 307.425 112.5 306.058 113.714C305.739 113.997 303.026 115.864 302.801 116.138C301.084 118.228 300.172 121.188 298.665 123.573C299.213 120.179 300.148 116.849 300.829 113.498C301.567 109.864 303.958 107.835 305.846 104.824C307.369 102.182 307.619 100.415 310.136 98.2548C313.998 97.7673 319.479 97.0337 323.388 97.0612C327.107 97.0872 335.671 97.6541 339.185 98.5031C343.04 99.4345 348.904 104.655 351.421 107.738C349.937 96.0136 349.853 84.7672 344.921 73.6543C343.567 70.6009 341.561 67.5715 339.836 64.7302C337.636 61.1079 335.641 57.3233 332.17 54.7476C331.166 54.0024 329.863 53.0103 328.741 52.512C326.651 51.5851 324.348 50.7689 322.198 49.9494C318.494 48.5282 314.804 47.0687 311.13 45.5717C309.271 44.8097 306.329 43.6548 304.813 42.4145C303.661 41.4727 301.342 38.1498 300.745 36.788C301.018 31.7518 304.614 20.7568 306.27 15.7096C304.086 19.1019 302.562 21.914 300.982 25.6201C300.061 27.781 298.354 34.0618 297.251 35.6269L297.056 35.7364C293.462 37.7341 288.625 38.7498 284.997 40.9875C281.261 43.292 277.605 45.7341 273.9 48.0975L259.155 57.4703C256.067 59.4367 251.369 62.3003 248.618 64.7282C248.198 65.0985 245.95 69.156 245.497 69.9588C242.209 75.6592 239.169 81.4995 236.385 87.4634C233.815 92.8434 232.593 98.2563 230.234 103.708C227.823 116.138 226.394 121.067 226.447 129.905C226.432 135.473 226.498 141.041 226.649 146.606C226.736 150.134 227.212 156.845 227.823 160.022C228.599 164.062 230.822 170.473 232.247 174.582C233.025 176.823 236.738 184.429 236.689 186.208C239.598 191.142 243.363 196.792 246.782 201.407C248.536 203.779 250.353 207.449 252.338 209.571C248.291 206.792 243.046 201.256 239.273 198.018C236.426 201.446 233.373 204.684 230.459 208.051C229.067 209.656 227.626 211.949 225.971 213.258C224.233 214.634 202.016 221.003 197.843 222.173C199.943 217.236 200.816 213.361 202.084 208.153C203.529 202.216 205.49 196.34 206.566 190.297C206.996 187.926 207.247 185.124 207.524 182.706L208.806 171.543C210.905 152.31 212.452 133.219 215.686 114.111C216.952 106.636 217.279 99.0905 219.406 91.7293C221.149 85.2967 224.084 78.5069 226.833 72.3796L226.914 72.1983C230.439 64.3352 234.861 54.4722 239.778 47.3606C244.195 41.4282 249.5 36.0774 254.579 30.701C258.486 26.5644 262.63 22.3591 266.843 18.5472C269.913 16.1146 273.261 13.6804 276.506 11.49C278.733 9.98708 281.847 7.25642 283.97 5.99594Z" fill="#007CEF"/>
<path d="M247.872 152.089C247.35 152.191 247.543 152.061 247.258 152.469C247.448 153.477 249.238 158.292 249.699 159.617C250.905 163.087 251.916 167.289 253.194 170.6C255.327 170.926 256.643 171.683 258.921 172.374C263.637 173.802 268.315 176.844 273.103 178.032C277.951 178.986 283.738 180.251 288.619 180.722C294.344 181.275 291.716 180.654 299.565 182.502C294.505 183.525 287.203 185.324 282.041 185.895C280.341 186.082 274.772 184.429 272.794 183.962C271.423 183.239 265.187 182.445 264.238 181.717C261.446 179.568 255.837 173.7 253.433 171.337C253.873 172.491 255.202 175.512 255.817 176.478C257.035 178.394 261.403 184.221 262.972 185.436C264.279 186.061 269.164 187.25 270.719 187.653C274.965 188.736 279.195 189.877 283.408 191.073C288.913 188.696 295.042 187.553 300.548 185.143C301.803 184.595 317.058 173.866 317.544 173.044C317.826 172.567 317.873 172.153 317.744 171.63C317.048 171.011 315.38 170.585 314.464 170.285C305.039 167.191 295.883 163.145 286.517 159.919C285.698 159.637 278.75 160.162 277.289 160.175C270.589 154.503 271.158 155.531 262.459 154.281C257.591 153.592 252.728 152.861 247.872 152.089Z" fill="#007CEF"/>
<path d="M255.907 156.787C253.327 156.873 253.333 161.281 253.089 163.117C253.856 163.884 254.799 164.525 255.693 165.173L256.078 167.324C257.047 167.433 258.178 167.489 259.164 167.558L260.008 169.899C261.452 170.287 263.041 170.461 264.536 170.585L265.1 172.072C266.76 172.839 270.047 174.066 271.884 174.19C272.157 174.209 273.323 173.965 273.657 173.892L274.547 175.192C276.622 175.797 279.364 176.475 281.527 176.759C281.881 176.829 282.685 176.293 282.994 176.378C286.142 177.243 288.047 178.79 291.26 176.802C292.677 177.597 293.596 177.947 295.172 178.381C295.699 178.178 296.415 177.833 296.947 177.597C300.074 177.907 303.084 177.154 306.187 176.483C306.495 174.872 307.205 173.294 307.296 171.676C307.324 171.175 306.961 170.859 306.597 170.496C305.275 171.003 304.183 171.51 302.914 172.102L302.975 169.651C301.556 170.138 299.921 170.829 298.508 171.389L297.855 169.125C297.051 168.81 296.116 168.5 295.292 168.206C294.195 168.969 293.107 169.835 292.05 170.649C291.64 169.733 291.173 168.803 290.733 167.894L288.156 167.16C287.137 167.837 285.857 168.867 284.864 169.619C284.321 168.489 283.93 167.656 283.238 166.585C281.677 166.186 280.085 165.903 278.476 165.735C277.333 166.188 276.484 166.663 275.423 167.239C274.37 164.544 273.041 164.112 270.438 162.512C268.549 163.058 268.02 163.324 266.355 164.34C265.111 161.194 265.089 158.953 261.064 162.003C260.378 159.28 260.527 157.374 257.007 158.77L255.907 156.787Z" fill="#F8F8F7"/>
<path d="M256.039 78.6763C255.424 78.6391 250.848 79.6264 250.098 79.863C246.565 80.9769 243.864 80.9059 241.86 84.2315C245.464 83.7682 251.123 82.5446 254.654 83.5894C256.623 84.1724 258.508 85.4122 260.349 86.3341C262.591 87.4582 265.879 88.5112 267.797 90.1229C269.544 91.5921 274.974 102.514 276.445 105.239C271.923 100.076 266.92 95.9798 259.981 94.5733C258.482 94.2696 256.638 94.3825 255.103 94.4169C254.101 93.869 251.725 92.491 250.739 91.8668C251.09 92.6345 252.561 93.922 252.931 94.6794L250.61 94.7369C249.751 94.2494 247.771 92.9699 246.904 92.497L249.277 95.6179L243.809 96.3153C244.646 96.8058 246.312 97.27 247.159 97.7441C244.094 98.8117 242.69 98.2224 239.499 97.5117C245.137 101.902 246.037 99.1572 250.399 100.746C252.086 101.464 253.762 102.205 255.429 102.966C254.542 101.648 253.249 100.509 252.064 99.4586C254.317 98.4971 255.142 98.36 257.509 97.9972C255.506 103.484 257.544 104.477 262.401 105.547C263.6 105.811 264.805 106.165 266.045 106.396C268.137 105.639 268.595 104.986 269.916 103.185C270.859 104.345 271.344 105.103 272.133 106.356L268.13 106.811C272.032 108.329 272.758 108.715 276.168 111.134C275.418 107.737 274.781 106.426 273.406 103.28C277.478 106.233 277.464 106.876 279.763 111.325C280.338 109.607 281.869 104.642 281.536 103.082C281.172 101.379 280.642 99.3129 280.377 97.3629C280.755 96.6283 281.448 95.5963 281.906 94.8696C281.682 94.2499 281.302 93.4002 280.992 92.8255C280.139 91.2324 278.995 89.8128 277.62 88.6402C275.544 86.8954 273.683 86.1754 271.402 84.9494C266.172 82.1384 261.76 80.3523 256.039 78.6763Z" fill="#007CEF"/>
<path d="M323.457 111.509C318.235 110.972 313.717 111.717 309.849 115.385C308.889 116.295 307.032 117.392 305.87 118.361L305.875 118.602C306.889 119.065 309.29 118.123 311.032 118.232C313.225 118.368 314.364 118.521 316.518 118.948C315.172 118.11 314.173 117.504 312.984 116.442C315.008 115.228 316.977 114.791 319.229 114.212C318.733 119.378 319.451 120.459 324.697 121.003C326.241 121.163 328.282 121.53 329.839 121.756C331.786 122.061 334.549 122.09 336.324 122.767C338.472 123.586 339.975 125.341 342.496 125.539C343.743 125.638 345.522 126.052 346.86 126.006C346.556 125.549 342.243 124.18 341.412 122.909C340.98 122.25 340.573 121.572 340.154 120.801L344.086 120.148C342.928 119.852 340.185 119.587 339.176 119.182L339.074 118.898C339.501 118.265 341.346 117.775 342.065 117.345C340.809 117.372 338.131 117.614 337.133 116.948L337.103 116.689L340.021 115.777L339.958 115.581C338.472 115.119 335.227 114.651 333.974 113.991C330.82 112.33 326.996 111.724 323.457 111.509Z" fill="#007CEF"/>
<path d="M332.475 117.53C332.309 117.763 331.426 120.113 331.223 120.605C331.922 120.561 332.663 120.482 333.365 120.418C333.89 120.368 334.441 120.293 334.967 120.231L332.475 117.53Z" fill="#F8F8F7"/>
<path d="M300.692 141.917L300.6 142.004C300.424 142.855 302.249 145.451 302.275 146.555C302.308 147.962 302 149.112 301.726 150.488C300.453 151.711 298.443 153.262 296.998 154.292C294.607 153.51 290.902 151.373 288.645 151.004C287.382 150.797 281.834 152.6 280.353 153.014C279.343 152.742 275.455 151.81 274.784 151.256C272.637 149.485 271.218 146.529 268.453 145.322C266.833 144.615 265.209 144.219 263.488 143.826C265.286 146.765 274.468 154.676 277.802 156.384C282.941 156.174 288.249 156.248 293.315 155.972C296.638 155.95 300.272 154.52 303.552 153.535L304.609 151.094C305.034 151.222 304.904 151.37 305.042 151.517C306.944 153.56 316.687 167.135 317.107 169.176C317.654 171.836 316.972 174.755 316.905 177.452C318.213 175.014 318.874 172.377 319.582 169.724C318.402 167.275 315.745 163.571 314.266 161.067C312.815 158.527 311.14 155.984 309.764 153.437C307.377 149.02 304.138 145.548 300.692 141.917Z" fill="#007CEF"/>
<path d="M268.105 130.829C266.811 131.353 263.434 132.259 262.858 132.53C259.465 134.125 253.335 137.885 250.37 139.83C249.054 140.692 243.646 147.811 242.991 149.208C243.181 151.562 243.737 154.916 244.086 157.293C244.293 156.189 244.473 155.055 244.664 153.946C244.915 152.857 245.321 150.036 245.541 149.185C246.81 144.263 256.63 138.88 260.933 136.307C260.906 138.406 261.067 139.53 261.633 141.538C261.962 138.992 262.182 136.189 264.21 134.335C265.272 133.363 267.323 131.967 268.105 130.829Z" fill="#007CEF"/>
<path d="M308.127 119.928C307.709 119.891 307.897 119.853 307.537 120.016C308.037 120.611 314.478 123.491 315.658 124.259C320.951 127.701 329.345 126.656 335.473 126.668C335.786 126.714 335.782 126.69 336.09 126.597C334.641 125.621 325.117 125.257 322.599 124.557C317.033 123.011 313.932 120.921 308.127 119.928Z" fill="#007CEF"/>
<path d="M246.733 103.136C246.624 103.188 246.685 103.143 246.617 103.331C247.074 103.778 247.636 104.144 248.198 104.476C251.559 106.48 254.44 109.371 258.361 110.207C263.185 111.235 267.88 111.719 272.782 112.053L272.948 111.969C272.511 111.193 269.191 110.071 268.257 109.859C265.086 108.882 260.474 108.945 257.407 107.875C254.084 106.717 250.049 104.581 246.733 103.136Z" fill="#007CEF"/>
</svg>
