<svg width="360" height="92" viewBox="0 0 360 92" fill="none" xmlns="http://www.w3.org/2000/svg">
<path d="M262.853 14.6544L262.865 14.8544C263.205 17.1422 263.526 19.1299 262.748 21.1846C261.267 24.8878 261.81 28.8694 261.147 32.8239C261.008 33.8361 261.35 34.5178 262.593 35.1449C267.163 37.6774 267.011 38.4895 262.176 41.4933C260.53 42.4965 259.409 43.8694 259.643 46.0633C260.125 49.0449 259.702 51.9813 259.278 54.9177C259.075 56.5358 258.879 58.254 258.776 59.8661C258.731 60.7722 258.791 61.7721 258.846 62.6721C258.992 65.072 259.144 67.5719 258.39 70.0265C257.799 71.869 256.978 73.2237 254.866 73.1513C252.36 73.2032 251.511 72.4519 251.153 69.8641C250.832 67.8763 251.104 65.7521 251.383 63.7279C251.464 63.4218 251.44 63.0218 251.522 62.7158C252.312 57.5491 252.49 52.2189 253.274 46.9522C253.413 45.9401 253.246 44.8462 251.64 44.8434C249.734 44.8589 248.165 45.4561 246.595 46.0534C245.225 46.6384 243.85 47.1235 242.256 47.3207C241.562 47.4633 241.023 48.4997 240.665 49.224C237.775 54.5183 235.51 60.1761 233.762 66.1035C233.511 66.9217 233.199 70.052 232.542 70.7945C232.454 71.0006 232.06 71.1249 231.76 71.1431C231.254 71.0735 231.312 70.3675 231.281 69.8675L231.263 69.5675C231.726 65.6251 233.504 60.1976 234.579 56.4188C235.076 54.6824 235.684 53.1399 236.387 51.4913C236.908 50.1549 235.553 49.3339 234.617 48.7886L234.517 48.7947C233.693 48.4434 232.881 48.292 232.15 47.8345C231.314 47.2832 230.177 46.75 230.11 45.6501C230.119 44.1441 231.165 43.1772 232.316 42.3043C232.804 42.074 233.404 42.0375 234.004 42.001L234.404 41.9767C238.085 41.4519 239.976 39.5304 241.369 36.0333C243.698 29.7694 246.44 23.6812 250.517 18.114C251.444 16.8532 251.547 15.2412 252.268 13.8926C252.965 12.144 253.955 10.2772 255.813 9.46178C257.476 8.75848 259.494 8.93693 261.255 9.83358C262.492 10.3606 262.558 11.4606 262.625 12.5606L262.68 13.4605C262.71 13.9605 262.841 14.4544 262.853 14.6544ZM254.357 20.189C254.175 20.5012 253.887 20.7194 253.7 20.9316C253.236 21.5619 252.973 22.1801 252.703 22.6983C250.777 27.3319 247.395 31.1506 246.087 36.0476C245.912 36.4598 245.536 36.8841 245.26 37.3023C244.597 37.9448 244.033 38.5812 244.67 39.1448C245.312 39.8083 246.082 39.2597 246.851 38.7111C247.333 38.3807 247.915 38.0442 248.409 37.9139C248.903 37.7835 249.297 37.6592 249.678 37.3349C250.254 36.8984 250.966 37.0559 251.672 37.1133C252.69 37.3525 253.602 37.4978 254.336 36.3493C254.975 35.3067 254.808 34.2129 254.747 33.2129C254.605 32.519 254.468 31.9251 254.626 31.213C255.425 27.8523 256.118 24.3977 255.506 20.9222C255.481 20.5222 255.463 20.2222 255.745 19.904C255.933 19.6918 255.914 19.3918 255.896 19.0918C255.76 18.4979 255.629 18.004 255.254 18.4283C254.972 18.7465 254.996 19.1465 254.721 19.5647C254.639 19.8708 254.545 19.9769 254.357 20.189Z" fill="#111917"/>
<path d="M319.647 58.7762C323.446 58.5452 322.226 63.2362 320.726 63.3274C319.026 63.4307 315.845 67.2372 313.376 67.8891C309.636 69.12 300.406 69.1792 300.169 65.2793C300.042 63.1794 298.699 62.5584 297.811 62.8131C296.924 63.0678 295.678 64.0468 294.827 64.9014C291.276 69.2322 286.316 71.8421 281.668 71.3217C274.883 70.3289 274.743 68.029 274.433 62.9292L274.379 62.0292C274.342 61.4292 276.117 57.6078 276.014 55.9079C275.813 52.608 275.719 49.402 277.1 45.7049C278.569 41.8017 277.874 38.6322 278.325 34.4898C278.552 33.2716 278.792 32.2534 278.937 31.3413C279.497 28.9988 279.975 26.9624 279.499 24.0808C279.123 21.193 279.335 18.0688 279.564 15.2446C279.743 13.2264 279.927 11.3083 279.824 9.60834C279.709 7.7084 281.393 2.38704 283.201 0.771617C284.053 -0.0830475 287.44 -0.489674 288.331 0.96166C289.01 2.22515 287.95 4.59799 287.248 6.24656C287.166 6.55262 286.984 6.86477 286.896 7.07084C286.293 8.71333 286.485 10.2072 286.682 11.8011C286.891 13.5949 287.101 15.3888 286.316 17.3434C285.526 19.1981 285.705 20.4919 285.79 21.8919C285.975 23.2858 286.166 24.7796 285.075 26.6525C284.536 27.6889 284.652 29.5889 284.755 31.2888C284.828 32.4888 284.901 33.6887 284.643 34.4069C283.689 36.8737 283.796 40.2796 283.493 41.9039C281.419 49.0556 281.74 51.0434 282.041 54.3372C282.159 54.6311 282.177 54.9311 282.201 55.3311C282.38 56.6249 282.247 57.7371 282.114 58.8492C281.917 60.5673 281.809 62.0794 282.982 63.2126C284.054 64.3517 285.485 64.7666 286.954 64.1755C289.293 63.0297 290.548 63.8567 292.12 61.6535C294.432 58.4017 296.044 58.5044 295.856 55.4045L295.6 51.2047C295.424 48.3048 295.248 45.4049 296.314 43.132C297.732 40.0349 298.08 37.5046 300.14 35.071C302.288 32.4313 306.888 32.1517 308.1 32.2788C312.048 32.8417 316.376 34.6864 316.619 38.6863L316.807 41.7862C316.959 44.2861 313.211 47.023 312.021 48.9019C309.703 52.0538 304.501 53.9758 304.744 57.9757C304.847 59.6756 307.917 62.2993 309.629 62.396C313.059 62.6893 314.493 61.4982 315.932 60.4071C316.889 59.6463 317.947 58.8795 319.647 58.7762ZM305.572 48.4909C307.012 47.3998 306.99 45.3938 308.493 43.6966C309.238 42.748 310.014 42.2994 309.941 41.0995C309.898 40.3995 308.944 39.5542 308.201 38.8968C307.671 38.4272 307.183 38.6576 306.689 38.7879C306.395 38.9062 306.101 39.0244 305.801 39.0426C302.501 39.2432 301.405 44.3281 300.888 47.3705C300.812 47.7766 302.237 51.4035 305.572 48.4909Z" fill="#111917"/>
<path d="M336.085 69.4195C335.391 69.5621 333.498 69.7775 331.525 68.6931C328.103 66.8937 325.754 62.9214 326.329 59.1729C326.847 56.1305 327.583 53.3759 328.613 50.5031C330.666 44.6574 333.344 39.1753 336.84 33.9445C338.312 31.7474 340.327 30.2198 342.124 28.4044C344.202 26.2707 347.238 26.6884 349.787 27.3364C351.523 27.8331 353.002 29.048 354.463 29.9628C355.924 30.8777 356.009 32.2777 355.9 33.7898C355.879 35.0958 354.891 35.3566 353.791 35.4234C352.691 35.4903 352.125 34.4207 351.194 33.9754C348.709 32.7213 347.221 33.0125 345.337 35.034C342.131 38.4405 339.65 42.2044 338.324 46.8015C337.582 49.4561 336.228 51.9472 335.286 54.614C335.21 55.02 335.028 55.3322 334.853 55.7443C334.507 56.6686 334.062 57.599 334.229 58.6928C334.69 62.9805 337.754 62.1922 340.823 61.5038C341.317 61.3734 341.911 61.2369 342.405 61.1065C346.768 60.2392 347.441 58.0906 351.049 56.3658C353.389 55.22 353.31 53.92 355.024 52.4107C356.745 51.0013 358.485 49.892 359.357 51.0433C360.124 52.1007 359.458 54.3493 356.634 57.4315C355.319 58.9165 352.253 61.3109 350.92 62.496C349.781 63.5689 348.354 64.86 346.103 65.7997C341.894 67.561 340.067 68.8765 336.085 69.4195Z" fill="#111917"/>
<path d="M21.3151 46.3118C22.9151 46.2145 24.1697 47.0416 25.7879 47.2443C27.5061 47.441 29.8181 47.5012 31.5242 47.4979C32.4302 47.5432 33.2241 47.3946 34.0241 47.346C35.924 47.2305 37.6239 47.1272 39.5847 48.0117C40.615 48.4509 41.5514 48.9962 42.394 49.6475C43.5425 50.3807 45.8883 52.6469 45.3673 53.9833C44.9281 55.0136 43.0978 54.623 41.6796 54.4081C41.2675 54.2325 40.8614 54.1568 40.5614 54.175C39.9554 54.1115 39.3311 53.7479 38.7189 53.5844C36.2583 52.7303 33.8976 51.8701 31.3551 51.3221C26.3702 50.2199 21.3853 49.1178 16.2098 49.8338C11.7342 50.5072 10.7525 50.868 9.51388 55.259C8.678 58.0197 8.14819 60.8621 7.61838 63.7046C7.18857 66.5409 5.1798 68.1685 3.27103 69.79C2.31968 70.6508 0.358977 69.7663 0.279971 68.4663L0.200966 67.1664C0.0280413 65.9725 -0.144884 64.7786 0.194329 63.7543C1.18158 60.1815 2.27491 56.7026 3.36823 53.2237L4.87646 48.3145C5.29743 46.9842 5.93056 45.8417 6.24546 44.4174C6.40899 43.8053 6.26645 43.1114 6.22391 42.4114C6.09353 41.9175 6.05706 41.3175 6.1206 40.7115C6.46865 38.1812 7.62882 35.8022 7.6708 33.1902C7.70671 30.4781 7.37245 24.9783 7.02936 20.9845L6.81666 17.4846C6.73765 16.1847 6.95863 14.8665 7.89783 13.8057C8.2735 13.3815 8.73095 12.6511 9.23093 12.6207C10.9309 12.5174 14.1496 15.9349 13.5529 17.6774C12.7805 19.832 13.1662 24.5258 13.491 28.2196C13.5883 29.8195 13.7794 31.3134 13.7402 32.3195C13.7949 33.2194 14.7435 33.9647 15.5009 33.2161C16.4523 32.3554 17.2915 31.3007 18.1367 30.346C19.9212 28.3306 21.8178 26.5091 24.0448 25.1694C25.784 24.06 27.8535 23.4324 29.9717 23.6048C30.8777 23.6501 31.902 23.9893 32.3506 24.765C32.6931 25.4467 32.5478 26.3589 32.1904 27.0831C31.8208 27.6074 30.7938 28.8742 30.0938 28.9168C26.5939 29.1295 24.6702 32.157 21.9493 33.6271C19.7162 34.8669 18.1196 36.6701 16.8473 38.8551C16.2081 39.8976 15.6689 40.9341 15.1358 42.0705C14.7783 42.7948 14.433 43.7191 14.6816 44.5069C15.1606 45.7825 16.1727 45.9217 17.2909 46.1549C18.6091 46.3759 20.0152 46.3908 21.3151 46.3118Z" fill="#111917"/>
<path d="M50.4796 50.9627C50.4277 48.4567 51.8635 45.6596 51.9116 43.1475C52.0563 38.9233 53.2922 36.1383 54.0612 32.2777C54.6728 29.1292 60.1969 29.1949 59.861 31.9252C59.2738 35.4737 57.9865 39.0648 57.6263 41.3951C57.1208 44.6375 55.9032 47.7225 56.0037 51.0284C56.0645 52.0284 55.9314 53.1405 55.7982 54.2526C55.5259 56.3769 55.3535 58.495 56.1629 60.2524C56.4054 60.9402 57.1175 61.0977 57.5932 60.6673C61.3804 56.9244 64.9736 53.2935 67.6122 48.8174C71.8109 41.9381 73.7562 40.9166 77.7427 33.8494C79.736 30.3158 81.1205 28.3247 81.5023 28.0005C82.1719 27.4579 83.5597 27.1729 84.4779 27.4181C85.9021 27.733 86.4811 29.0026 86.0601 30.333C85.3425 33.3875 84.1066 36.1725 83.1829 39.1393L80.3908 49.3456C80.3968 49.4456 80.309 49.6516 80.3151 49.7516C79.9819 50.8759 79.5731 52.4062 81.0791 52.4151C81.9791 52.3604 83.2183 51.2814 83.7818 50.645C87.396 45.7081 90.6346 41.1956 93.3063 35.6134C95.7902 30.2434 97.7901 30.1219 99.59 30.0125L99.69 30.0064C101.496 29.997 103.863 30.9572 103.872 32.7632C103.994 34.7632 103.921 36.8752 103.825 38.5873C103.214 45.0479 103.902 48.1174 105.761 53.926C106.276 55.8016 108.01 57.9043 108.283 59.0921C108.531 59.88 108.098 61.0103 107.441 61.7528C106.789 62.5953 104.31 61.4412 103.556 60.5838C100.98 57.8298 100.588 56.348 98.3807 46.4456L98.3564 46.0456C98.2017 45.1518 98.0288 43.9579 96.5228 43.949C95.9228 43.9855 95.1775 44.9341 94.8018 45.3584C93.2931 46.9556 92.2147 49.0284 90.8119 50.7195C88.0004 54.0017 85.3889 57.2718 82.4714 60.4601C81.1565 61.9451 79.493 62.6484 77.3931 62.7761C75.5871 62.7855 73.9264 61.8827 73.723 60.1889C73.6987 59.7889 73.5684 59.295 73.544 58.895C73.359 57.5011 73.1678 56.0072 73.1827 54.6012L73.1523 54.1012C73.1976 53.1952 73.2125 51.7891 72.0308 52.1621C70.7613 52.7411 69.695 55.0139 68.8558 56.0686C67.0139 58.79 64.9598 61.3236 62.4936 63.6816C61.6423 64.5362 60.797 65.4909 59.7396 66.2577C57.2551 68.3157 53.1702 67.1588 51.494 64.3501C49.8056 61.3414 49.5929 57.8415 49.6984 54.6234C49.6377 53.6234 50.5404 51.9627 50.4796 50.9627ZM63.1007 15.8705C63.2222 17.8704 63.2255 19.5765 60.5439 20.0405C58.55 20.2621 54.9043 18.0749 55.6313 16.8263C56.1341 15.1899 57.7671 13.9866 59.4245 13.1833C60.882 12.3922 63.1913 14.0584 63.1007 15.8705Z" fill="#111917"/>
<path d="M125.18 82.6549C124.885 79.461 126.942 75.3214 129.711 71.3392C131.008 69.5542 131.886 67.4935 133.401 65.9963C136.249 63.3141 138.242 59.7805 139.111 55.9138C139.39 53.8895 139.474 51.9774 139.553 49.9653C139.534 49.6654 139.61 49.2593 139.686 48.8532C139.731 47.9472 139.87 46.9351 139.516 46.0533C139.212 44.3655 137.676 43.8567 136.873 45.5114C133.907 51.2117 128.708 54.8398 124.251 59.1253C123.5 59.9739 122.418 60.3407 121.437 60.7015C119.767 61.3048 116.176 60.0175 116.263 56.4994C116.429 50.9692 118.568 49.8356 119.676 44.9506C120.149 42.8143 122.139 40.8867 122.872 39.7381C123.587 38.2895 124.008 36.9592 124.735 35.7106C125.487 34.862 125.95 34.2317 126.389 33.2013C126.465 32.7952 126.523 32.0892 126.298 31.7014C125.85 30.9257 125.556 31.0439 125.062 31.1743L124.862 31.1865C123.18 31.5898 121.592 31.887 120.092 31.9782C117.892 32.1119 115.668 31.8456 113.356 31.7854C111.944 31.6705 109.792 29.2921 109.925 28.18C110.058 27.0679 112.937 24.8856 114.179 25.5127C117.183 27.0364 119.846 26.2723 122.603 25.4021C123.885 25.0231 125.267 24.6381 126.567 24.5591C130.742 23.9038 135.306 23.0243 139.563 22.063C140.557 21.9022 141.769 22.0293 142.787 22.2685C143.905 22.5016 144.603 24.0651 144.388 25.4833C143.997 27.3136 141.858 28.4473 140.258 28.5445C136.446 28.5755 134.574 30.797 132.32 33.3427L131.568 34.1913C129.045 37.2553 126.784 39.7011 125.403 43.3982C124.801 45.0407 123.937 45.6954 123.559 47.7257C123.565 47.8257 123.571 47.9257 123.483 48.1317C123.332 48.9439 123.111 50.2621 124.129 50.5013C125.041 50.6466 126.31 50.0676 127.074 49.419C128.225 48.5461 129.177 47.6853 129.898 46.3368C133.381 40.906 134.494 41.0391 139.12 36.2415C140.81 34.3322 141.352 31.6897 142.625 29.5047C143.358 28.3561 144.558 28.2832 145.594 28.8224C146.625 29.2616 146.716 30.7616 146.264 31.5919C143.732 36.1619 143.936 41.1679 144.228 45.9677C144.231 47.6737 144.328 49.2736 144.325 50.8797C144.286 51.8857 144.904 52.1492 145.774 51.5946C146.062 51.3763 146.35 51.1581 146.737 50.9338C148.113 50.4487 148.916 48.7941 150.155 47.7151C151.194 46.6483 154.158 45.866 154.661 47.5416C155.188 49.6173 153.286 51.3388 151.665 52.742C151.095 53.2785 150.62 53.7088 150.244 54.1331C149.029 55.6121 147.596 56.8032 146.163 57.9943C144.348 59.5098 143.97 61.5401 143.503 63.7765C142.683 68.4432 141.344 72.8402 140.83 77.5887C140.225 84.1493 134.608 87.5016 130.057 91.8932C129.963 91.9993 129.763 92.0114 129.457 91.9297L128.957 91.9601C127.769 92.233 125.59 91.0606 125.523 89.9607C125.487 89.3607 125.444 88.6607 125.502 87.9547C125.423 86.6547 125.425 85.0487 125.18 82.6549ZM131.025 84.7084C132.937 84.7929 136.054 78.2804 136.3 77.3622C136.621 76.0379 136.817 74.3198 135.957 73.3684C135.844 73.1745 135.738 73.0806 135.438 73.0988C135.338 73.1049 135.051 73.3231 134.969 73.6292C133.439 76.5324 132.021 79.6295 130.392 82.5388C130.216 82.951 129.952 83.5692 130.283 84.0509C130.513 84.5388 130.725 84.7266 131.025 84.7084Z" fill="#111917"/>
<path d="M208.873 61.3284C209.334 61.5683 209.534 61.9134 209.822 62.2531C210.194 62.4985 210.483 62.8382 210.588 63.0997C210.898 63.7954 210.659 64.2565 210.335 64.812C208.847 66.778 206.555 67.2746 204.589 65.7864C202.618 64.2093 200.641 62.5432 198.837 60.7773C197.41 59.3457 196.453 59.7612 195.177 60.8211C193.819 61.9754 192.187 63.057 190.74 64.2167C189.041 65.6596 187.127 66.4905 185.024 67.1542C178.814 69.3178 174.839 68.5769 172.597 62.5507C172.182 61.5935 172.044 57.8508 172.206 57.573C172.647 56.0279 173.499 55.3509 173.896 54.523C174.381 53.6897 174.594 52.7837 174.901 51.9612C175.594 50.1328 176.47 48.3827 178.101 47.3011C180.099 46.3759 183.215 41.8102 184.447 40.0384C185.356 38.8221 186.165 37.4333 184.136 33.4482C181.83 29.3014 183.078 24.8493 184.42 20.4808C184.711 19.3914 185.007 18.3909 185.215 17.3959C185.724 15.4894 186.627 14.1841 188.269 13.2805C189.126 12.6926 190.267 12.3553 191.108 11.5004C191.61 10.934 192.017 10.2841 192.607 9.71237C193.176 8.78468 194.311 8.35845 195.379 8.29355C196.53 8.13426 197.897 8.58704 198.836 9.33381C199.214 9.6681 199.658 9.64106 200.098 9.52504C200.454 9.50341 200.804 9.3928 201.266 9.63271C203.461 10.4817 202.601 12.4988 200.649 12.7068C199.937 12.7501 199.155 11.6365 198.621 11.669C198.087 11.7014 197.569 12.0008 196.968 12.3946C196.461 12.872 195.771 13.2712 194.892 13.5032C194.714 13.5141 194.452 13.6193 194.185 13.6355C193.384 13.6842 192.589 13.8218 192.198 14.7387C192.125 15.011 190.2 15.6639 189.58 17.2199C188.508 20.1431 188.478 21.1273 187.861 24.2014C187.249 27.3645 187.924 29.6456 188.599 31.9267C189.125 33.2344 189.718 34.1808 190.524 34.2211C191.592 34.1562 193.156 33.4359 193.585 33.142C194.342 32.3814 194.412 30.5909 195.164 29.7414C197.181 27.654 198.458 25.1649 199.947 23.1989C200.688 22.1715 200.639 21.3706 200.669 20.3864C200.636 19.8525 200.598 19.2296 200.733 18.5069L200.701 17.973C200.63 16.8162 200.544 15.3925 202.82 14.629C204.483 14.0814 204.953 15.9284 205.018 16.9962C205.242 19.2153 205.067 20.7443 204.474 22.7452C203.849 24.2122 202.767 25.5282 202.226 26.9008C201.169 30.0909 198.406 33.1169 196.238 35.66C194.249 38.1924 193.723 39.8319 194.46 41.6627C194.775 42.4473 195.784 44.3509 196.105 45.2245C196.421 46.0091 197.381 47.1118 198.004 47.0739C199.077 47.098 200.074 45.8764 200.821 44.9378C201.239 44.4659 201.573 44.0883 201.829 43.8941C202.916 42.6671 204.286 41.6907 205.666 40.8923C205.839 40.7925 206.095 40.5983 206.273 40.5875C206.901 40.6386 207.184 40.8894 207.478 41.318C207.583 41.5796 207.772 41.7467 207.877 42.0083C208.271 42.6095 208.67 43.2998 208.447 44.0278C208.379 44.3892 208.228 44.8449 207.894 45.2225C206.082 47.744 203.837 50.4705 203.576 53.523C203.511 55.4025 204.242 57.1443 205.391 58.4141C206.362 59.6948 207.662 60.5089 208.873 61.3284ZM192.197 54.3932C193.787 51.1706 192.873 49.3506 189.34 47.0646C188.04 46.2505 185.759 46.925 184.495 48.1629C183.063 49.5896 181.459 51.1161 180.227 52.8879C178.499 55.315 178.049 58.2003 179.028 61.0881C179.875 63.2694 182.857 62.3737 184.761 61.3648C187.694 59.6683 189.593 58.5705 191.388 55.782C191.717 55.3155 192.046 54.8489 192.197 54.3932Z" fill="#111917"/>
</svg>
