<svg width="181" height="251" viewBox="0 0 181 251" fill="none" xmlns="http://www.w3.org/2000/svg">
<path d="M38.3171 83.4837C39.9672 83.3524 41.2787 84.1821 42.9534 84.3601C44.7313 84.5299 47.1197 84.5474 48.8812 84.5109C49.8176 84.5402 50.6344 84.3714 51.4595 84.3057C53.419 84.1497 55.1722 84.0102 57.2138 84.8855C58.2862 85.3191 59.2636 85.864 60.1461 86.5202C61.3462 87.255 63.8122 89.5495 63.3001 90.9395C62.8665 92.0118 60.9691 91.6439 59.5006 91.4495C59.0717 91.2761 58.651 91.2058 58.3416 91.2304C57.7146 91.1765 57.0629 90.8133 56.4277 90.6562C53.8705 89.822 51.4164 88.9795 48.7806 88.4628C43.6122 87.4212 38.4439 86.3796 33.1139 87.2191C28.5058 88.001 27.4991 88.3925 26.3051 92.9503C25.4955 95.8169 25.0034 98.7621 24.5114 101.707C24.1224 104.644 22.0798 106.364 20.1403 108.075C19.1747 108.982 17.1331 108.107 17.0264 106.766L16.9197 105.425C16.718 104.196 16.5164 102.966 16.8468 101.902C17.797 98.1941 18.8586 94.5809 19.9202 90.9677L21.3825 85.8696C21.7915 84.4879 22.4231 83.296 22.7207 81.8193C22.8777 81.1841 22.7171 80.4704 22.6596 79.7484C22.5154 79.241 22.4662 78.6222 22.52 77.9952C22.8305 75.3759 23.9823 72.8971 23.9752 70.1993C23.9598 67.3983 23.5082 61.7261 23.0767 57.609L22.7894 53.9994C22.6827 52.6587 22.8853 51.2934 23.8346 50.18C24.2142 49.7346 24.6724 48.9716 25.1881 48.9306C26.9413 48.791 30.3308 52.2575 29.7485 54.0682C28.9927 56.3078 29.4817 61.1468 29.8885 64.9545C30.0199 66.6046 30.2462 68.1433 30.2251 69.1828C30.299 70.111 31.2929 70.8622 32.0605 70.0746C33.0261 69.1674 33.8722 68.0623 34.7265 67.0602C36.53 64.9447 38.4531 63.0273 40.7266 61.6009C42.5009 60.4218 44.6256 59.7337 46.816 59.8707C47.7524 59.9 48.8165 60.2304 49.2947 61.0226C49.6616 61.7199 49.5292 62.6645 49.1741 63.4193C48.8027 63.9678 47.7667 65.2956 47.0448 65.3531C43.4352 65.6404 41.5075 68.8037 38.7266 70.3742C36.4448 71.6975 34.8312 73.5903 33.5597 75.871C32.9199 76.9598 32.3832 78.0404 31.8547 79.2241C31.4997 79.9788 31.161 80.9398 31.433 81.7485C31.9522 83.0563 33 83.1805 34.159 83.3996C35.5244 83.6023 36.9764 83.5905 38.3171 83.4837Z" fill="#E35619"/>
<path d="M68.5202 87.7217C68.4181 85.1352 69.8466 82.2193 69.8476 79.6246C69.9153 75.2603 71.1375 72.3608 71.8569 68.3597C72.4274 65.0969 78.1325 65.0579 77.8385 67.8835C77.3008 71.5588 76.0411 75.2916 75.7143 77.7046C75.2551 81.0623 74.0575 84.2712 74.2253 87.6827C74.3074 88.714 74.1914 89.8649 74.0755 91.0158C73.8354 93.2144 73.6984 95.4048 74.5681 97.2037C74.8318 97.9092 75.5701 98.058 76.0529 97.6044C79.8909 93.6664 83.5307 89.848 86.1685 85.1752C90.3708 77.9909 92.3595 76.8986 96.3391 69.5244C98.3288 65.8373 99.7198 63.7547 100.108 63.4124C100.789 62.8393 102.216 62.5181 103.169 62.7536C104.645 63.0512 105.268 64.3509 104.859 65.7326C104.177 68.9005 102.955 71.7999 102.058 74.8811L99.373 85.4733C99.3812 85.5765 99.2945 85.7909 99.3027 85.8941C98.9805 87.0614 98.5879 88.6494 100.143 88.6294C101.071 88.5555 102.33 87.4174 102.899 86.7494C106.536 81.582 109.792 76.8601 112.443 71.0447C114.904 65.452 116.966 65.2878 118.823 65.14L118.926 65.1318C120.79 65.0871 123.253 66.0328 123.297 67.8974C123.462 69.96 123.428 72.1422 123.361 73.9118C122.855 80.5943 123.625 83.7504 125.657 89.712C126.225 91.6386 128.056 93.7762 128.361 94.9973C128.633 95.806 128.207 96.9815 127.543 97.7609C126.887 98.6434 124.305 97.4997 123.509 96.629C120.796 93.8352 120.363 92.3128 117.892 82.131L117.859 81.7185C117.682 80.7985 117.481 79.5692 115.925 79.5892C115.307 79.6384 114.555 80.6323 114.176 81.0777C112.649 82.756 111.575 84.9171 110.16 86.6904C107.32 90.1338 104.687 93.5607 101.736 96.9091C100.407 98.4679 98.7034 99.2263 96.5376 99.3987C94.6731 99.4433 92.9409 98.5433 92.6982 96.7983C92.6653 96.3858 92.5211 95.8783 92.4883 95.4658C92.2702 94.0302 92.044 92.4914 92.0322 91.0394L91.9911 90.5237C92.0204 89.5873 92.0086 88.1353 90.7956 88.5432C89.496 89.1656 88.439 91.533 87.5929 92.6382C85.7437 95.4838 83.6719 98.1395 81.171 100.622C80.3085 101.521 79.4542 102.523 78.3773 103.335C75.8518 105.508 71.6116 104.393 69.8266 101.525C68.0251 98.451 67.7378 94.8414 67.7845 91.5166C67.7024 90.4852 68.6023 88.753 68.5202 87.7217ZM80.8729 51.244C81.0371 53.3066 81.0735 55.068 78.3136 55.5991C76.2592 55.8664 72.4526 53.6786 73.1791 52.3753C73.6665 50.676 75.3295 49.402 77.0252 48.5405C78.5147 47.6954 80.9314 49.3712 80.8729 51.244Z" fill="#E35619"/>
<path d="M146.263 119C145.897 115.708 147.941 111.394 150.723 107.228C152.027 105.36 152.894 103.215 154.429 101.64C157.318 98.8156 159.308 95.1285 160.13 91.1192C160.379 89.0237 160.429 87.0478 160.471 84.9687C160.446 84.6593 160.517 84.2386 160.587 83.8179C160.616 82.8815 160.74 81.8337 160.357 80.9302C160.011 79.1934 158.415 78.6977 157.618 80.4217C154.666 86.3649 149.368 90.2115 144.85 94.7226C144.09 95.6134 142.98 96.0131 141.974 96.4045C140.261 97.0598 136.529 95.8001 136.551 92.1659C136.615 86.4526 138.802 85.2407 139.851 80.1754C140.298 77.9604 142.316 75.9317 143.051 74.7315C143.761 73.222 144.17 71.8403 144.896 70.537C145.656 69.6463 146.122 68.9864 146.556 67.9141C146.626 67.4933 146.671 66.7632 146.432 66.3671C145.954 65.5749 145.653 65.7026 145.146 65.8468L144.939 65.8632C143.211 66.3122 141.577 66.6498 140.03 66.773C137.761 66.9536 135.459 66.7217 133.071 66.7042C131.611 66.6129 129.343 64.1988 129.459 63.0479C129.575 61.8971 132.504 59.5881 133.8 60.2115C136.93 61.7267 139.665 60.8863 142.495 59.9345C143.811 59.5184 145.231 59.094 146.571 58.9873C150.87 58.23 155.565 57.2335 159.942 56.1586C160.965 55.9734 162.219 56.0811 163.275 56.3084C164.434 56.5275 165.184 58.1284 164.99 59.5968C164.622 61.4943 162.435 62.7062 160.785 62.8375C156.85 62.9432 154.959 65.2732 152.681 67.9454L151.922 68.8361C149.375 72.0486 147.089 74.6176 145.735 78.4617C145.144 80.1693 144.265 80.862 143.914 82.9656C143.922 83.0688 143.93 83.1719 143.843 83.3864C143.703 84.2278 143.5 85.5932 144.556 85.8205C145.501 85.9529 146.8 85.3305 147.576 84.646C148.748 83.7224 149.714 82.8153 150.432 81.4089C153.924 75.7341 155.075 75.8501 159.759 70.8069C161.468 68.8027 161.976 66.0639 163.247 63.7832C163.982 62.583 165.22 62.4845 166.3 63.0212C167.373 63.4548 167.496 65.0018 167.046 65.8678C164.519 70.6355 164.827 75.8003 165.221 80.7506C165.257 82.512 165.389 84.1622 165.417 85.8205C165.396 86.86 166.039 87.1201 166.926 86.5306C167.219 86.2997 167.512 86.0688 167.908 85.8297C169.319 85.3022 170.116 83.5783 171.375 82.4402C172.427 81.3186 175.472 80.4535 176.024 82.1739C176.609 84.3068 174.678 86.1211 173.031 87.6014C172.453 88.1663 171.971 88.6199 171.591 89.0653C170.365 90.6158 168.908 91.8734 167.452 93.131C165.607 94.7308 165.256 96.8345 164.818 99.1527C164.061 103.987 162.764 108.553 162.324 113.466C161.827 120.252 156.091 123.822 151.478 128.444C151.383 128.555 151.176 128.572 150.859 128.493L150.343 128.534C149.122 128.839 146.85 127.671 146.759 126.536C146.71 125.918 146.653 125.196 146.698 124.466C146.591 123.125 146.563 121.467 146.263 119ZM152.339 121.007C154.315 121.057 157.407 114.272 157.642 113.32C157.948 111.946 158.118 110.168 157.211 109.203C157.091 109.005 156.98 108.91 156.671 108.934C156.568 108.942 156.275 109.173 156.196 109.491C154.673 112.518 153.269 115.743 151.642 118.779C151.469 119.208 151.209 119.851 151.559 120.342C151.807 120.842 152.029 121.031 152.339 121.007Z" fill="#E35619"/>
<path d="M75.2466 120.288L75.2519 120.495C75.5189 122.869 75.7781 124.932 74.8996 127.024C73.2356 130.792 73.6506 134.921 72.8219 138.978C72.6412 140.017 72.9698 140.733 74.2292 141.426C78.8532 144.207 78.6673 145.039 73.5667 147.963C71.8321 148.938 70.625 150.314 70.786 152.587C71.1748 155.682 70.6302 158.697 70.0855 161.712C69.8171 163.374 69.5514 165.14 69.3864 166.8C69.3065 167.734 69.3327 168.768 69.3563 169.699C69.4191 172.181 69.4845 174.767 68.6165 177.272C67.9397 179.152 67.0429 180.52 64.8657 180.369C62.2775 180.331 61.4292 179.524 61.1543 176.84C60.8951 174.777 61.2538 172.595 61.6151 170.516C61.7107 170.203 61.7002 169.789 61.7958 169.476C62.8 164.173 63.1784 158.678 64.1799 153.271C64.3606 152.232 64.2284 151.097 62.571 151.035C60.6033 150.982 58.9616 151.541 57.3199 152.1C55.885 152.653 54.4475 153.104 52.7954 153.249C52.074 153.371 51.4796 154.421 51.0843 155.155C47.9082 160.514 45.3631 166.27 43.343 172.324C43.0537 173.159 42.6177 176.378 41.912 177.12C41.8138 177.33 41.4028 177.444 41.0925 177.452C40.5728 177.361 40.6579 176.635 40.6448 176.118L40.6369 175.807C41.2588 171.755 43.292 166.219 44.5397 162.358C45.1157 160.584 45.8004 159.015 46.5859 157.339C47.1725 155.979 45.8044 155.082 44.8578 154.485L44.7544 154.487C43.9166 154.095 43.0839 153.909 42.3469 153.41C41.5038 152.81 40.3504 152.219 40.3216 151.081C40.3858 149.527 41.4999 148.567 42.72 147.708C43.2319 147.489 43.8525 147.473 44.473 147.457L44.8867 147.447C48.7056 147.04 50.7269 145.126 52.2927 141.567C54.9255 135.188 57.9773 129.004 62.3892 123.408C63.3921 122.141 63.557 120.481 64.3504 119.115C65.1333 117.336 66.2238 115.445 68.1706 114.672C69.9131 114.007 71.9894 114.265 73.7738 115.254C75.0306 115.843 75.0594 116.981 75.0882 118.119L75.1118 119.05C75.1249 119.567 75.2414 120.081 75.2466 120.288ZM66.2761 125.69C66.0771 126.005 65.7721 126.22 65.5705 126.432C65.0691 127.066 64.7745 127.694 64.4773 128.219C62.3198 132.931 58.6907 136.748 57.1615 141.755C56.9652 142.173 56.5619 142.598 56.2621 143.019C55.5539 143.658 54.949 144.294 55.5853 144.899C56.2242 145.607 57.0385 145.069 57.8528 144.531C58.362 144.208 58.9747 143.882 59.4892 143.765C60.0037 143.649 60.4148 143.535 60.8207 143.214C61.4308 142.785 62.16 142.973 62.8866 143.058C63.9286 143.343 64.8647 143.526 65.6633 142.367C66.3611 141.315 66.2289 140.18 66.2027 139.145C66.081 138.424 65.9618 137.806 66.1504 137.077C67.0982 133.638 67.9401 130.098 67.4347 126.488C67.4243 126.075 67.4164 125.764 67.7188 125.446C67.9205 125.234 67.9126 124.924 67.9047 124.614C67.7856 123.996 67.6691 123.481 67.2659 123.905C66.9635 124.223 66.9739 124.637 66.6741 125.059C66.5786 125.372 66.4777 125.478 66.2761 125.69Z" fill="#007CEF"/>
<path d="M132.249 167.9C136.179 167.801 134.748 172.598 133.196 172.637C131.438 172.681 128.016 176.494 125.443 177.076C121.539 178.21 112.011 177.934 111.909 173.9C111.854 171.728 110.491 171.038 109.566 171.268C108.64 171.499 107.319 172.464 106.409 173.315C102.587 177.655 97.3721 180.167 92.5936 179.46C85.6275 178.187 85.5673 175.809 85.4338 170.534L85.4103 169.603C85.3946 168.982 87.3662 165.103 87.3217 163.345C87.2353 159.932 87.255 156.62 88.8156 152.855C90.4743 148.88 89.8734 145.584 90.4901 141.325C90.769 140.076 91.0531 139.034 91.2364 138.098C91.9001 135.701 92.4683 133.617 92.0821 130.625C91.7994 127.631 92.1319 124.414 92.4723 121.508C92.7303 119.432 92.9908 117.459 92.9463 115.701C92.8966 113.735 94.829 108.305 96.7548 106.704C97.6646 105.853 101.176 105.557 102.042 107.088C102.697 108.416 101.516 110.827 100.731 112.502C100.635 112.815 100.436 113.131 100.338 113.34C99.6558 115.013 99.7985 116.562 99.9438 118.214C100.094 120.073 100.245 121.932 99.3638 123.921C98.4801 125.806 98.6175 127.148 98.6542 128.596C98.7943 130.041 98.937 131.59 97.743 133.483C97.1486 134.533 97.1983 136.498 97.2428 138.256C97.2742 139.497 97.3057 140.739 97.0137 141.47C95.9389 143.981 95.9244 147.5 95.5526 149.166C93.1502 156.471 93.4094 158.534 93.5992 161.944C93.7105 162.252 93.7184 162.562 93.7288 162.976C93.8663 164.318 93.6882 165.461 93.5102 166.604C93.2444 168.37 93.0768 169.926 94.2459 171.139C95.3115 172.354 96.7726 172.834 98.3109 172.278C100.767 171.181 102.032 172.08 103.735 169.864C106.239 166.592 107.899 166.757 107.818 163.551L107.708 159.207C107.632 156.208 107.556 153.208 108.74 150.902C110.316 147.757 110.768 145.158 112.983 142.722C115.296 140.076 120.054 139.956 121.3 140.131C125.355 140.857 129.753 142.919 129.858 147.056L129.939 150.262C130.005 152.847 126.037 155.535 124.739 157.431C122.232 160.599 116.793 162.392 116.897 166.529C116.942 168.288 120.014 171.108 121.778 171.27C125.307 171.698 126.83 170.521 128.355 169.448C129.371 168.697 130.49 167.945 132.249 167.9ZM118.099 156.771C119.624 155.697 119.675 153.626 121.288 151.929C122.092 150.978 122.909 150.543 122.878 149.302C122.859 148.578 121.905 147.671 121.163 146.965C120.632 146.461 120.121 146.681 119.606 146.798C119.298 146.909 118.991 147.02 118.68 147.028C115.267 147.114 113.95 152.322 113.305 155.443C113.212 155.86 114.55 159.655 118.099 156.771Z" fill="#007CEF"/>
<path d="M148.825 179.486C148.104 179.607 146.142 179.76 144.145 178.569C140.68 176.587 138.401 172.402 139.131 168.554C139.777 165.433 140.637 162.617 141.804 159.69C144.137 153.732 147.101 148.171 150.901 142.901C152.501 140.687 154.636 139.184 156.556 137.376C158.779 135.25 161.898 135.792 164.504 136.554C166.278 137.13 167.76 138.438 169.234 139.436C170.709 140.433 170.745 141.881 170.578 143.438C170.508 144.785 169.479 145.018 168.342 145.047C167.204 145.075 166.658 143.951 165.714 143.457C163.195 142.072 161.649 142.318 159.63 144.336C156.198 147.734 153.499 151.528 151.962 156.224C151.1 158.937 149.611 161.458 148.541 164.176C148.448 164.592 148.249 164.908 148.053 165.327C147.663 166.268 147.169 167.212 147.302 168.347C147.621 172.789 150.811 172.087 154.005 171.489C154.519 171.373 155.137 171.254 155.651 171.137C160.186 170.401 160.959 168.208 164.746 166.56C167.202 165.463 167.168 164.119 168.993 162.624C170.821 161.232 172.656 160.151 173.515 161.371C174.268 162.49 173.498 164.786 170.471 167.864C169.06 169.349 165.808 171.708 164.389 172.882C163.174 173.948 161.654 175.228 159.296 176.116C154.888 177.78 152.955 179.071 148.825 179.486Z" fill="#007CEF"/>
<path d="M26.0618 164.825C26.3796 165.015 26.5067 165.269 26.6973 165.524C26.9515 165.714 27.1422 165.969 27.2057 166.159C27.3964 166.668 27.2057 166.985 26.9515 167.367C25.8076 168.701 24.1552 168.956 22.8206 167.812C21.486 166.604 20.1514 165.333 18.9439 163.998C17.9906 162.918 17.2915 163.172 16.3383 163.871C15.3214 164.634 14.1139 165.333 13.0335 166.096C11.7625 167.049 10.3643 167.557 8.83904 167.939C4.32681 169.21 1.53049 168.511 0.195888 164.126C-0.0583226 163.426 0.00522994 160.757 0.132335 160.567C0.513651 159.486 1.14918 159.041 1.46694 158.469C1.84826 157.897 2.03891 157.262 2.29312 156.69C2.8651 155.419 3.56418 154.211 4.77168 153.512C6.23339 152.94 8.64838 149.826 9.60167 148.619C10.3008 147.793 10.9363 146.839 9.66523 143.916C8.20352 140.865 9.28391 137.751 10.4279 134.701C10.6821 133.938 10.9363 133.239 11.1269 132.54C11.5718 131.205 12.2709 130.316 13.4784 129.744C14.1139 129.362 14.9401 129.172 15.5756 128.6C15.9569 128.218 16.2747 127.773 16.7196 127.392C17.1644 126.757 17.9906 126.502 18.7533 126.502C19.5794 126.439 20.5327 126.82 21.1683 127.392C21.4225 127.646 21.7402 127.646 22.058 127.583C22.3122 127.583 22.5664 127.519 22.8842 127.71C24.4094 128.409 23.7104 129.807 22.3122 129.871C21.8038 129.871 21.2954 129.044 20.914 129.044C20.5327 129.044 20.1514 129.235 19.7065 129.489C19.3252 129.807 18.8168 130.061 18.1813 130.188C18.0542 130.188 17.8635 130.252 17.6729 130.252C17.1009 130.252 16.5289 130.316 16.2111 130.951C16.1476 131.142 14.7494 131.523 14.241 132.603C13.3513 134.637 13.2877 135.336 12.7158 137.497C12.1438 139.721 12.5251 141.374 12.9064 143.026C13.2242 143.979 13.6055 144.678 14.1775 144.742C14.9401 144.742 16.084 144.297 16.4018 144.106C16.9738 143.598 17.1009 142.327 17.6729 141.755C19.1981 140.357 20.215 138.641 21.3589 137.306C21.9309 136.607 21.9309 136.035 21.9944 135.336C21.9944 134.955 21.9944 134.51 22.1215 134.002V133.62C22.1215 132.794 22.1215 131.777 23.7739 131.332C24.9814 131.015 25.2356 132.349 25.2356 133.112C25.2992 134.701 25.1085 135.781 24.6001 137.179C24.0917 138.196 23.2655 139.086 22.8206 140.039C21.9309 142.263 19.8336 144.297 18.1813 146.013C16.656 147.729 16.2111 148.873 16.656 150.208C16.8467 150.779 17.4822 152.178 17.6729 152.813C17.8635 153.385 18.499 154.211 18.9439 154.211C19.7065 154.275 20.4692 153.449 21.0411 152.813C21.3589 152.495 21.6131 152.241 21.8038 152.114C22.63 151.288 23.6468 150.652 24.6636 150.144C24.7908 150.08 24.9814 149.953 25.1085 149.953C25.5534 150.017 25.744 150.208 25.9347 150.525C25.9982 150.716 26.1254 150.843 26.1889 151.034C26.4431 151.479 26.6973 151.987 26.5067 152.495C26.4431 152.75 26.316 153.067 26.0618 153.322C24.6636 155.038 22.9477 156.881 22.63 159.041C22.5029 160.376 22.9477 161.647 23.7104 162.6C24.3459 163.554 25.2356 164.189 26.0618 164.825ZM14.4952 159.168C15.7663 156.944 15.1943 155.609 12.7793 153.83C11.8896 153.194 10.2372 153.576 9.28391 154.402C8.20352 155.355 6.99602 156.372 6.04273 157.58C4.70812 159.232 4.26326 161.266 4.83523 163.363C5.34365 164.952 7.50444 164.443 8.9026 163.808C11.0634 162.727 12.4615 162.028 13.8597 160.122C14.1139 159.804 14.3681 159.486 14.4952 159.168Z" fill="#E8B80D"/>
<path d="M59.1478 7.53707C60.3172 7.41397 61.8559 5.93682 64.7486 5.32134C68.0107 4.64431 71.0265 2.67477 73.4269 1.8131C74.7194 1.38226 75.9504 0.828335 77.3044 0.520592C78.72 0.151305 79.5817 0.64369 79.8279 1.62846C80.0741 2.49013 79.4586 4.21347 78.5354 4.45967C76.5043 4.95205 74.5963 5.69063 72.6268 6.49075C71.7036 6.86004 70.7188 7.04468 69.9187 7.41397C68.9954 7.84481 68.1338 8.2141 68.0722 9.50661C67.826 13.3226 66.7797 17.6309 66.7797 21.5085C66.7797 21.8778 65.918 25.0167 65.6718 27.1709C65.4257 29.2635 65.4257 30.556 65.4257 31.6639C65.3641 33.4488 65.3641 34.6182 64.2562 37.511C64.0716 38.0033 64.0716 38.5573 64.0716 39.1728V39.9729C64.01 40.9577 62.7175 41.5731 61.7328 41.5731C60.748 41.5731 60.1941 40.8961 60.1941 39.9729C60.1941 38.4342 60.2556 36.8339 60.6865 35.2337C61.4866 32.1563 62.2867 28.3403 63.0868 25.2014C63.5792 23.4165 63.5177 22.1855 63.5177 20.9545C63.5177 19.6005 63.4561 18.308 64.0716 16.4C64.3178 15.6614 64.2562 14.6766 64.2562 13.6303C64.2562 12.3994 64.1947 11.1069 64.564 9.93744C64.6871 9.44506 64.1331 9.01422 63.7639 9.26041C62.3483 10.2452 61.1173 10.6145 58.5323 10.7991C58.163 10.7991 57.7937 10.8607 57.486 10.9222C56.6858 11.1069 55.9473 11.23 55.1471 10.8607C54.4701 10.5529 53.67 9.56815 53.9162 8.76803C54.1008 7.96791 54.5932 7.41397 55.9473 7.53707C56.9936 7.66017 58.0399 7.66017 59.1478 7.53707Z" fill="#068E40"/>
<path d="M107.694 41.2038C105.109 41.2038 102.708 39.9729 101.354 37.2032C101.108 36.5877 100.923 36.7108 100.554 36.957C100.554 36.957 100.554 37.0186 100.493 37.0186C98.9539 38.188 96.7382 39.4805 94.584 39.1112C93.1069 38.865 92.3683 37.1417 91.5066 36.0954C90.8912 35.3568 90.8912 33.6334 90.8912 31.9716C90.8912 30.7407 90.8296 29.5713 90.5834 28.8942C89.9679 27.3555 87.9984 27.294 86.9521 28.4634C84.8594 30.8022 83.4438 36.7108 81.7205 39.3574C81.1666 40.2191 80.5511 41.0192 79.8125 41.5731C78.4585 42.6194 76.9197 41.6347 76.8582 39.7882C76.8582 39.1728 76.8582 38.5573 77.1044 37.8802C78.6431 34.1258 79.197 29.0173 79.9356 25.0167C80.1818 23.6011 80.6742 22.247 81.1666 20.893C81.5974 19.6005 81.5359 18.4926 81.5359 17.3848C81.5359 16.4 81.4743 15.4152 81.782 14.1843C82.3975 11.9685 82.8284 9.7528 83.3207 7.41397C83.5669 6.24456 83.3207 5.07515 84.1209 3.84419C84.4902 3.22871 84.4902 2.67477 84.6133 1.99775C84.6133 1.9362 84.6748 1.8131 84.6748 1.75155C84.9825 0.582143 85.2287 -0.156435 86.5828 0.0282101C87.0752 0.0897574 87.1367 0.459044 87.2598 0.95143C87.4445 1.75155 87.1983 2.49013 86.9521 3.22871C86.7674 3.65954 86.6443 4.02883 86.5828 4.45967C85.9673 8.02945 84.8594 11.4761 84.7363 15.169C84.6133 18.1233 84.4902 18.1849 83.9362 21.0776C83.9362 21.2623 83.8747 21.3854 83.8747 21.57C83.8131 22.0624 83.7516 22.6163 83.8131 23.1087C83.8747 23.6627 83.7516 24.2166 83.5669 24.7705C83.4438 25.2629 83.3207 25.6937 83.3207 26.1861C83.3207 26.4323 83.5054 26.617 83.69 26.5554C84.6133 26.1246 84.921 24.9552 85.7827 24.4012L87.1367 23.6627C90.5834 21.6931 91.7528 23.4165 93.4762 26.2477C93.7839 26.7401 93.7839 27.294 94.0301 27.7864C95.0764 30.1252 94.584 34.1874 96.7998 34.372C98.4 34.4951 99.2001 33.8796 99.9387 33.018C100.862 31.9101 101.354 30.8022 102.524 29.0173C104.801 25.5091 105.293 23.9704 108.063 21.5085C109.663 20.1544 111.879 19.1081 114.218 19.6005C115.633 19.8467 116.372 21.4469 115.818 22.801C115.203 24.3397 114.464 26.0015 113.233 26.9862C111.756 28.0326 110.648 29.6944 108.925 30.6176C108.679 30.7407 108.432 30.9253 108.186 31.11C107.694 31.4793 107.263 31.9101 106.524 31.8485C105.601 31.787 105.047 32.464 105.109 33.5103C105.109 34.5567 105.786 36.1569 106.647 36.5262C107.94 37.0801 109.602 36.8339 111.387 36.6493C111.756 36.5877 112.187 36.5262 112.618 36.4646C115.633 36.0954 116.249 35.3568 118.28 34.1258C118.957 33.695 120.434 32.6487 121.173 32.6487C121.911 32.6487 122.527 33.5719 122.527 34.6182C122.527 36.0954 119.142 37.1417 117.357 38.5573C115.633 39.9113 114.526 40.096 112.741 40.7115C111.202 41.2038 109.479 41.2038 108.063 41.2038H107.694Z" fill="#068E40"/>
<path d="M21.5271 214.966C21.5916 216.9 21.7849 218.834 21.7849 220.767V221.089C21.7849 221.605 21.7849 222.121 21.9138 222.507C22.1716 223.216 22.365 224.248 23.1384 224.377C23.9118 224.505 24.1696 223.925 24.4919 223.345C24.5564 223.152 24.6208 223.023 24.6853 222.894C26.2321 220.316 27.3923 217.867 29.068 215.933C30.9372 213.806 30.8082 210.777 32.0973 209.037C33.3863 207.297 33.1285 204.01 33.7086 202.269C34.2242 200.851 34.5465 198.853 36.2223 198.531C37.898 198.209 39.1226 200.851 38.7359 202.205C38.1558 204.396 37.4468 206.523 36.8668 208.65C35.9644 212.066 34.9332 215.224 32.8063 217.222C31.0661 218.834 30.3571 220.832 29.3258 222.765C28.2946 224.699 26.4255 228.63 24.8142 230.306C24.1052 231.015 22.1716 230.951 21.3337 230.306C19.3357 228.824 18.24 226.955 17.66 224.441C16.8865 220.961 16.6287 217.416 16.6287 213.935C16.6287 213.742 16.4998 213.226 16.3709 213.355C16.242 213.484 16.0486 213.613 15.9842 213.742C13.9862 217.996 10.9569 221.476 8.63662 225.472C7.73429 226.955 6.44524 228.244 5.09174 229.275C2.51364 231.208 0 229.984 0 226.761C0 223.732 0.193357 220.638 0.708977 217.609C1.09569 215.289 1.2246 212.904 1.3535 210.584C1.54686 207.232 2.32029 204.138 3.73824 201.174C4.57612 199.433 5.99407 198.338 7.73429 197.629C8.121 197.435 8.70107 197.435 8.95888 197.887C9.28115 198.402 9.28115 198.982 8.82998 199.433C8.70107 199.562 8.37881 199.562 8.24991 199.691C5.34955 202.592 4.31831 205.621 4.31831 209.552C4.31831 210.004 4.31831 210.39 4.38276 210.842C4.44722 211.615 4.44722 212.388 4.38276 213.162C4.31831 213.871 3.99605 214.58 3.80269 215.289C3.67379 215.804 3.67379 216.32 3.73824 216.836V217.48C3.73824 219.027 3.73824 220.509 3.9316 221.992C3.9316 222.25 3.80269 222.572 3.67379 222.894C3.41598 223.281 3.22262 223.732 3.41598 223.99C3.9316 224.763 4.83393 223.539 5.2851 222.83C5.414 222.636 5.54291 222.507 5.60736 222.443C6.50969 221.541 7.08976 220.445 7.66984 219.349C10.119 214.773 12.8905 210.326 15.7264 206.008C16.6932 204.461 17.9822 204.267 19.4002 205.363C20.6892 206.265 21.3982 207.426 21.3337 209.101C21.2693 210.39 21.3337 211.679 21.4626 212.968C21.4626 213.613 21.5271 214.257 21.5271 214.966Z" fill="#FF3E8F"/>
<path d="M55.5595 227.148C54.915 227.47 53.497 227.921 52.9169 228.179C51.6923 228.759 50.79 229.21 50.2099 229.791C49.3076 230.693 47.5029 231.08 46.0205 231.595C44.0869 232.24 41.8956 232.24 40.2198 230.499C39.7686 230.048 39.6397 229.404 39.6397 228.824V228.373C39.6397 226.439 39.6397 225.666 40.4776 224.248C41.5733 222.378 41.5733 221.734 40.4776 220.832C40.0264 220.445 39.5753 219.929 40.4776 218.576C40.8643 217.996 41.4444 217.996 42.0245 217.996H42.1534C43.4424 217.996 43.0557 215.224 43.6358 214.064C44.1514 212.904 45.3115 211.228 46.4717 210.068C47.374 209.166 48.2119 207.877 49.3076 207.232C51.0478 206.201 53.2392 206.136 54.9794 206.136C55.5595 206.136 56.7196 206.394 57.1063 207.103C57.5575 207.941 57.8798 209.488 57.5575 210.584C57.2352 211.744 56.3329 213.549 55.4306 214.386C53.9482 215.869 52.5947 216.707 50.9834 217.48C49.1142 218.447 46.8584 218.511 45.376 219.994C44.2803 221.089 44.0225 221.734 43.378 223.345C43.0557 224.183 42.7979 224.828 42.7979 225.666C42.7979 226.761 43.378 227.921 43.958 227.921C44.4737 227.921 45.9561 227.599 46.5361 227.341C49.501 226.052 48.3408 224.441 52.5947 223.216C54.3993 222.701 55.5595 223.539 56.0751 223.925C57.7509 225.214 56.6552 226.568 55.5595 227.148ZM52.5302 209.359C51.2412 209.617 50.9189 210.584 50.2744 211.035C49.1787 211.744 48.2119 212.388 47.8896 213.162C47.0518 215.353 49.5654 214.451 50.7255 213.742C51.5634 213.226 53.6259 212.517 53.6259 209.875C53.6259 209.101 52.9814 209.23 52.6591 209.359H52.5302Z" fill="#FF3E8F"/>
<path d="M77.0629 215.353C77.1274 214.386 77.5785 213.549 78.352 212.904C79.1254 212.324 79.5766 211.357 79.7055 210.197C80.1566 205.943 82.0257 202.14 83.3792 198.209C83.9593 196.726 84.8617 196.082 86.1507 195.502C87.2464 194.986 87.5687 195.244 88.0198 196.211C88.6643 197.693 89.1155 198.724 88.4065 200.529C86.6019 204.847 85.2484 209.295 82.6703 213.226C81.5101 214.838 80.9301 216.771 81.1234 218.898C81.2523 220.38 81.2523 221.863 81.1879 223.281V225.021C81.1879 226.761 83.057 227.792 84.4749 226.89C85.9573 225.859 87.4397 224.763 87.8265 222.83C88.5354 219.285 90.5979 216.32 92.2092 213.097C93.4338 210.584 95.5607 208.843 98.7834 209.617C99.299 209.746 99.6213 210.519 99.1056 210.777C98.8478 210.842 98.5256 210.842 98.2678 210.777H98.0099C97.6877 210.777 97.301 210.842 96.9787 210.97C95.6252 211.422 94.6584 212.517 93.9494 213.677C93.1116 215.095 92.4026 216.642 91.8225 218.189C91.5647 218.963 91.2424 219.865 91.2424 220.703C91.2424 221.67 92.2092 224.054 93.3694 222.765C95.174 220.767 96.4631 218.382 97.881 216.127L99.9435 213.097C100.588 212.324 101.233 211.744 101.748 210.97C102.393 210.197 102.586 209.23 102.844 208.328C105.1 201.625 107.356 194.922 109.482 188.154C109.869 186.994 110.449 186.156 111.416 185.447C112.061 184.996 113.479 185.447 113.479 186.35V187.316C113.543 188.928 113.543 190.539 112.898 192.279C111.48 195.695 110.643 199.498 109.418 203.043C108.258 206.588 107.033 210.133 106.775 213.935C106.711 214.902 106.389 215.869 106.131 216.836C105.68 218.189 105.229 219.607 105.551 221.154C105.809 222.507 106.389 222.894 107.678 223.087C109.805 223.41 109.805 223.99 108.967 225.794C108.193 227.535 107.227 228.888 104.906 228.566C102.908 228.244 101.748 227.212 101.49 225.085C101.426 224.441 101.49 223.796 101.426 223.087V222.507C101.426 221.734 101.49 220.961 100.717 220.961C100.072 220.961 99.1701 221.992 98.8478 222.765C98.2678 224.57 96.8498 225.73 95.4963 226.89C94.3362 227.921 92.8538 228.566 91.6292 229.404C90.9202 229.855 90.2756 229.855 89.6956 229.404C88.471 228.501 87.3108 228.566 86.0218 229.468C85.1195 230.113 84.1527 230.628 83.057 230.951C82.5414 231.08 81.639 230.886 81.2523 230.564C79.641 229.339 78.0942 227.986 78.2875 225.601C78.352 224.699 78.352 223.861 77.3852 223.281C76.7406 222.959 75.3871 223.474 74.8071 224.957C74.0336 226.697 72.7446 227.921 71.4555 229.21C71.0044 229.726 70.6177 230.306 69.9732 230.564C69.6509 230.693 69.3931 230.886 69.0708 231.08C67.9751 231.724 66.9439 232.304 65.2037 231.466C63.1412 230.306 61.8521 229.21 62.0455 226.89C62.4967 221.347 64.4302 216.384 69.0064 212.968C70.3599 212.002 72.2934 211.422 73.9047 211.55C74.4204 211.615 75.1938 211.679 75.7739 212.066C76.5473 212.453 76.2895 213.613 75.3871 213.613L74.2915 213.549C71.9712 213.549 69.6509 214.451 68.4263 216.32C66.3638 219.414 64.2369 222.701 64.817 226.89C64.9459 227.599 65.2037 228.115 65.9126 228.308C66.2994 228.373 66.815 228.308 67.0728 228.05C69.7153 225.537 72.4868 223.152 74.8071 220.38C75.9672 218.963 76.934 217.287 77.0629 215.353Z" fill="#FF3E8F"/>
<path d="M113.283 220.832C113.348 219.22 114.379 217.48 114.508 215.869C114.766 213.162 115.668 211.422 116.312 208.972C116.828 206.974 120.373 207.232 120.051 208.972C119.535 211.228 118.568 213.484 118.246 214.966C117.795 217.029 116.892 218.963 116.828 221.089C116.828 221.734 116.699 222.443 116.57 223.152C116.312 224.505 116.119 225.859 116.57 227.019C116.699 227.47 117.15 227.599 117.473 227.341C120.051 225.085 122.5 222.894 124.369 220.123C127.334 215.869 128.623 215.289 131.459 210.906C132.877 208.715 133.843 207.49 134.101 207.297C134.552 206.974 135.455 206.845 136.035 207.039C136.937 207.297 137.259 208.135 136.937 208.972C136.357 210.906 135.455 212.646 134.746 214.515L132.554 220.961C132.554 221.025 132.49 221.154 132.49 221.218C132.232 221.927 131.91 222.894 132.877 222.959C133.457 222.959 134.295 222.314 134.681 221.927C137.195 218.898 139.451 216.127 141.384 212.646C143.189 209.295 144.478 209.295 145.638 209.295H145.703C146.863 209.359 148.345 210.068 148.281 211.228C148.281 212.517 148.152 213.871 148.023 214.966C147.378 219.091 147.701 221.089 148.668 224.892C148.925 226.117 149.957 227.535 150.085 228.308C150.214 228.824 149.892 229.533 149.441 229.984C148.99 230.499 147.443 229.662 146.992 229.082C145.445 227.212 145.252 226.246 144.22 219.8V219.543C144.156 218.963 144.091 218.189 143.125 218.125C142.738 218.125 142.222 218.705 141.964 218.963C140.933 219.929 140.16 221.218 139.193 222.25C137.259 224.248 135.455 226.246 133.457 228.179C132.554 229.082 131.459 229.468 130.105 229.468C128.945 229.404 127.914 228.759 127.849 227.664C127.849 227.406 127.785 227.084 127.785 226.826C127.72 225.923 127.656 224.957 127.72 224.054V223.732C127.785 223.152 127.849 222.25 127.076 222.443C126.238 222.765 125.465 224.183 124.885 224.828C123.596 226.503 122.178 228.05 120.502 229.468C119.922 229.984 119.342 230.564 118.633 231.015C116.957 232.24 114.379 231.337 113.412 229.468C112.445 227.47 112.445 225.214 112.639 223.152C112.639 222.507 113.283 221.476 113.283 220.832ZM122.758 198.789C122.758 200.078 122.693 201.174 120.953 201.367C119.664 201.431 117.408 199.885 117.924 199.111C118.31 198.08 119.406 197.371 120.502 196.92C121.469 196.469 122.887 197.629 122.758 198.789Z" fill="#FF3E8F"/>
<path d="M160.017 244.099C159.952 242.036 161.435 239.458 163.368 237.009C164.271 235.913 164.915 234.624 165.946 233.722C167.88 232.111 169.298 229.919 170.007 227.47C170.265 226.181 170.394 224.957 170.522 223.668C170.522 223.474 170.587 223.216 170.651 222.959C170.716 222.378 170.845 221.734 170.651 221.154C170.522 220.058 169.556 219.671 168.976 220.703C166.849 224.248 163.368 226.375 160.339 228.953C159.823 229.468 159.114 229.662 158.47 229.855C157.374 230.177 155.118 229.21 155.312 226.955C155.634 223.41 157.052 222.765 157.954 219.671C158.341 218.318 159.694 217.158 160.21 216.449C160.726 215.547 161.048 214.709 161.564 213.935C162.079 213.42 162.401 213.033 162.724 212.388C162.788 212.131 162.853 211.679 162.724 211.422C162.466 210.906 162.273 210.97 161.95 211.035H161.821C160.726 211.228 159.694 211.357 158.728 211.357C157.31 211.357 155.892 211.099 154.409 210.97C153.507 210.842 152.218 209.23 152.347 208.521C152.476 207.812 154.409 206.523 155.183 206.974C157.052 208.07 158.792 207.683 160.597 207.232C161.435 207.039 162.337 206.845 163.175 206.845C165.882 206.588 168.847 206.201 171.618 205.75C172.263 205.685 173.036 205.814 173.681 206.008C174.39 206.201 174.776 207.232 174.583 208.135C174.261 209.295 172.843 209.939 171.811 209.939C169.362 209.81 168.073 211.164 166.526 212.711L166.011 213.226C164.271 215.095 162.724 216.578 161.692 218.898C161.241 219.929 160.661 220.316 160.339 221.605C160.339 221.67 160.339 221.734 160.274 221.863C160.146 222.378 159.952 223.216 160.597 223.41C161.177 223.539 162.015 223.216 162.53 222.83C163.304 222.314 163.948 221.798 164.464 220.961C166.913 217.609 167.622 217.738 170.78 214.838C171.94 213.677 172.392 212.002 173.294 210.648C173.809 209.939 174.583 209.939 175.227 210.326C175.872 210.648 175.872 211.615 175.55 212.131C173.745 214.966 173.681 218.189 173.681 221.283C173.616 222.378 173.616 223.41 173.552 224.441C173.487 225.085 173.874 225.279 174.454 224.957C174.647 224.828 174.841 224.699 175.099 224.57C176.001 224.312 176.581 223.281 177.419 222.636C178.128 221.992 180.061 221.605 180.319 222.701C180.577 224.054 179.288 225.085 178.192 225.923C177.806 226.246 177.483 226.503 177.225 226.761C176.388 227.664 175.421 228.373 174.454 229.082C173.229 229.984 172.907 231.273 172.52 232.691C171.811 235.656 170.78 238.427 170.265 241.456C169.62 245.646 165.882 247.579 162.788 250.222C162.724 250.286 162.595 250.286 162.401 250.222H162.079C161.306 250.351 159.952 249.513 159.952 248.804C159.952 248.417 159.952 247.966 160.017 247.515C160.017 246.677 160.081 245.646 160.017 244.099ZM163.69 245.646C164.915 245.775 167.171 241.714 167.364 241.134C167.622 240.296 167.815 239.201 167.3 238.556C167.235 238.427 167.171 238.363 166.978 238.363C166.913 238.363 166.72 238.492 166.655 238.685C165.56 240.49 164.528 242.423 163.368 244.228C163.239 244.486 163.046 244.872 163.239 245.195C163.368 245.517 163.497 245.646 163.69 245.646Z" fill="#FF3E8F"/>
</svg>
